<svg width="94" height="30" fill="none" xmlns="http://www.w3.org/2000/svg"><path fill-rule="evenodd" clip-rule="evenodd" d="M93.307 6.716c.141 1.668.24 4.746.24 8.265 0 3.52-.095 6.597-.24 8.266-.497.747-1.534 1.992-2.798 3.337-1.264 1.345-2.438 2.448-3.137 2.977-8.154.237-23.185.397-40.38.397-17.195 0-32.226-.16-40.38-.397-.703-.529-1.872-1.632-3.136-2.977S1.175 23.99.678 23.247C.536 21.578.438 18.5.438 14.98c0-3.52.094-6.597.24-8.265.497-.744 1.534-1.993 2.798-3.338S5.914.93 6.612.401C14.766.164 29.797.005 46.992.005c17.195 0 32.226.16 40.38.396.703.53 1.873 1.632 3.137 2.977s2.3 2.594 2.798 3.338z" fill="#125B00"/><path fill-rule="evenodd" clip-rule="evenodd" d="M3.827 14.98c0-2.247.004-4.627.15-6.906L.673 6.715c-.141 1.669-.24 4.746-.24 8.266 0 3.52.095 6.597.24 8.266l3.304-1.36c-.146-2.279-.15-4.659-.15-6.906z" fill="url(#paint0_radial_1_5062)"/><path fill-rule="evenodd" clip-rule="evenodd" d="M3.977 8.074c.591-.752 1.298-1.51 1.898-2.143.574-.61 1.26-1.34 1.945-1.956L6.616.396C5.913.926 4.744 2.03 3.48 3.374 2.216 4.718 1.179 5.968.682 6.71l3.295 1.363z" fill="url(#paint1_radial_1_5062)"/><path fill-rule="evenodd" clip-rule="evenodd" d="M7.816 3.975c5.206-.14 10.42-.205 15.626-.255 7.85-.077 15.7-.11 23.55-.11 7.85 0 15.7.033 23.55.11 5.205.055 10.42.114 15.626.255L87.372.397C79.218.16 64.187 0 46.992 0 29.797 0 14.766.16 6.612.397l1.204 3.579z" fill="url(#paint2_radial_1_5062)"/><path fill-rule="evenodd" clip-rule="evenodd" d="M86.164 3.975c.681.616 1.367 1.34 1.945 1.956.596.634 1.307 1.395 1.898 2.143l3.304-1.359c-.497-.743-1.534-1.992-2.798-3.337C89.249 2.033 88.075.93 87.376.4l-1.212 3.574z" fill="url(#paint3_radial_1_5062)"/><path fill-rule="evenodd" clip-rule="evenodd" d="M90.003 8.074c.146 2.275.15 4.655.15 6.907 0 2.248-.004 4.627-.15 6.907l3.303 1.358c.142-1.668.24-4.745.24-8.265 0-3.52-.094-6.597-.24-8.266l-3.303 1.359z" fill="url(#paint4_radial_1_5062)"/><path fill-rule="evenodd" clip-rule="evenodd" d="M90.003 21.883c-.591.753-1.298 1.51-1.898 2.143-.574.611-1.26 1.34-1.946 1.956l1.204 3.579c.703-.53 1.873-1.632 3.137-2.977s2.3-2.594 2.798-3.337l-3.295-1.364z" fill="url(#paint5_radial_1_5062)"/><path fill-rule="evenodd" clip-rule="evenodd" d="M86.164 25.982c-5.206.142-10.421.205-15.627.256-7.85.077-15.7.109-23.55.109-7.85 0-15.699-.032-23.549-.11-5.206-.05-10.42-.113-15.626-.255l-1.204 3.579c8.154.237 23.185.397 40.38.397 17.195 0 32.226-.16 40.38-.397l-1.204-3.579z" fill="url(#paint6_radial_1_5062)"/><path fill-rule="evenodd" clip-rule="evenodd" d="M7.816 25.982c-.681-.616-1.367-1.34-1.945-1.956-.596-.634-1.307-1.395-1.898-2.143L.669 23.242c.497.748 1.534 1.992 2.798 3.337 1.264 1.345 2.438 2.448 3.136 2.977l1.213-3.574z" fill="url(#paint7_radial_1_5062)"/><path opacity=".5" fill-rule="evenodd" clip-rule="evenodd" d="M46.988 28.736c-21.634 0-39.176-1.231-39.176-2.75l-1.204 3.58c8.154.236 23.185.396 40.38.396 17.195 0 32.226-.16 40.38-.397l-1.204-3.578c0 1.518-17.538 2.749-39.176 2.749z" fill="url(#paint8_radial_1_5062)"/><path fill-rule="evenodd" clip-rule="evenodd" d="M6.612.4C7.67 4.655 3.548 7.733.673 6.72l3.304 1.358c.591-.752 1.298-1.509 1.898-2.142.574-.611 1.26-1.34 1.945-1.956L6.612.4z" fill="url(#paint9_radial_1_5062)"/><path fill-rule="evenodd" clip-rule="evenodd" d="M7.816 3.975c5.206-.14 10.42-.205 15.627-.255 7.85-.077 15.7-.11 23.549-.11a2385.337 2385.337 0 0124.976.124c-21.073-.424-42.552-.56-63.848-.169l-.24-.16c-.407-.943-.767-1.777-1.17-2.721.24.998.266 1.719.506 2.717l-.064.315C6.693 4.796 5.314 6.415 3.8 7.39l-.287.069c-.896-.292-1.581-.306-2.477-.598.84.41 1.629.826 2.468 1.236l.15.255c-.064 4.459-.068 8.863.005 13.176l-.146.264c-.523.301-.994.598-1.517.898.579-.155 1.131-.282 1.71-.437l.283.082c1.135 1.208 2.36 2.47 3.47 3.679l.077.305c-.115.484-.184.867-.304 1.368.219-.456.446-.839.664-1.295l.245-.155c9.066.206 20.785.215 29.839.087-3.99-.018-10.558-.055-14.547-.096-5.206-.05-10.42-.114-15.627-.255-.68-.615-1.367-1.34-1.945-1.956-.596-.634-1.307-1.395-1.898-2.143-.146-2.275-.15-4.654-.15-6.907 0-2.247.004-4.627.15-6.907.591-.752 1.298-1.509 1.898-2.142.587-.602 1.273-1.327 1.954-1.943z" fill="#FFE5A6"/><path fill-rule="evenodd" clip-rule="evenodd" d="M87.368.4c-1.059 4.254 3.063 7.332 5.939 6.32l-3.304 1.358c-.591-.752-1.298-1.509-1.898-2.142-.574-.611-1.26-1.34-1.946-1.956L87.368.4z" fill="url(#paint10_radial_1_5062)"/><path fill-rule="evenodd" clip-rule="evenodd" d="M87.368 29.56c-1.059-4.253 3.063-7.33 5.939-6.318l-3.304-1.359c-.591.753-1.298 1.51-1.898 2.143-.574.611-1.26 1.34-1.946 1.956l1.209 3.579z" fill="url(#paint11_radial_1_5062)"/><path fill-rule="evenodd" clip-rule="evenodd" d="M90.003 21.883c-.591.752-1.298 1.51-1.898 2.143-.574.61-1.26 1.34-1.945 1.956-5.206.141-10.42.205-15.627.255-3.128.032-6.256.055-9.384.073 8.236.036 16.48.027 24.732-.041l.236.164c.386.957.775 1.915 1.161 2.868l-.835-2.95.064-.305a92.9 92.9 0 013.445-3.77l.283-.074 2.206.684-2.052-1.012-.15-.255c.141-4.413.137-8.822.004-13.235l.146-.26c.651-.338 1.303-.68 1.954-1.017-.716.237-1.38.456-2.091.689l-.279-.078c-.99-1.108-2.103-2.138-3.196-3.155.467.46.921.94 1.324 1.368.595.634 1.307 1.395 1.898 2.143.146 2.275.15 4.655.15 6.907.004 2.247 0 4.627-.146 6.902z" fill="#CDFF71"/><path fill-rule="evenodd" clip-rule="evenodd" d="M6.612.406c.18.264 18.189.478 40.38.478 22.19 0 40.2-.214 40.38-.478V.4C79.218.164 64.187.004 46.992.004 29.792 0 14.762.16 6.612.406z" fill="url(#paint12_radial_1_5062)"/><path fill-rule="evenodd" clip-rule="evenodd" d="M3.977 21.884c.59.752 1.298 1.508 1.898 2.142.574.611 1.26 1.34 1.945 1.956 5.206.141 10.42.205 15.627.255 7.85.078 15.7.11 23.55.11 7.849 0 15.699-.032 23.548-.11 5.206-.05 10.421-.114 15.627-.255.681-.615 1.367-1.34 1.945-1.956.596-.634 1.307-1.395 1.899-2.142.145-2.276.15-4.655.15-6.908 0-2.247-.005-4.627-.15-6.906-.592-.753-1.299-1.51-1.899-2.143-.574-.611-1.26-1.34-1.945-1.956-5.206-.141-10.42-.205-15.627-.255-7.85-.078-15.7-.11-23.549-.11-7.85 0-15.7.032-23.55.11-5.205.054-10.42.114-15.626.255-.681.615-1.367 1.34-1.945 1.956-.596.633-1.307 1.395-1.898 2.143-.146 2.274-.15 4.654-.15 6.906 0 2.253.004 4.632.15 6.908z" fill="url(#paint13_linear_1_5062)"/><g opacity=".5" fill-rule="evenodd" clip-rule="evenodd"><path opacity=".5" d="M3.977 8.074l43.015 6.907L7.816 3.975c-.682.616-1.367 1.34-1.946 1.956-.595.634-1.302 1.39-1.893 2.143z" fill="url(#paint14_radial_1_5062)"/><path opacity=".5" d="M90.003 8.074L46.987 14.98 86.163 3.975c.682.616 1.367 1.34 1.946 1.956.595.634 1.302 1.39 1.894 2.143z" fill="url(#paint15_radial_1_5062)"/><path opacity=".75" d="M3.977 21.883l43.015-6.907L7.816 25.982c-.682-.616-1.367-1.34-1.946-1.956-.595-.63-1.302-1.39-1.893-2.143z" fill="url(#paint16_radial_1_5062)"/><path d="M90.003 21.883l-43.016-6.907 39.176 11.006c.682-.616 1.367-1.34 1.946-1.956.595-.63 1.302-1.39 1.894-2.143z" fill="url(#paint17_radial_1_5062)"/><path opacity=".3" d="M3.977 21.883l43.015-6.907L3.977 8.074c-.146 2.275-.15 4.655-.15 6.907 0 2.248.004 4.627.15 6.902z" fill="url(#paint18_radial_1_5062)"/><path opacity=".75" d="M7.816 3.975l39.176 11.006L86.168 3.975c-5.206-.141-10.42-.205-15.627-.255-7.85-.077-15.7-.11-23.55-.11-7.849 0-15.699.033-23.548.11-5.206.055-10.421.114-15.627.255z" fill="url(#paint19_radial_1_5062)"/><path opacity=".5" d="M90.003 8.074l-43.016 6.907 43.016 6.907c.145-2.275.15-4.655.15-6.907 0-2.248-.005-4.632-.15-6.907z" fill="url(#paint20_radial_1_5062)"/><path opacity=".8" d="M86.163 25.982L46.989 14.976 7.811 25.982c5.206.141 10.42.205 15.626.255 7.85.078 15.7.11 23.55.11 7.85 0 15.699-.032 23.549-.11 5.206-.05 10.42-.114 15.626-.255z" fill="url(#paint21_radial_1_5062)"/><path opacity=".5" d="M11.865 20.62l35.123-5.64-35.123-5.639v11.28z" fill="url(#paint22_radial_1_5062)"/><path d="M26.914 9.341l20.074 5.64 20.079-5.64H26.914z" fill="url(#paint23_radial_1_5062)"/><path opacity=".5" d="M82.114 9.341l-35.127 5.64 35.127 5.64V9.34z" fill="url(#paint24_radial_1_5062)"/><path opacity=".7" d="M67.067 20.62l-20.08-5.639-20.073 5.64h40.153z" fill="url(#paint25_radial_1_5062)"/></g><path opacity=".65" fill-rule="evenodd" clip-rule="evenodd" d="M8.54 26L29.532 3.665c-2.031.014-4.058.032-6.09.05-2.514.028-5.03.055-7.545.092L3.831 16.645c.009 1.737.035 3.515.146 5.238.591.753 1.298 1.51 1.898 2.143.574.611 1.26 1.34 1.945 1.956.236.009.476.014.72.018z" fill="url(#paint26_radial_1_5062)"/><path opacity=".65" fill-rule="evenodd" clip-rule="evenodd" d="M40.852 3.62L19.629 26.2l3.814.042c.6.004 1.204.014 1.804.018L46.529 3.615c-1.894-.004-3.787 0-5.677.005z" fill="url(#paint27_radial_1_5062)"/><path opacity=".65" fill-rule="evenodd" clip-rule="evenodd" d="M78.867 3.825L57.717 26.33c3.934-.014 7.863-.041 11.796-.078L88.362 6.196l-.248-.265c-.575-.61-1.26-1.34-1.946-1.955a649.913 649.913 0 00-7.301-.15z" fill="url(#paint28_radial_1_5062)"/><path fill-rule="evenodd" clip-rule="evenodd" d="M1.851 4.787l4.028-3.54L5.29 0 .434 4.27l1.417.517z" fill="url(#paint29_radial_1_5062)"/><path fill-rule="evenodd" clip-rule="evenodd" d="M5.879 1.247H88.12L88.71 0H5.29l.588 1.247z" fill="url(#paint30_radial_1_5062)"/><path fill-rule="evenodd" clip-rule="evenodd" d="M88.122 1.247l4.026 3.54 1.419-.516L88.709 0l-.587 1.247z" fill="url(#paint31_radial_1_5062)"/><path fill-rule="evenodd" clip-rule="evenodd" d="M5.878 28.716l-4.027-3.54-1.418.516 4.858 4.27.587-1.246z" fill="url(#paint32_radial_1_5062)"/><path fill-rule="evenodd" clip-rule="evenodd" d="M88.121 28.716H5.88l-.588 1.246H88.71l-.588-1.246z" fill="url(#paint33_radial_1_5062)"/><path fill-rule="evenodd" clip-rule="evenodd" d="M92.148 25.175l-4.026 3.541.587 1.246 4.858-4.27-1.419-.517z" fill="url(#paint34_radial_1_5062)"/><path fill-rule="evenodd" clip-rule="evenodd" d="M92.147 4.787v20.388l1.42.517V4.27l-1.42.516z" fill="url(#paint35_radial_1_5062)"/><path fill-rule="evenodd" clip-rule="evenodd" d="M1.85 25.175V4.787L.434 4.27v21.42l1.418-.516z" fill="url(#paint36_radial_1_5062)"/><path fill-rule="evenodd" clip-rule="evenodd" d="M1.85 4.787v20.388l.852-.31V5.098l-.851-.31z" fill="url(#paint37_radial_1_5062)"/><path fill-rule="evenodd" clip-rule="evenodd" d="M6.23 27.967l-3.528-3.101-.851.31 4.027 3.54.352-.749z" fill="url(#paint38_radial_1_5062)"/><path fill-rule="evenodd" clip-rule="evenodd" d="M87.768 27.967H6.23l-.352.749h82.243l-.353-.749z" fill="url(#paint39_radial_1_5062)"/><path fill-rule="evenodd" clip-rule="evenodd" d="M91.297 24.866l-3.529 3.101.353.75 4.027-3.542-.851-.309z" fill="url(#paint40_radial_1_5062)"/><path fill-rule="evenodd" clip-rule="evenodd" d="M91.297 5.097v19.769l.851.31V4.785l-.85.311z" fill="url(#paint41_radial_1_5062)"/><path fill-rule="evenodd" clip-rule="evenodd" d="M2.702 5.097L6.23 1.995l-.352-.748-4.027 3.54.851.31z" fill="url(#paint42_radial_1_5062)"/><path fill-rule="evenodd" clip-rule="evenodd" d="M6.23 1.995h81.538l.353-.748H5.878l.352.748z" fill="url(#paint43_radial_1_5062)"/><path fill-rule="evenodd" clip-rule="evenodd" d="M87.768 1.995l3.529 3.102.85-.31-4.026-3.54-.353.748z" fill="url(#paint44_radial_1_5062)"/><path fill-rule="evenodd" clip-rule="evenodd" d="M4.012 2.888l1.646-1.685-.318-1.1.613.973 39.61.17-39.618.142-1.933 1.5z" fill="url(#paint45_radial_1_5062)"/><path fill-rule="evenodd" clip-rule="evenodd" d="M89.987 27.075l-1.645 1.684.318 1.1-.614-.972-39.609-.171 39.618-.142 1.932-1.499z" fill="url(#paint46_radial_1_5062)"/><defs><radialGradient id="paint0_radial_1_5062" cx="0" cy="0" r="1" gradientUnits="userSpaceOnUse" gradientTransform="matrix(34.7934 0 0 37.0204 -.242 5.98)"><stop stop-color="#72EF52"/><stop offset="1" stop-color="#20EC00"/></radialGradient><radialGradient id="paint1_radial_1_5062" cx="0" cy="0" r="1" gradientUnits="userSpaceOnUse" gradientTransform="matrix(24.1693 0 0 25.7162 4.094 1.19)"><stop stop-color="#99F77D"/><stop offset="1" stop-color="#1CC100"/></radialGradient><radialGradient id="paint2_radial_1_5062" cx="0" cy="0" r="1" gradientUnits="userSpaceOnUse" gradientTransform="matrix(63.362 0 0 67.4175 25.438 -35.053)"><stop stop-color="#D5EFC1"/><stop offset="1" stop-color="#4FEF2C"/></radialGradient><radialGradient id="paint3_radial_1_5062" cx="0" cy="0" r="1" gradientUnits="userSpaceOnUse" gradientTransform="matrix(59.3045 0 0 63.1003 91.02 -20.81)"><stop stop-color="#83EF65"/><stop offset="1" stop-color="#1CC100"/></radialGradient><radialGradient id="paint4_radial_1_5062" cx="0" cy="0" r="1" gradientUnits="userSpaceOnUse" gradientTransform="matrix(34.8142 0 0 37.0426 92.68 -4.102)"><stop stop-color="#72EF52"/><stop offset="1" stop-color="#20EC00"/></radialGradient><radialGradient id="paint5_radial_1_5062" cx="0" cy="0" r="1" gradientUnits="userSpaceOnUse" gradientTransform="matrix(14.2898 0 0 15.2044 82.049 15.46)"><stop stop-color="#38EF12"/><stop offset="1" stop-color="#189600"/></radialGradient><radialGradient id="paint6_radial_1_5062" cx="0" cy="0" r="1" gradientUnits="userSpaceOnUse" gradientTransform="matrix(71.4363 0 0 76.0087 24.233 -14.844)"><stop stop-color="#3BF715"/><stop offset="1" stop-color="#178C00"/></radialGradient><radialGradient id="paint7_radial_1_5062" cx="0" cy="0" r="1" gradientUnits="userSpaceOnUse" gradientTransform="matrix(22.2336 0 0 23.6568 -3.14 18.828)"><stop stop-color="#7DEF5F"/><stop offset="1" stop-color="#1ED600"/></radialGradient><radialGradient id="paint8_radial_1_5062" cx="0" cy="0" r="1" gradientUnits="userSpaceOnUse" gradientTransform="matrix(65.666 0 0 69.869 46.99 27.971)"><stop stop-color="#83EF65"/><stop offset="1" stop-color="#00000A"/></radialGradient><radialGradient id="paint9_radial_1_5062" cx="0" cy="0" r="1" gradientUnits="userSpaceOnUse" gradientTransform="matrix(12.179 0 0 12.9585 9.142 10.49)"><stop stop-color="#5BF738"/><stop offset="1" stop-color="#FFF8EF"/></radialGradient><radialGradient id="paint10_radial_1_5062" cx="0" cy="0" r="1" gradientUnits="userSpaceOnUse" gradientTransform="matrix(17.8803 0 0 19.0248 91.996 9.128)"><stop stop-color="#4BC72C"/><stop offset="1" stop-color="#FFF8EF"/></radialGradient><radialGradient id="paint11_radial_1_5062" cx="0" cy="0" r="1" gradientUnits="userSpaceOnUse" gradientTransform="matrix(13.2373 0 0 14.0846 90.79 23.398)"><stop stop-color="#E5DB3D"/><stop offset="1" stop-color="#FFF8EF"/></radialGradient><radialGradient id="paint12_radial_1_5062" cx="0" cy="0" r="1" gradientUnits="userSpaceOnUse" gradientTransform="matrix(72.6821 0 0 77.3342 46.99 .443)"><stop stop-color="#48F723"/><stop offset="1" stop-color="#00000A"/></radialGradient><radialGradient id="paint14_radial_1_5062" cx="0" cy="0" r="1" gradientUnits="userSpaceOnUse" gradientTransform="matrix(88.4524 0 0 94.1139 48.54 15.251)"><stop stop-color="#8EF771"/><stop offset="1" stop-color="#00000A"/></radialGradient><radialGradient id="paint15_radial_1_5062" cx="0" cy="0" r="1" gradientUnits="userSpaceOnUse" gradientTransform="matrix(104.912 0 0 111.627 48.302 14.77)"><stop stop-color="#8EF771"/><stop offset="1" stop-color="#00000A"/></radialGradient><radialGradient id="paint16_radial_1_5062" cx="0" cy="0" r="1" gradientUnits="userSpaceOnUse" gradientTransform="matrix(55.2832 0 0 58.8217 6.09 24.811)"><stop stop-color="#8EF771"/><stop offset="1" stop-color="#00000A"/></radialGradient><radialGradient id="paint17_radial_1_5062" cx="0" cy="0" r="1" gradientUnits="userSpaceOnUse" gradientTransform="matrix(54.1995 0 0 57.6686 86.582 29.14)"><stop stop-color="#8EF771"/><stop offset="1" stop-color="#00000A"/></radialGradient><radialGradient id="paint18_radial_1_5062" cx="0" cy="0" r="1" gradientUnits="userSpaceOnUse" gradientTransform="matrix(27.5662 0 0 29.3306 3.857 8.085)"><stop stop-color="#71F750"/><stop offset="1" stop-color="#00000A"/></radialGradient><radialGradient id="paint19_radial_1_5062" cx="0" cy="0" r="1" gradientUnits="userSpaceOnUse" gradientTransform="matrix(75.6116 0 0 80.4511 42.926 -14.233)"><stop stop-color="#9AF77E"/><stop offset="1" stop-color="#00000A"/></radialGradient><radialGradient id="paint20_radial_1_5062" cx="0" cy="0" r="1" gradientUnits="userSpaceOnUse" gradientTransform="matrix(38.6445 0 0 41.118 90.575 14.82)"><stop stop-color="#71F750"/><stop offset="1" stop-color="#00000A"/></radialGradient><radialGradient id="paint21_radial_1_5062" cx="0" cy="0" r="1" gradientUnits="userSpaceOnUse" gradientTransform="matrix(56.0297 0 0 59.616 40.66 56.584)"><stop stop-color="#71F750"/><stop offset="1" stop-color="#00000A"/></radialGradient><radialGradient id="paint22_radial_1_5062" cx="0" cy="0" r="1" gradientUnits="userSpaceOnUse" gradientTransform="matrix(67.4051 0 0 71.7194 12.095 8.565)"><stop stop-color="#7BEF5D"/><stop offset="1" stop-color="#00000A"/></radialGradient><radialGradient id="paint23_radial_1_5062" cx="0" cy="0" r="1" gradientUnits="userSpaceOnUse" gradientTransform="matrix(27.3844 0 0 29.1371 27.247 9.113)"><stop stop-color="#7BEF5D"/><stop offset="1" stop-color="#00000A"/></radialGradient><radialGradient id="paint24_radial_1_5062" cx="0" cy="0" r="1" gradientUnits="userSpaceOnUse" gradientTransform="matrix(28.6654 0 0 30.5001 81.583 9.047)"><stop stop-color="#A9EF90"/><stop offset="1" stop-color="#00000A"/></radialGradient><radialGradient id="paint25_radial_1_5062" cx="0" cy="0" r="1" gradientUnits="userSpaceOnUse" gradientTransform="matrix(40.2375 0 0 42.8129 68.24 21.434)"><stop stop-color="#7BEF5D"/><stop offset="1" stop-color="#00000A"/></radialGradient><radialGradient id="paint26_radial_1_5062" cx="0" cy="0" r="1" gradientUnits="userSpaceOnUse" gradientTransform="matrix(36.6332 0 0 38.9779 10.88 -4.691)"><stop stop-color="#90EF74"/><stop offset="1" stop-color="#00000A"/></radialGradient><radialGradient id="paint27_radial_1_5062" cx="0" cy="0" r="1" gradientUnits="userSpaceOnUse" gradientTransform="matrix(42.9749 0 0 45.7256 36.135 -9.797)"><stop stop-color="#90EF74"/><stop offset="1" stop-color="#00000A"/></radialGradient><radialGradient id="paint28_radial_1_5062" cx="0" cy="0" r="1" gradientUnits="userSpaceOnUse" gradientTransform="matrix(55.2865 0 0 58.8251 64.78 -20.996)"><stop stop-color="#90EF74"/><stop offset="1" stop-color="#00000A"/></radialGradient><radialGradient id="paint29_radial_1_5062" cx="0" cy="0" r="1" gradientUnits="userSpaceOnUse" gradientTransform="matrix(19.3279 0 0 16.9914 6.629 1.16)"><stop stop-color="#FFF8C7"/><stop offset="1" stop-color="#FFC521"/></radialGradient><radialGradient id="paint30_radial_1_5062" cx="0" cy="0" r="1" gradientUnits="userSpaceOnUse" gradientTransform="matrix(106.042 0 0 93.223 6.02 -15.876)"><stop stop-color="#FFF8C7"/><stop offset="1" stop-color="#FFC521"/></radialGradient><radialGradient id="paint31_radial_1_5062" cx="0" cy="0" r="1" gradientUnits="userSpaceOnUse" gradientTransform="matrix(21.9676 0 0 19.312 79.539 10.578)"><stop stop-color="#F90"/><stop offset="1" stop-color="#C44800"/></radialGradient><radialGradient id="paint32_radial_1_5062" cx="0" cy="0" r="1" gradientUnits="userSpaceOnUse" gradientTransform="matrix(16.6151 0 0 14.6066 10.25 17.37)"><stop stop-color="#F90"/><stop offset="1" stop-color="#C44800"/></radialGradient><radialGradient id="paint33_radial_1_5062" cx="0" cy="0" r="1" gradientUnits="userSpaceOnUse" gradientTransform="matrix(72.0285 0 0 63.3213 41.435 21.09)"><stop stop-color="#F90"/><stop offset="1" stop-color="#C44800"/></radialGradient><radialGradient id="paint34_radial_1_5062" cx="0" cy="0" r="1" gradientUnits="userSpaceOnUse" gradientTransform="matrix(22.628 0 0 19.8926 75.918 14.967)"><stop stop-color="#F90"/><stop offset="1" stop-color="#C44800"/></radialGradient><radialGradient id="paint35_radial_1_5062" cx="0" cy="0" r="1" gradientUnits="userSpaceOnUse" gradientTransform="matrix(32.6275 0 0 28.6832 113.768 16.735)"><stop stop-color="#F90"/><stop offset="1" stop-color="#C44800"/></radialGradient><radialGradient id="paint36_radial_1_5062" cx="0" cy="0" r="1" gradientUnits="userSpaceOnUse" gradientTransform="matrix(27.558 0 0 24.2266 -12.084 6.927)"><stop stop-color="#FFEB68"/><stop offset="1" stop-color="#E67D2D"/></radialGradient><radialGradient id="paint37_radial_1_5062" cx="0" cy="0" r="1" gradientUnits="userSpaceOnUse" gradientTransform="matrix(27.6237 0 0 24.2843 -9.398 12.708)"><stop stop-color="#F90"/><stop offset="1" stop-color="#C44800"/></radialGradient><radialGradient id="paint38_radial_1_5062" cx="0" cy="0" r="1" gradientUnits="userSpaceOnUse" gradientTransform="matrix(17.7822 0 0 15.6326 9.509 15.878)"><stop stop-color="#FFEB68"/><stop offset="1" stop-color="#E67D2D"/></radialGradient><radialGradient id="paint39_radial_1_5062" cx="0" cy="0" r="1" gradientUnits="userSpaceOnUse" gradientTransform="matrix(54.1127 0 0 47.5711 77.395 33.083)"><stop stop-color="#FFF8C7"/><stop offset="1" stop-color="#FFC521"/></radialGradient><radialGradient id="paint40_radial_1_5062" cx="0" cy="0" r="1" gradientUnits="userSpaceOnUse" gradientTransform="matrix(28.5201 0 0 25.0724 85.968 23.088)"><stop stop-color="#FFF8C7"/><stop offset="1" stop-color="#FFC521"/></radialGradient><radialGradient id="paint41_radial_1_5062" cx="0" cy="0" r="1" gradientUnits="userSpaceOnUse" gradientTransform="matrix(28.8478 0 0 25.3604 87.363 13.682)"><stop stop-color="#FFEB68"/><stop offset="1" stop-color="#E67D2D"/></radialGradient><radialGradient id="paint42_radial_1_5062" cx="0" cy="0" r="1" gradientUnits="userSpaceOnUse" gradientTransform="matrix(15.6903 0 0 13.7936 12.169 10.382)"><stop stop-color="#F90"/><stop offset="1" stop-color="#C44800"/></radialGradient><radialGradient id="paint43_radial_1_5062" cx="0" cy="0" r="1" gradientUnits="userSpaceOnUse" gradientTransform="matrix(70.7307 0 0 62.1802 103.336 10.715)"><stop stop-color="#F90"/><stop offset="1" stop-color="#C44800"/></radialGradient><radialGradient id="paint44_radial_1_5062" cx="0" cy="0" r="1" gradientUnits="userSpaceOnUse" gradientTransform="matrix(17.2387 0 0 15.1548 88.998 3.822)"><stop stop-color="#F90"/><stop offset="1" stop-color="#C44800"/></radialGradient><radialGradient id="paint45_radial_1_5062" cx="0" cy="0" r="1" gradientUnits="userSpaceOnUse" gradientTransform="matrix(54.7459 0 0 48.1278 10.235 1.3)"><stop stop-color="#FFF9CF"/><stop offset="1"/></radialGradient><radialGradient id="paint46_radial_1_5062" cx="0" cy="0" r="1" gradientUnits="userSpaceOnUse" gradientTransform="matrix(53.8152 0 0 47.3096 84.659 29.312)"><stop stop-color="#FFF9CF"/><stop offset="1"/></radialGradient><linearGradient id="paint13_linear_1_5062" x1="5.638" y1="5.552" x2="88.324" y2="22.204" gradientUnits="userSpaceOnUse"><stop stop-color="#66F72A"/><stop offset="1" stop-color="#1F8200"/></linearGradient></defs></svg>