<svg width="340" height="110" fill="none" xmlns="http://www.w3.org/2000/svg"><path fill-rule="evenodd" clip-rule="evenodd" d="M339.051 24.516c.516 6.091.876 17.326.876 30.175s-.344 24.083-.876 30.175c-1.815 2.73-5.6 7.273-10.215 12.183-4.614 4.91-8.9 8.938-11.45 10.868-29.768.866-84.641 1.448-147.415 1.448-62.773 0-117.647-.582-147.415-1.448-2.565-1.93-6.835-5.958-11.45-10.868-4.614-4.91-8.4-9.47-10.214-12.183C.375 78.774.016 67.54.016 54.69c0-12.85.344-24.084.876-30.175 1.814-2.713 5.6-7.273 10.214-12.183 4.615-4.91 8.9-8.938 11.45-10.869C52.325.6 107.198.016 169.971.016c62.774 0 117.647.583 147.415 1.448 2.566 1.93 6.836 5.959 11.45 10.869 4.615 4.91 8.4 9.47 10.215 12.183z" fill="#125B00"/><path fill-rule="evenodd" clip-rule="evenodd" d="M12.389 54.69c0-8.205.016-16.893.547-25.214l-12.06-4.96C.36 30.607 0 41.842 0 54.69s.344 24.083.876 30.175l12.06-4.96c-.531-8.322-.547-17.01-.547-25.215z" fill="url(#paint0_radial_1_2477)"/><path fill-rule="evenodd" clip-rule="evenodd" d="M12.936 29.476c2.159-2.746 4.74-5.51 6.93-7.822 2.096-2.23 4.599-4.894 7.102-7.14L22.572 1.447c-2.565 1.93-6.836 5.958-11.45 10.868-4.615 4.91-8.4 9.47-10.215 12.184l12.03 4.976z" fill="url(#paint1_radial_1_2477)"/><path fill-rule="evenodd" clip-rule="evenodd" d="M26.952 14.513c19.006-.516 38.043-.749 57.048-.932 28.657-.283 57.314-.4 85.971-.4 28.657 0 57.314.117 85.972.4 19.005.2 38.042.416 57.048.932l4.395-13.065C287.619.583 232.745 0 169.971 0 107.198 0 52.324.583 22.556 1.448l4.396 13.065z" fill="url(#paint2_radial_1_2477)"/><path fill-rule="evenodd" clip-rule="evenodd" d="M312.975 14.512c2.487 2.247 4.99 4.894 7.102 7.14 2.174 2.314 4.771 5.094 6.929 7.823l12.061-4.96c-1.815-2.713-5.6-7.273-10.215-12.183-4.614-4.91-8.9-8.937-11.45-10.868l-4.427 13.048z" fill="url(#paint3_radial_1_2477)"/><path fill-rule="evenodd" clip-rule="evenodd" d="M326.991 29.476c.532 8.305.547 16.993.547 25.215 0 8.205-.015 16.893-.547 25.215l12.06 4.96c.516-6.092.876-17.326.876-30.175 0-12.85-.344-24.084-.876-30.175l-12.06 4.96z" fill="url(#paint4_radial_1_2477)"/><path fill-rule="evenodd" clip-rule="evenodd" d="M326.991 79.89c-2.159 2.746-4.74 5.508-6.93 7.822-2.096 2.23-4.599 4.893-7.102 7.14l4.396 13.065c2.565-1.93 6.836-5.958 11.45-10.868 4.615-4.91 8.4-9.47 10.215-12.183l-12.029-4.977z" fill="url(#paint5_radial_1_2477)"/><path fill-rule="evenodd" clip-rule="evenodd" d="M312.975 94.853c-19.006.516-38.042.749-57.048.932-28.657.282-57.314.399-85.971.399-28.657 0-57.314-.117-85.971-.4-19.006-.183-38.043-.416-57.049-.931l-4.395 13.065c29.768.865 84.641 1.448 147.415 1.448 62.773 0 117.647-.583 147.415-1.448l-4.396-13.066z" fill="url(#paint6_radial_1_2477)"/><path fill-rule="evenodd" clip-rule="evenodd" d="M26.952 94.852c-2.487-2.247-4.99-4.893-7.102-7.14-2.174-2.314-4.77-5.093-6.93-7.823L.86 84.85c1.815 2.73 5.6 7.273 10.215 12.183 4.614 4.91 8.9 8.938 11.45 10.869l4.427-13.049z" fill="url(#paint7_radial_1_2477)"/><path opacity=".5" fill-rule="evenodd" clip-rule="evenodd" d="M169.956 104.905c-78.98 0-143.02-4.494-143.02-10.036l-4.395 13.065c29.768.866 84.641 1.448 147.415 1.448 62.773 0 117.647-.582 147.415-1.448l-4.396-13.065c0 5.542-64.025 10.036-143.019 10.036z" fill="url(#paint8_radial_1_2477)"/><path fill-rule="evenodd" clip-rule="evenodd" d="M22.556 1.464C26.42 16.992 11.373 28.227.877 24.532l12.06 4.96c2.159-2.746 4.74-5.51 6.93-7.823 2.096-2.23 4.599-4.893 7.102-7.14L22.556 1.464z" fill="url(#paint9_radial_1_2477)"/><path fill-rule="evenodd" clip-rule="evenodd" d="M26.952 14.513c19.006-.516 38.043-.749 57.048-.932 28.657-.283 57.314-.4 85.971-.4 28.657 0 57.314.117 85.971.4l5.209.05c-76.929-1.548-155.345-2.047-233.088-.616l-.876-.582c-1.486-3.445-2.8-6.491-4.27-9.936.875 3.645.97 6.274 1.845 9.92l-.235 1.148c-1.673 3.944-6.71 9.853-12.232 13.415l-1.048.25c-3.27-1.066-5.772-1.116-9.041-2.181 3.065 1.498 5.944 3.012 9.01 4.51l.547.932c-.235 16.278-.25 32.356.016 48.1l-.532.966c-1.908 1.098-3.63 2.18-5.538 3.279 2.112-.566 4.13-1.032 6.242-1.598l1.032.3c4.145 4.41 8.62 9.02 12.67 13.431l.282 1.115c-.422 1.764-.672 3.162-1.11 4.993.797-1.664 1.626-3.062 2.424-4.727l.892-.565c33.1.749 75.882.782 108.934.316-14.563-.067-38.543-.2-53.106-.35-19.006-.183-38.043-.416-57.048-.932-2.487-2.247-4.99-4.893-7.102-7.14-2.174-2.313-4.77-5.093-6.93-7.823-.531-8.305-.547-16.993-.547-25.215 0-8.205.015-16.893.547-25.215 2.16-2.746 4.74-5.509 6.93-7.822 2.143-2.197 4.646-4.844 7.133-7.09z" fill="#FFE5A6"/><path fill-rule="evenodd" clip-rule="evenodd" d="M317.371 1.464c-3.864 15.528 11.184 26.763 21.68 23.068l-12.06 4.96c-2.159-2.746-4.74-5.51-6.93-7.823-2.096-2.23-4.599-4.893-7.102-7.14l4.412-13.065z" fill="url(#paint10_radial_1_2477)"/><path fill-rule="evenodd" clip-rule="evenodd" d="M317.371 107.917c-3.864-15.528 11.184-26.763 21.68-23.068l-12.06-4.96c-2.159 2.747-4.74 5.51-6.93 7.823-2.096 2.23-4.599 4.893-7.102 7.14l4.412 13.065z" fill="url(#paint11_radial_1_2477)"/><path fill-rule="evenodd" clip-rule="evenodd" d="M326.991 79.889c-2.159 2.746-4.74 5.509-6.93 7.822-2.096 2.23-4.599 4.894-7.102 7.14-19.005.517-38.042.75-57.048.933-11.419.116-22.838.2-34.257.266 30.065.133 60.161.1 90.289-.15l.86.6c1.408 3.495 2.831 6.99 4.239 10.468-1.017-3.595-2.033-7.173-3.05-10.768l.234-1.115c4.083-4.71 8.26-9.304 12.577-13.765l1.032-.266c2.691.832 5.366 1.664 8.056 2.496a3286.805 3286.805 0 01-7.492-3.694l-.548-.932c.516-16.112.501-32.206.016-48.317l.532-.949c2.377-1.232 4.755-2.48 7.132-3.711a2048.76 2048.76 0 01-7.633 2.513l-1.017-.283c-3.613-4.045-7.68-7.806-11.669-11.518 1.705 1.681 3.363 3.429 4.833 4.994 2.175 2.313 4.771 5.093 6.93 7.822.532 8.305.548 16.993.548 25.215.015 8.206 0 16.894-.532 25.199z" fill="#CDFF71"/><path fill-rule="evenodd" clip-rule="evenodd" d="M22.556 1.481c.657.966 66.403 1.748 147.415 1.748 81.013 0 146.758-.782 147.415-1.748v-.016C287.619.599 232.745.017 169.971.017 107.182 0 52.309.582 22.556 1.48z" fill="url(#paint12_radial_1_2477)"/><path fill-rule="evenodd" clip-rule="evenodd" d="M12.936 79.89c2.16 2.746 4.74 5.51 6.93 7.823 2.096 2.23 4.599 4.893 7.102 7.14 19.005.516 38.042.749 57.048.932 28.657.283 57.314.4 85.971.4 28.657 0 57.314-.117 85.971-.4 19.006-.183 38.043-.416 57.048-.932 2.488-2.247 4.99-4.893 7.102-7.14 2.174-2.314 4.771-5.093 6.93-7.823.532-8.305.547-16.993.547-25.215 0-8.205-.015-16.893-.547-25.215-2.159-2.746-4.74-5.51-6.93-7.823-2.096-2.23-4.599-4.893-7.102-7.14-19.005-.516-38.042-.749-57.048-.932-28.657-.283-57.314-.4-85.971-.4-28.657 0-57.314.117-85.971.4-19.006.2-38.043.416-57.048.932-2.487 2.247-4.99 4.893-7.102 7.14-2.174 2.314-4.77 5.093-6.93 7.823-.531 8.305-.547 16.993-.547 25.215 0 8.222.016 16.91.547 25.215z" fill="url(#paint13_linear_1_2477)"/><g opacity=".5" fill-rule="evenodd" clip-rule="evenodd"><path opacity=".5" d="M12.936 29.476L169.971 54.69 26.952 14.513c-2.487 2.247-4.99 4.893-7.102 7.14-2.174 2.313-4.755 5.076-6.914 7.823z" fill="url(#paint14_radial_1_2477)"/><path opacity=".5" d="M326.991 29.476L169.956 54.69l143.019-40.178c2.487 2.247 4.99 4.893 7.102 7.14 2.174 2.313 4.755 5.076 6.914 7.823z" fill="url(#paint15_radial_1_2477)"/><path opacity=".75" d="M12.936 79.89l157.035-25.216L26.952 94.852c-2.487-2.247-4.99-4.893-7.102-7.14-2.174-2.297-4.755-5.077-6.914-7.823z" fill="url(#paint16_radial_1_2477)"/><path d="M326.991 79.89L169.956 54.673l143.019 40.178c2.487-2.247 4.99-4.893 7.102-7.14 2.174-2.297 4.755-5.077 6.914-7.823z" fill="url(#paint17_radial_1_2477)"/><path opacity=".3" d="M12.936 79.89l157.035-25.215L12.936 29.476c-.531 8.305-.547 16.993-.547 25.215 0 8.206.016 16.894.547 25.199z" fill="url(#paint18_radial_1_2477)"/><path opacity=".75" d="M26.952 14.513L169.971 54.69l143.02-40.178c-19.006-.516-38.043-.75-57.048-.932-28.658-.283-57.315-.4-85.972-.4-28.657 0-57.314.117-85.97.4-19.006.2-38.043.416-57.049.932z" fill="url(#paint19_radial_1_2477)"/><path opacity=".5" d="M326.991 29.476L169.956 54.691l157.035 25.215c.532-8.305.547-16.993.547-25.215 0-8.205-.015-16.91-.547-25.215z" fill="url(#paint20_radial_1_2477)"/><path opacity=".8" d="M312.975 94.852L169.956 54.674 26.936 94.852c19.006.516 38.043.749 57.049.932 28.657.283 57.314.4 85.971.4 28.657 0 57.314-.117 85.971-.4 19.006-.183 38.042-.416 57.048-.932z" fill="url(#paint21_radial_1_2477)"/><path opacity=".5" d="M41.734 75.279L169.956 54.69 41.734 34.102V75.28z" fill="url(#paint22_radial_1_2477)"/><path d="M96.67 34.102l73.286 20.588 73.3-20.588H96.671z" fill="url(#paint23_radial_1_2477)"/><path opacity=".5" d="M298.193 34.102L169.956 54.69l128.237 20.59V34.102z" fill="url(#paint24_radial_1_2477)"/><path opacity=".7" d="M243.256 75.28l-73.3-20.59-73.285 20.59h146.585z" fill="url(#paint25_radial_1_2477)"/></g><path opacity=".65" fill-rule="evenodd" clip-rule="evenodd" d="M29.596 94.919l76.632-81.538c-7.414.05-14.813.117-22.228.183-9.182.1-18.364.2-27.546.333l-44.05 46.869c.032 6.341.126 12.832.532 19.124 2.16 2.746 4.74 5.509 6.93 7.822 2.096 2.23 4.599 4.893 7.102 7.14.86.034 1.736.05 2.628.067z" fill="url(#paint26_radial_1_2477)"/><path opacity=".65" fill-rule="evenodd" clip-rule="evenodd" d="M147.556 13.215L70.078 95.65 84 95.8c2.19.017 4.396.05 6.586.067l77.696-82.67c-6.914-.017-13.828 0-20.726.017z" fill="url(#paint27_radial_1_2477)"/><path opacity=".65" fill-rule="evenodd" clip-rule="evenodd" d="M286.336 13.964l-77.211 82.153c14.359-.05 28.703-.15 43.063-.283L321 22.618l-.908-.965c-2.096-2.23-4.599-4.893-7.101-7.14-8.885-.233-17.77-.416-26.655-.55z" fill="url(#paint28_radial_1_2477)"/><path fill-rule="evenodd" clip-rule="evenodd" d="M5.175 17.476L19.879 4.553 17.734 0 0 15.59l5.175 1.886z" fill="url(#paint29_radial_1_2477)"/><path fill-rule="evenodd" clip-rule="evenodd" d="M19.878 4.553h300.243L322.266 0H17.734l2.144 4.553z" fill="url(#paint30_radial_1_2477)"/><path fill-rule="evenodd" clip-rule="evenodd" d="M320.121 4.553l14.7 12.922L340 15.59 322.266 0l-2.145 4.553z" fill="url(#paint31_radial_1_2477)"/><path fill-rule="evenodd" clip-rule="evenodd" d="M19.879 104.833L5.175 91.907 0 93.792l17.734 15.59 2.145-4.549z" fill="url(#paint32_radial_1_2477)"/><path fill-rule="evenodd" clip-rule="evenodd" d="M320.121 104.833H19.878l-2.144 4.549h304.532l-2.145-4.549z" fill="url(#paint33_radial_1_2477)"/><path fill-rule="evenodd" clip-rule="evenodd" d="M334.821 91.907l-14.7 12.926 2.145 4.549L340 93.792l-5.179-1.885z" fill="url(#paint34_radial_1_2477)"/><path fill-rule="evenodd" clip-rule="evenodd" d="M334.821 17.475v74.432L340 93.792V15.59l-5.179 1.885z" fill="url(#paint35_radial_1_2477)"/><path fill-rule="evenodd" clip-rule="evenodd" d="M5.175 91.907V17.476L0 15.59v78.201l5.175-1.885z" fill="url(#paint36_radial_1_2477)"/><path fill-rule="evenodd" clip-rule="evenodd" d="M5.175 17.476v74.431l3.11-1.13V18.61l-3.11-1.133z" fill="url(#paint37_radial_1_2477)"/><path fill-rule="evenodd" clip-rule="evenodd" d="M21.163 102.099L8.285 90.777l-3.11 1.13 14.704 12.926 1.284-2.734z" fill="url(#paint38_radial_1_2477)"/><path fill-rule="evenodd" clip-rule="evenodd" d="M318.832 102.099H21.163l-1.285 2.734h300.243l-1.289-2.734z" fill="url(#paint39_radial_1_2477)"/><path fill-rule="evenodd" clip-rule="evenodd" d="M331.715 90.778l-12.883 11.321 1.289 2.734 14.7-12.926-3.106-1.13z" fill="url(#paint40_radial_1_2477)"/><path fill-rule="evenodd" clip-rule="evenodd" d="M331.715 18.609v72.169l3.106 1.13V17.475l-3.106 1.133z" fill="url(#paint41_radial_1_2477)"/><path fill-rule="evenodd" clip-rule="evenodd" d="M8.285 18.608L21.163 7.283l-1.284-2.73L5.175 17.474l3.11 1.133z" fill="url(#paint42_radial_1_2477)"/><path fill-rule="evenodd" clip-rule="evenodd" d="M21.163 7.283h297.669l1.289-2.73H19.878l1.285 2.73z" fill="url(#paint43_radial_1_2477)"/><path fill-rule="evenodd" clip-rule="evenodd" d="M318.832 7.283l12.883 11.325 3.106-1.133-14.7-12.923-1.289 2.73z" fill="url(#paint44_radial_1_2477)"/><path fill-rule="evenodd" clip-rule="evenodd" d="M13.065 10.543l6.007-6.15-1.16-4.015 2.237 3.552 144.603.623-144.63.514-7.057 5.476z" fill="url(#paint45_radial_1_2477)"/><path fill-rule="evenodd" clip-rule="evenodd" d="M326.931 98.843l-6.003 6.146 1.161 4.015-2.242-3.548-144.599-.623 144.63-.518 7.053-5.472z" fill="url(#paint46_radial_1_2477)"/><defs><radialGradient id="paint0_radial_1_2477" cx="0" cy="0" r="1" gradientUnits="userSpaceOnUse" gradientTransform="matrix(127.02 0 0 135.15 -2.464 21.834)"><stop stop-color="#72EF52"/><stop offset="1" stop-color="#20EC00"/></radialGradient><radialGradient id="paint1_radial_1_2477" cx="0" cy="0" r="1" gradientUnits="userSpaceOnUse" gradientTransform="matrix(88.2344 0 0 93.882 13.363 4.346)"><stop stop-color="#99F77D"/><stop offset="1" stop-color="#1CC100"/></radialGradient><radialGradient id="paint2_radial_1_2477" cx="0" cy="0" r="1" gradientUnits="userSpaceOnUse" gradientTransform="matrix(231.315 0 0 246.12 91.286 -127.966)"><stop stop-color="#D5EFC1"/><stop offset="1" stop-color="#4FEF2C"/></radialGradient><radialGradient id="paint3_radial_1_2477" cx="0" cy="0" r="1" gradientUnits="userSpaceOnUse" gradientTransform="matrix(216.502 0 0 230.36 330.702 -75.972)"><stop stop-color="#83EF65"/><stop offset="1" stop-color="#1CC100"/></radialGradient><radialGradient id="paint4_radial_1_2477" cx="0" cy="0" r="1" gradientUnits="userSpaceOnUse" gradientTransform="matrix(127.096 0 0 135.231 336.761 -14.976)"><stop stop-color="#72EF52"/><stop offset="1" stop-color="#20EC00"/></radialGradient><radialGradient id="paint5_radial_1_2477" cx="0" cy="0" r="1" gradientUnits="userSpaceOnUse" gradientTransform="matrix(52.1675 0 0 55.5066 297.953 56.44)"><stop stop-color="#38EF12"/><stop offset="1" stop-color="#189600"/></radialGradient><radialGradient id="paint6_radial_1_2477" cx="0" cy="0" r="1" gradientUnits="userSpaceOnUse" gradientTransform="matrix(260.792 0 0 277.484 86.884 -54.19)"><stop stop-color="#3BF715"/><stop offset="1" stop-color="#178C00"/></radialGradient><radialGradient id="paint7_radial_1_2477" cx="0" cy="0" r="1" gradientUnits="userSpaceOnUse" gradientTransform="matrix(81.1681 0 0 86.3634 -13.046 68.734)"><stop stop-color="#7DEF5F"/><stop offset="1" stop-color="#1ED600"/></radialGradient><radialGradient id="paint8_radial_1_2477" cx="0" cy="0" r="1" gradientUnits="userSpaceOnUse" gradientTransform="matrix(239.726 0 0 255.07 169.964 102.114)"><stop stop-color="#83EF65"/><stop offset="1" stop-color="#00000A"/></radialGradient><radialGradient id="paint9_radial_1_2477" cx="0" cy="0" r="1" gradientUnits="userSpaceOnUse" gradientTransform="matrix(44.4616 0 0 47.3074 31.795 38.299)"><stop stop-color="#5BF738"/><stop offset="1" stop-color="#FFF8EF"/></radialGradient><radialGradient id="paint10_radial_1_2477" cx="0" cy="0" r="1" gradientUnits="userSpaceOnUse" gradientTransform="matrix(65.2755 0 0 69.4535 334.266 33.323)"><stop stop-color="#4BC72C"/><stop offset="1" stop-color="#FFF8EF"/></radialGradient><radialGradient id="paint11_radial_1_2477" cx="0" cy="0" r="1" gradientUnits="userSpaceOnUse" gradientTransform="matrix(48.3254 0 0 51.4186 329.865 85.419)"><stop stop-color="#E5DB3D"/><stop offset="1" stop-color="#FFF8EF"/></radialGradient><radialGradient id="paint12_radial_1_2477" cx="0" cy="0" r="1" gradientUnits="userSpaceOnUse" gradientTransform="matrix(265.34 0 0 282.323 169.964 1.617)"><stop stop-color="#48F723"/><stop offset="1" stop-color="#00000A"/></radialGradient><radialGradient id="paint14_radial_1_2477" cx="0" cy="0" r="1" gradientUnits="userSpaceOnUse" gradientTransform="matrix(322.912 0 0 343.58 175.627 55.677)"><stop stop-color="#8EF771"/><stop offset="1" stop-color="#00000A"/></radialGradient><radialGradient id="paint15_radial_1_2477" cx="0" cy="0" r="1" gradientUnits="userSpaceOnUse" gradientTransform="matrix(383.001 0 0 407.515 174.754 53.92)"><stop stop-color="#8EF771"/><stop offset="1" stop-color="#00000A"/></radialGradient><radialGradient id="paint16_radial_1_2477" cx="0" cy="0" r="1" gradientUnits="userSpaceOnUse" gradientTransform="matrix(201.822 0 0 214.74 20.655 90.579)"><stop stop-color="#8EF771"/><stop offset="1" stop-color="#00000A"/></radialGradient><radialGradient id="paint17_radial_1_2477" cx="0" cy="0" r="1" gradientUnits="userSpaceOnUse" gradientTransform="matrix(197.866 0 0 210.53 314.503 106.385)"><stop stop-color="#8EF771"/><stop offset="1" stop-color="#00000A"/></radialGradient><radialGradient id="paint18_radial_1_2477" cx="0" cy="0" r="1" gradientUnits="userSpaceOnUse" gradientTransform="matrix(100.636 0 0 107.077 12.498 29.515)"><stop stop-color="#71F750"/><stop offset="1" stop-color="#00000A"/></radialGradient><radialGradient id="paint19_radial_1_2477" cx="0" cy="0" r="1" gradientUnits="userSpaceOnUse" gradientTransform="matrix(276.034 0 0 293.702 155.127 -51.959)"><stop stop-color="#9AF77E"/><stop offset="1" stop-color="#00000A"/></radialGradient><radialGradient id="paint20_radial_1_2477" cx="0" cy="0" r="1" gradientUnits="userSpaceOnUse" gradientTransform="matrix(141.079 0 0 150.109 329.08 54.102)"><stop stop-color="#71F750"/><stop offset="1" stop-color="#00000A"/></radialGradient><radialGradient id="paint21_radial_1_2477" cx="0" cy="0" r="1" gradientUnits="userSpaceOnUse" gradientTransform="matrix(204.547 0 0 217.639 146.855 206.572)"><stop stop-color="#71F750"/><stop offset="1" stop-color="#00000A"/></radialGradient><radialGradient id="paint22_radial_1_2477" cx="0" cy="0" r="1" gradientUnits="userSpaceOnUse" gradientTransform="matrix(246.075 0 0 261.825 42.574 31.27)"><stop stop-color="#7BEF5D"/><stop offset="1" stop-color="#00000A"/></radialGradient><radialGradient id="paint23_radial_1_2477" cx="0" cy="0" r="1" gradientUnits="userSpaceOnUse" gradientTransform="matrix(99.9718 0 0 106.371 97.888 33.27)"><stop stop-color="#7BEF5D"/><stop offset="1" stop-color="#00000A"/></radialGradient><radialGradient id="paint24_radial_1_2477" cx="0" cy="0" r="1" gradientUnits="userSpaceOnUse" gradientTransform="matrix(104.648 0 0 111.346 296.253 33.027)"><stop stop-color="#A9EF90"/><stop offset="1" stop-color="#00000A"/></radialGradient><radialGradient id="paint25_radial_1_2477" cx="0" cy="0" r="1" gradientUnits="userSpaceOnUse" gradientTransform="matrix(146.894 0 0 156.297 247.541 78.25)"><stop stop-color="#7BEF5D"/><stop offset="1" stop-color="#00000A"/></radialGradient><radialGradient id="paint26_radial_1_2477" cx="0" cy="0" r="1" gradientUnits="userSpaceOnUse" gradientTransform="matrix(133.736 0 0 142.296 38.134 -17.125)"><stop stop-color="#90EF74"/><stop offset="1" stop-color="#00000A"/></radialGradient><radialGradient id="paint27_radial_1_2477" cx="0" cy="0" r="1" gradientUnits="userSpaceOnUse" gradientTransform="matrix(156.888 0 0 166.93 130.334 -35.765)"><stop stop-color="#90EF74"/><stop offset="1" stop-color="#00000A"/></radialGradient><radialGradient id="paint28_radial_1_2477" cx="0" cy="0" r="1" gradientUnits="userSpaceOnUse" gradientTransform="matrix(201.834 0 0 214.752 234.912 -76.65)"><stop stop-color="#90EF74"/><stop offset="1" stop-color="#00000A"/></radialGradient><radialGradient id="paint29_radial_1_2477" cx="0" cy="0" r="1" gradientUnits="userSpaceOnUse" gradientTransform="matrix(70.5601 0 0 62.0302 22.617 4.233)"><stop stop-color="#FFF8C7"/><stop offset="1" stop-color="#FFC521"/></radialGradient><radialGradient id="paint30_radial_1_2477" cx="0" cy="0" r="1" gradientUnits="userSpaceOnUse" gradientTransform="matrix(387.127 0 0 340.328 20.396 -57.956)"><stop stop-color="#FFF8C7"/><stop offset="1" stop-color="#FFC521"/></radialGradient><radialGradient id="paint31_radial_1_2477" cx="0" cy="0" r="1" gradientUnits="userSpaceOnUse" gradientTransform="matrix(80.1969 0 0 70.5021 288.788 38.619)"><stop stop-color="#F90"/><stop offset="1" stop-color="#C44800"/></radialGradient><radialGradient id="paint32_radial_1_2477" cx="0" cy="0" r="1" gradientUnits="userSpaceOnUse" gradientTransform="matrix(60.6566 0 0 53.324 35.834 63.414)"><stop stop-color="#F90"/><stop offset="1" stop-color="#C44800"/></radialGradient><radialGradient id="paint33_radial_1_2477" cx="0" cy="0" r="1" gradientUnits="userSpaceOnUse" gradientTransform="matrix(262.953 0 0 231.166 149.683 76.991)"><stop stop-color="#F90"/><stop offset="1" stop-color="#C44800"/></radialGradient><radialGradient id="paint34_radial_1_2477" cx="0" cy="0" r="1" gradientUnits="userSpaceOnUse" gradientTransform="matrix(82.6078 0 0 72.6216 275.571 54.64)"><stop stop-color="#F90"/><stop offset="1" stop-color="#C44800"/></radialGradient><radialGradient id="paint35_radial_1_2477" cx="0" cy="0" r="1" gradientUnits="userSpaceOnUse" gradientTransform="matrix(119.113 0 0 104.713 413.75 61.095)"><stop stop-color="#F90"/><stop offset="1" stop-color="#C44800"/></radialGradient><radialGradient id="paint36_radial_1_2477" cx="0" cy="0" r="1" gradientUnits="userSpaceOnUse" gradientTransform="matrix(100.606 0 0 88.4437 -45.697 25.287)"><stop stop-color="#FFEB68"/><stop offset="1" stop-color="#E67D2D"/></radialGradient><radialGradient id="paint37_radial_1_2477" cx="0" cy="0" r="1" gradientUnits="userSpaceOnUse" gradientTransform="matrix(100.846 0 0 88.6546 -35.891 46.392)"><stop stop-color="#F90"/><stop offset="1" stop-color="#C44800"/></radialGradient><radialGradient id="paint38_radial_1_2477" cx="0" cy="0" r="1" gradientUnits="userSpaceOnUse" gradientTransform="matrix(64.9173 0 0 57.0696 33.132 57.965)"><stop stop-color="#FFEB68"/><stop offset="1" stop-color="#E67D2D"/></radialGradient><radialGradient id="paint39_radial_1_2477" cx="0" cy="0" r="1" gradientUnits="userSpaceOnUse" gradientTransform="matrix(197.549 0 0 173.667 280.963 120.777)"><stop stop-color="#FFF8C7"/><stop offset="1" stop-color="#FFC521"/></radialGradient><radialGradient id="paint40_radial_1_2477" cx="0" cy="0" r="1" gradientUnits="userSpaceOnUse" gradientTransform="matrix(104.118 0 0 91.5314 312.261 84.287)"><stop stop-color="#FFF8C7"/><stop offset="1" stop-color="#FFC521"/></radialGradient><radialGradient id="paint41_radial_1_2477" cx="0" cy="0" r="1" gradientUnits="userSpaceOnUse" gradientTransform="matrix(105.314 0 0 92.583 317.353 49.95)"><stop stop-color="#FFEB68"/><stop offset="1" stop-color="#E67D2D"/></radialGradient><radialGradient id="paint42_radial_1_2477" cx="0" cy="0" r="1" gradientUnits="userSpaceOnUse" gradientTransform="matrix(57.2805 0 0 50.356 42.843 37.902)"><stop stop-color="#F90"/><stop offset="1" stop-color="#C44800"/></radialGradient><radialGradient id="paint43_radial_1_2477" cx="0" cy="0" r="1" gradientUnits="userSpaceOnUse" gradientTransform="matrix(258.216 0 0 227.001 375.666 39.117)"><stop stop-color="#F90"/><stop offset="1" stop-color="#C44800"/></radialGradient><radialGradient id="paint44_radial_1_2477" cx="0" cy="0" r="1" gradientUnits="userSpaceOnUse" gradientTransform="matrix(62.9331 0 0 55.3253 323.321 13.951)"><stop stop-color="#F90"/><stop offset="1" stop-color="#C44800"/></radialGradient><radialGradient id="paint45_radial_1_2477" cx="0" cy="0" r="1" gradientUnits="userSpaceOnUse" gradientTransform="matrix(199.86 0 0 175.7 35.78 4.748)"><stop stop-color="#FFF9CF"/><stop offset="1"/></radialGradient><radialGradient id="paint46_radial_1_2477" cx="0" cy="0" r="1" gradientUnits="userSpaceOnUse" gradientTransform="matrix(196.462 0 0 172.713 307.48 107.008)"><stop stop-color="#FFF9CF"/><stop offset="1"/></radialGradient><linearGradient id="paint13_linear_1_2477" x1="19.002" y1="20.268" x2="320.861" y2="81.062" gradientUnits="userSpaceOnUse"><stop stop-color="#66F72A"/><stop offset="1" stop-color="#1F8200"/></linearGradient></defs></svg>