<svg width="405" height="130" fill="none" xmlns="http://www.w3.org/2000/svg"><path fill-rule="evenodd" clip-rule="evenodd" d="M402.959 29.137C403.572 36.377 404 49.729 404 65c0 15.27-.409 28.623-1.041 35.862-2.157 3.245-6.656 8.645-12.14 14.48-5.484 5.835-10.578 10.622-13.609 12.917-35.378 1.029-100.595 1.721-175.201 1.721-74.605 0-139.822-.692-175.2-1.721-3.05-2.295-8.125-7.082-13.61-12.917-5.484-5.835-9.983-11.255-12.14-14.48C.447 93.622.02 80.271.02 65s.409-28.623 1.04-35.863c2.157-3.224 6.656-8.644 12.14-14.48C18.684 8.822 23.779 4.035 26.81 1.74 62.186.712 127.403.02 202.008.02c74.606 0 139.823.692 175.201 1.72 3.049 2.295 8.125 7.082 13.609 12.917 5.484 5.836 9.983 11.256 12.14 14.48z" fill="#125B00"/><path fill-rule="evenodd" clip-rule="evenodd" d="M14.724 65c0-9.752.019-20.078.65-29.969L1.042 29.137C.428 36.377 0 49.729 0 64.999c0 15.271.409 28.623 1.041 35.863l14.334-5.894c-.632-9.89-.651-20.217-.651-29.969z" fill="url(#paint0_radial_1_1830)"/><path fill-rule="evenodd" clip-rule="evenodd" d="M15.375 35.032c2.565-3.264 5.633-6.547 8.235-9.297 2.492-2.65 5.466-5.815 8.44-8.486L26.828 1.721c-3.05 2.295-8.125 7.082-13.609 12.917-5.484 5.836-9.983 11.255-12.14 14.48l14.297 5.914z" fill="url(#paint1_radial_1_1830)"/><path fill-rule="evenodd" clip-rule="evenodd" d="M32.032 17.249c22.588-.613 45.213-.89 67.801-1.108 34.059-.336 68.118-.474 102.176-.474 34.059 0 68.118.138 102.176.474 22.588.238 45.213.495 67.801 1.108L377.21 1.72C341.832.692 276.615 0 202.009 0c-74.605 0-139.822.692-175.2 1.72l5.223 15.529z" fill="url(#paint2_radial_1_1830)"/><path fill-rule="evenodd" clip-rule="evenodd" d="M371.968 17.248c2.956 2.67 5.93 5.816 8.44 8.486 2.584 2.75 5.67 6.053 8.236 9.297l14.333-5.895c-2.156-3.224-6.655-8.644-12.139-14.48-5.485-5.835-10.579-10.622-13.609-12.916l-5.261 15.508z" fill="url(#paint3_radial_1_1830)"/><path fill-rule="evenodd" clip-rule="evenodd" d="M388.625 35.031c.632 9.871.651 20.197.651 29.968 0 9.752-.019 20.078-.651 29.969l14.334 5.894C403.572 93.622 404 80.27 404 65c0-15.271-.409-28.623-1.041-35.863l-14.334 5.894z" fill="url(#paint4_radial_1_1830)"/><path fill-rule="evenodd" clip-rule="evenodd" d="M388.625 94.948c-2.565 3.264-5.633 6.547-8.236 9.297-2.491 2.65-5.465 5.815-8.44 8.486l5.224 15.528c3.049-2.295 8.124-7.082 13.609-12.917 5.484-5.836 9.983-11.255 12.14-14.48l-14.297-5.914z" fill="url(#paint5_radial_1_1830)"/><path fill-rule="evenodd" clip-rule="evenodd" d="M371.968 112.731c-22.588.614-45.213.891-67.801 1.108-34.059.336-68.118.475-102.176.475-34.059 0-68.118-.139-102.176-.475-22.588-.217-45.213-.494-67.801-1.108l-5.224 15.528c35.378 1.029 100.595 1.721 175.201 1.721 74.605 0 139.822-.692 175.201-1.721l-5.224-15.528z" fill="url(#paint6_radial_1_1830)"/><path fill-rule="evenodd" clip-rule="evenodd" d="M32.032 112.731c-2.956-2.671-5.93-5.816-8.44-8.486-2.584-2.75-5.67-6.053-8.236-9.297l-14.334 5.894c2.157 3.245 6.656 8.645 12.14 14.48 5.485 5.835 10.579 10.622 13.609 12.917l5.261-15.508z" fill="url(#paint7_radial_1_1830)"/><path opacity=".5" fill-rule="evenodd" clip-rule="evenodd" d="M201.991 124.679c-93.866 0-169.977-5.341-169.977-11.928l-5.224 15.528C62.168 129.308 127.385 130 201.99 130c74.605 0 139.822-.692 175.201-1.721l-5.224-15.528c0 6.587-76.093 11.928-169.977 11.928z" fill="url(#paint8_radial_1_1830)"/><path fill-rule="evenodd" clip-rule="evenodd" d="M26.808 1.74C31.4 20.195 13.516 33.547 1.041 29.156l14.334 5.895c2.565-3.264 5.633-6.548 8.235-9.297 2.492-2.65 5.466-5.816 8.44-8.486L26.809 1.74z" fill="url(#paint9_radial_1_1830)"/><path fill-rule="evenodd" clip-rule="evenodd" d="M32.032 17.25c22.588-.614 45.213-.891 67.801-1.109 34.059-.336 68.118-.474 102.176-.474 34.059 0 68.118.138 102.176.474l6.191.06c-91.43-1.84-184.627-2.433-277.024-.732l-1.04-.692a2997.64 2997.64 0 01-5.076-11.81c1.04 4.332 1.152 7.458 2.194 11.79l-.28 1.365c-1.989 4.688-7.975 11.71-14.537 15.943l-1.246.297C9.48 31.096 6.507 31.036 2.62 29.77c3.644 1.78 7.065 3.58 10.709 5.361l.65 1.108c-.279 19.345-.297 38.454.019 57.167l-.632 1.147c-2.268 1.305-4.313 2.591-6.581 3.897 2.51-.673 4.908-1.227 7.418-1.9l1.226.357c4.927 5.242 10.244 10.721 15.06 15.963l.334 1.325c-.502 2.097-.8 3.759-1.32 5.934.948-1.978 1.933-3.639 2.881-5.617l1.06-.673c39.339.89 90.185.93 129.468.376-17.309-.079-45.809-.237-63.117-.415-22.588-.218-45.213-.495-67.801-1.108-2.956-2.671-5.93-5.816-8.44-8.486-2.584-2.75-5.67-6.053-8.236-9.297-.632-9.87-.65-20.196-.65-29.968 0-9.752.018-20.078.65-29.968 2.565-3.264 5.633-6.548 8.236-9.297 2.547-2.611 5.521-5.756 8.477-8.427z" fill="#FFE5A6"/><path fill-rule="evenodd" clip-rule="evenodd" d="M377.192 1.74c-4.592 18.455 13.292 31.807 25.767 27.416l-14.334 5.895c-2.565-3.264-5.633-6.548-8.236-9.297-2.491-2.65-5.465-5.816-8.44-8.486l5.243-15.528z" fill="url(#paint10_radial_1_1830)"/><path fill-rule="evenodd" clip-rule="evenodd" d="M377.192 128.259c-4.592-18.456 13.292-31.808 25.767-27.417l-14.334-5.894c-2.565 3.264-5.633 6.547-8.236 9.297-2.491 2.65-5.465 5.815-8.44 8.486l5.243 15.528z" fill="url(#paint11_radial_1_1830)"/><path fill-rule="evenodd" clip-rule="evenodd" d="M388.625 94.947c-2.565 3.264-5.633 6.548-8.235 9.297-2.492 2.651-5.466 5.816-8.441 8.486-22.588.614-45.213.891-67.801 1.108-13.571.139-27.143.238-40.714.317 35.732.158 71.501.118 107.307-.178l1.022.712c1.674 4.154 3.365 8.308 5.038 12.442-1.208-4.273-2.416-8.526-3.625-12.798l.279-1.326c4.852-5.598 9.816-11.057 14.947-16.359l1.227-.316c3.198.99 6.377 1.978 9.575 2.967-2.975-1.464-5.95-2.927-8.905-4.391l-.651-1.108c.613-19.148.595-38.276.018-57.424l.633-1.127c2.825-1.464 5.651-2.948 8.477-4.412a2363.582 2363.582 0 01-9.072 2.987l-1.209-.336c-4.294-4.807-9.128-9.277-13.869-13.688 2.027 1.998 3.997 4.075 5.745 5.934 2.584 2.75 5.67 6.053 8.236 9.297.632 9.87.65 20.196.65 29.968.019 9.752 0 20.078-.632 29.948z" fill="#CDFF71"/><path fill-rule="evenodd" clip-rule="evenodd" d="M26.808 1.76c.781 1.148 78.919 2.078 175.201 2.078 96.283 0 174.421-.93 175.201-2.077v-.02C341.832.712 276.615.02 202.009.02 127.385 0 62.169.692 26.809 1.76z" fill="url(#paint12_radial_1_1830)"/><path fill-rule="evenodd" clip-rule="evenodd" d="M15.375 94.949c2.565 3.264 5.633 6.548 8.235 9.297 2.492 2.651 5.466 5.816 8.44 8.486 22.589.613 45.214.89 67.802 1.108 34.059.336 68.117.475 102.176.475s68.117-.139 102.176-.475c22.588-.218 45.213-.495 67.801-1.108 2.956-2.67 5.931-5.816 8.44-8.486 2.584-2.749 5.671-6.053 8.236-9.297.632-9.87.651-20.196.651-29.968 0-9.752-.019-20.078-.651-29.968-2.565-3.264-5.633-6.547-8.236-9.297-2.491-2.65-5.465-5.816-8.44-8.486-22.588-.613-45.213-.89-67.801-1.108-34.059-.336-68.117-.474-102.176-.474s-68.117.138-102.176.474c-22.588.238-45.213.495-67.801 1.108-2.956 2.67-5.93 5.816-8.44 8.486-2.585 2.75-5.67 6.053-8.236 9.297-.632 9.87-.65 20.196-.65 29.968 0 9.772.018 20.097.65 29.968z" fill="url(#paint13_linear_1_1830)"/><g opacity=".5" fill-rule="evenodd" clip-rule="evenodd"><path opacity=".5" d="M15.375 35.032L202.009 65 32.032 17.248c-2.956 2.671-5.93 5.816-8.44 8.486-2.584 2.75-5.652 6.034-8.217 9.297z" fill="url(#paint14_radial_1_1830)"/><path opacity=".5" d="M388.625 35.032L201.991 65l169.977-47.752c2.956 2.671 5.93 5.816 8.44 8.486 2.584 2.75 5.652 6.034 8.217 9.297z" fill="url(#paint15_radial_1_1830)"/><path opacity=".75" d="M15.375 94.948L202.009 64.98 32.032 112.73c-2.956-2.671-5.93-5.816-8.44-8.486-2.584-2.73-5.652-6.034-8.217-9.297z" fill="url(#paint16_radial_1_1830)"/><path d="M388.625 94.948L201.991 64.98l169.977 47.751c2.956-2.671 5.93-5.816 8.44-8.486 2.584-2.73 5.652-6.034 8.217-9.297z" fill="url(#paint17_radial_1_1830)"/><path opacity=".3" d="M15.375 94.948L202.009 64.98 15.375 35.032c-.632 9.87-.65 20.196-.65 29.968 0 9.752.018 20.077.65 29.948z" fill="url(#paint18_radial_1_1830)"/><path opacity=".75" d="M32.032 17.248L202.01 65l169.977-47.75c-22.588-.614-45.213-.89-67.801-1.108-34.058-.336-68.117-.475-102.176-.475-34.058 0-68.117.139-102.175.475-22.589.237-45.214.494-67.802 1.108z" fill="url(#paint19_radial_1_1830)"/><path opacity=".5" d="M388.625 35.032L201.991 65l186.634 29.968c.632-9.87.651-20.197.651-29.968 0-9.752-.019-20.098-.651-29.968z" fill="url(#paint20_radial_1_1830)"/><path opacity=".8" d="M371.968 112.731L201.991 64.98 32.014 112.73c22.588.613 45.213.89 67.8 1.107 34.059.337 68.118.475 102.177.475 34.058 0 68.117-.138 102.176-.475 22.588-.217 45.213-.494 67.801-1.107z" fill="url(#paint21_radial_1_1830)"/><path opacity=".5" d="M49.6 89.468L201.992 65 49.601 40.53v48.938z" fill="url(#paint22_radial_1_1830)"/><path d="M114.892 40.53L201.991 65l87.117-24.47H114.892z" fill="url(#paint23_radial_1_1830)"/><path opacity=".5" d="M354.399 40.53L201.991 65l152.408 24.468V40.53z" fill="url(#paint24_radial_1_1830)"/><path opacity=".7" d="M289.108 89.469l-87.117-24.47-87.099 24.47h174.216z" fill="url(#paint25_radial_1_1830)"/></g><path opacity=".65" fill-rule="evenodd" clip-rule="evenodd" d="M35.174 112.81l91.077-96.906c-8.812.06-17.605.138-26.418.217-10.912.12-21.825.238-32.738.396L14.743 72.22c.037 7.537.148 15.251.632 22.728 2.565 3.264 5.633 6.548 8.235 9.297 2.492 2.651 5.466 5.816 8.44 8.486 1.023.04 2.064.06 3.124.079z" fill="url(#paint26_radial_1_1830)"/><path opacity=".65" fill-rule="evenodd" clip-rule="evenodd" d="M175.368 15.706l-92.08 97.974 16.545.178c2.603.02 5.224.06 7.827.08l92.341-98.252c-8.217-.02-16.434 0-24.633.02z" fill="url(#paint27_radial_1_1830)"/><path opacity=".65" fill-rule="evenodd" clip-rule="evenodd" d="M340.307 16.596l-91.765 97.638c17.067-.059 34.115-.178 51.181-.336l81.782-87.016-1.078-1.148c-2.492-2.65-5.466-5.815-8.441-8.486a2819.522 2819.522 0 00-31.679-.652z" fill="url(#paint28_radial_1_1830)"/><path fill-rule="evenodd" clip-rule="evenodd" d="M6.15 20.77L23.626 5.41 21.076 0 0 18.53l6.15 2.24z" fill="url(#paint29_radial_1_1830)"/><path fill-rule="evenodd" clip-rule="evenodd" d="M23.625 5.411h356.836L383.01 0H21.077l2.548 5.411z" fill="url(#paint30_radial_1_1830)"/><path fill-rule="evenodd" clip-rule="evenodd" d="M380.461 5.411l17.471 15.359 6.155-2.24L383.01 0l-2.549 5.411z" fill="url(#paint31_radial_1_1830)"/><path fill-rule="evenodd" clip-rule="evenodd" d="M23.625 124.593L6.15 109.23 0 111.471 21.077 130l2.548-5.407z" fill="url(#paint32_radial_1_1830)"/><path fill-rule="evenodd" clip-rule="evenodd" d="M380.461 124.593H23.625L21.077 130H383.01l-2.549-5.407z" fill="url(#paint33_radial_1_1830)"/><path fill-rule="evenodd" clip-rule="evenodd" d="M397.932 109.23l-17.471 15.363L383.01 130l21.077-18.529-6.155-2.241z" fill="url(#paint34_radial_1_1830)"/><path fill-rule="evenodd" clip-rule="evenodd" d="M397.932 20.77v88.46l6.155 2.241V18.529l-6.155 2.24z" fill="url(#paint35_radial_1_1830)"/><path fill-rule="evenodd" clip-rule="evenodd" d="M6.15 109.23V20.77L0 18.528v92.942l6.15-2.241z" fill="url(#paint36_radial_1_1830)"/><path fill-rule="evenodd" clip-rule="evenodd" d="M6.15 20.77v88.461l3.696-1.343V22.116L6.15 20.77z" fill="url(#paint37_radial_1_1830)"/><path fill-rule="evenodd" clip-rule="evenodd" d="M25.152 121.344L9.846 107.888l-3.696 1.343 17.476 15.363 1.526-3.25z" fill="url(#paint38_radial_1_1830)"/><path fill-rule="evenodd" clip-rule="evenodd" d="M378.929 121.344H25.152l-1.527 3.249h356.836l-1.532-3.249z" fill="url(#paint39_radial_1_1830)"/><path fill-rule="evenodd" clip-rule="evenodd" d="M394.241 107.888l-15.312 13.456 1.532 3.25 17.471-15.363-3.691-1.343z" fill="url(#paint40_radial_1_1830)"/><path fill-rule="evenodd" clip-rule="evenodd" d="M394.241 22.116v85.772l3.691 1.343V20.769l-3.691 1.348z" fill="url(#paint41_radial_1_1830)"/><path fill-rule="evenodd" clip-rule="evenodd" d="M9.846 22.116l15.306-13.46-1.527-3.245L6.15 20.769l3.696 1.347z" fill="url(#paint42_radial_1_1830)"/><path fill-rule="evenodd" clip-rule="evenodd" d="M25.152 8.655H378.93l1.532-3.244H23.625l1.527 3.244z" fill="url(#paint43_radial_1_1830)"/><path fill-rule="evenodd" clip-rule="evenodd" d="M378.929 8.655l15.312 13.461 3.691-1.347-17.471-15.358-1.532 3.244z" fill="url(#paint44_radial_1_1830)"/><path fill-rule="evenodd" clip-rule="evenodd" d="M15.527 12.53l7.14-7.309-1.38-4.772 2.66 4.221 171.86.74-171.892.612-8.388 6.508z" fill="url(#paint45_radial_1_1830)"/><path fill-rule="evenodd" clip-rule="evenodd" d="M388.554 117.474l-7.134 7.304 1.379 4.773-2.664-4.217-171.855-.741 171.892-.615 8.382-6.504z" fill="url(#paint46_radial_1_1830)"/><defs><radialGradient id="paint0_radial_1_1830" cx="0" cy="0" r="1" gradientUnits="userSpaceOnUse" gradientTransform="matrix(150.962 0 0 160.625 -2.929 25.95)"><stop stop-color="#72EF52"/><stop offset="1" stop-color="#20EC00"/></radialGradient><radialGradient id="paint1_radial_1_1830" cx="0" cy="0" r="1" gradientUnits="userSpaceOnUse" gradientTransform="matrix(104.866 0 0 111.578 15.882 5.165)"><stop stop-color="#99F77D"/><stop offset="1" stop-color="#1CC100"/></radialGradient><radialGradient id="paint2_radial_1_1830" cx="0" cy="0" r="1" gradientUnits="userSpaceOnUse" gradientTransform="matrix(274.915 0 0 292.512 108.492 -152.087)"><stop stop-color="#D5EFC1"/><stop offset="1" stop-color="#4FEF2C"/></radialGradient><radialGradient id="paint3_radial_1_1830" cx="0" cy="0" r="1" gradientUnits="userSpaceOnUse" gradientTransform="matrix(257.311 0 0 273.78 393.036 -90.293)"><stop stop-color="#83EF65"/><stop offset="1" stop-color="#1CC100"/></radialGradient><radialGradient id="paint4_radial_1_1830" cx="0" cy="0" r="1" gradientUnits="userSpaceOnUse" gradientTransform="matrix(151.052 0 0 160.721 400.238 -17.8)"><stop stop-color="#72EF52"/><stop offset="1" stop-color="#20EC00"/></radialGradient><radialGradient id="paint5_radial_1_1830" cx="0" cy="0" r="1" gradientUnits="userSpaceOnUse" gradientTransform="matrix(62.0006 0 0 65.9691 354.115 67.08)"><stop stop-color="#38EF12"/><stop offset="1" stop-color="#189600"/></radialGradient><radialGradient id="paint6_radial_1_1830" cx="0" cy="0" r="1" gradientUnits="userSpaceOnUse" gradientTransform="matrix(309.949 0 0 329.787 103.261 -64.405)"><stop stop-color="#3BF715"/><stop offset="1" stop-color="#178C00"/></radialGradient><radialGradient id="paint7_radial_1_1830" cx="0" cy="0" r="1" gradientUnits="userSpaceOnUse" gradientTransform="matrix(96.4675 0 0 102.642 -15.505 81.69)"><stop stop-color="#7DEF5F"/><stop offset="1" stop-color="#1ED600"/></radialGradient><radialGradient id="paint8_radial_1_1830" cx="0" cy="0" r="1" gradientUnits="userSpaceOnUse" gradientTransform="matrix(284.912 0 0 303.148 202 121.361)"><stop stop-color="#83EF65"/><stop offset="1" stop-color="#00000A"/></radialGradient><radialGradient id="paint9_radial_1_1830" cx="0" cy="0" r="1" gradientUnits="userSpaceOnUse" gradientTransform="matrix(52.8422 0 0 56.2244 37.788 45.518)"><stop stop-color="#5BF738"/><stop offset="1" stop-color="#FFF8EF"/></radialGradient><radialGradient id="paint10_radial_1_1830" cx="0" cy="0" r="1" gradientUnits="userSpaceOnUse" gradientTransform="matrix(77.5793 0 0 82.5448 397.272 39.604)"><stop stop-color="#4BC72C"/><stop offset="1" stop-color="#FFF8EF"/></radialGradient><radialGradient id="paint11_radial_1_1830" cx="0" cy="0" r="1" gradientUnits="userSpaceOnUse" gradientTransform="matrix(57.4343 0 0 61.1105 392.041 101.519)"><stop stop-color="#E5DB3D"/><stop offset="1" stop-color="#FFF8EF"/></radialGradient><radialGradient id="paint12_radial_1_1830" cx="0" cy="0" r="1" gradientUnits="userSpaceOnUse" gradientTransform="matrix(315.354 0 0 335.538 202 1.922)"><stop stop-color="#48F723"/><stop offset="1" stop-color="#00000A"/></radialGradient><radialGradient id="paint14_radial_1_1830" cx="0" cy="0" r="1" gradientUnits="userSpaceOnUse" gradientTransform="matrix(383.778 0 0 408.342 208.731 66.172)"><stop stop-color="#8EF771"/><stop offset="1" stop-color="#00000A"/></radialGradient><radialGradient id="paint15_radial_1_1830" cx="0" cy="0" r="1" gradientUnits="userSpaceOnUse" gradientTransform="matrix(455.193 0 0 484.328 207.693 64.085)"><stop stop-color="#8EF771"/><stop offset="1" stop-color="#00000A"/></radialGradient><radialGradient id="paint16_radial_1_1830" cx="0" cy="0" r="1" gradientUnits="userSpaceOnUse" gradientTransform="matrix(239.863 0 0 255.216 24.549 107.652)"><stop stop-color="#8EF771"/><stop offset="1" stop-color="#00000A"/></radialGradient><radialGradient id="paint17_radial_1_1830" cx="0" cy="0" r="1" gradientUnits="userSpaceOnUse" gradientTransform="matrix(235.161 0 0 250.213 373.784 126.437)"><stop stop-color="#8EF771"/><stop offset="1" stop-color="#00000A"/></radialGradient><radialGradient id="paint18_radial_1_1830" cx="0" cy="0" r="1" gradientUnits="userSpaceOnUse" gradientTransform="matrix(119.605 0 0 127.26 14.854 35.078)"><stop stop-color="#71F750"/><stop offset="1" stop-color="#00000A"/></radialGradient><radialGradient id="paint19_radial_1_1830" cx="0" cy="0" r="1" gradientUnits="userSpaceOnUse" gradientTransform="matrix(328.064 0 0 349.062 184.367 -61.752)"><stop stop-color="#9AF77E"/><stop offset="1" stop-color="#00000A"/></radialGradient><radialGradient id="paint20_radial_1_1830" cx="0" cy="0" r="1" gradientUnits="userSpaceOnUse" gradientTransform="matrix(167.671 0 0 178.403 391.108 64.3)"><stop stop-color="#71F750"/><stop offset="1" stop-color="#00000A"/></radialGradient><radialGradient id="paint21_radial_1_1830" cx="0" cy="0" r="1" gradientUnits="userSpaceOnUse" gradientTransform="matrix(243.102 0 0 258.662 174.536 245.508)"><stop stop-color="#71F750"/><stop offset="1" stop-color="#00000A"/></radialGradient><radialGradient id="paint22_radial_1_1830" cx="0" cy="0" r="1" gradientUnits="userSpaceOnUse" gradientTransform="matrix(292.458 0 0 311.177 50.599 37.165)"><stop stop-color="#7BEF5D"/><stop offset="1" stop-color="#00000A"/></radialGradient><radialGradient id="paint23_radial_1_1830" cx="0" cy="0" r="1" gradientUnits="userSpaceOnUse" gradientTransform="matrix(118.816 0 0 126.42 116.339 39.542)"><stop stop-color="#7BEF5D"/><stop offset="1" stop-color="#00000A"/></radialGradient><radialGradient id="paint24_radial_1_1830" cx="0" cy="0" r="1" gradientUnits="userSpaceOnUse" gradientTransform="matrix(124.373 0 0 132.334 352.094 39.252)"><stop stop-color="#A9EF90"/><stop offset="1" stop-color="#00000A"/></radialGradient><radialGradient id="paint25_radial_1_1830" cx="0" cy="0" r="1" gradientUnits="userSpaceOnUse" gradientTransform="matrix(174.583 0 0 185.757 294.2 93)"><stop stop-color="#7BEF5D"/><stop offset="1" stop-color="#00000A"/></radialGradient><radialGradient id="paint26_radial_1_1830" cx="0" cy="0" r="1" gradientUnits="userSpaceOnUse" gradientTransform="matrix(158.944 0 0 169.118 45.322 -20.353)"><stop stop-color="#90EF74"/><stop offset="1" stop-color="#00000A"/></radialGradient><radialGradient id="paint27_radial_1_1830" cx="0" cy="0" r="1" gradientUnits="userSpaceOnUse" gradientTransform="matrix(186.46 0 0 198.395 154.9 -42.507)"><stop stop-color="#90EF74"/><stop offset="1" stop-color="#00000A"/></radialGradient><radialGradient id="paint28_radial_1_1830" cx="0" cy="0" r="1" gradientUnits="userSpaceOnUse" gradientTransform="matrix(239.877 0 0 255.231 279.19 -91.097)"><stop stop-color="#90EF74"/><stop offset="1" stop-color="#00000A"/></radialGradient><radialGradient id="paint29_radial_1_1830" cx="0" cy="0" r="1" gradientUnits="userSpaceOnUse" gradientTransform="matrix(83.86 0 0 73.7223 26.88 5.031)"><stop stop-color="#FFF8C7"/><stop offset="1" stop-color="#FFC521"/></radialGradient><radialGradient id="paint30_radial_1_1830" cx="0" cy="0" r="1" gradientUnits="userSpaceOnUse" gradientTransform="matrix(460.096 0 0 404.477 24.241 -68.88)"><stop stop-color="#FFF8C7"/><stop offset="1" stop-color="#FFC521"/></radialGradient><radialGradient id="paint31_radial_1_1830" cx="0" cy="0" r="1" gradientUnits="userSpaceOnUse" gradientTransform="matrix(95.3133 0 0 83.7911 343.222 45.898)"><stop stop-color="#F90"/><stop offset="1" stop-color="#C44800"/></radialGradient><radialGradient id="paint32_radial_1_1830" cx="0" cy="0" r="1" gradientUnits="userSpaceOnUse" gradientTransform="matrix(72.0898 0 0 63.375 42.589 75.368)"><stop stop-color="#F90"/><stop offset="1" stop-color="#C44800"/></radialGradient><radialGradient id="paint33_radial_1_1830" cx="0" cy="0" r="1" gradientUnits="userSpaceOnUse" gradientTransform="matrix(312.518 0 0 274.739 177.897 91.503)"><stop stop-color="#F90"/><stop offset="1" stop-color="#C44800"/></radialGradient><radialGradient id="paint34_radial_1_1830" cx="0" cy="0" r="1" gradientUnits="userSpaceOnUse" gradientTransform="matrix(98.1786 0 0 86.31 327.513 64.94)"><stop stop-color="#F90"/><stop offset="1" stop-color="#C44800"/></radialGradient><radialGradient id="paint35_radial_1_1830" cx="0" cy="0" r="1" gradientUnits="userSpaceOnUse" gradientTransform="matrix(141.564 0 0 124.451 491.738 72.61)"><stop stop-color="#F90"/><stop offset="1" stop-color="#C44800"/></radialGradient><radialGradient id="paint36_radial_1_1830" cx="0" cy="0" r="1" gradientUnits="userSpaceOnUse" gradientTransform="matrix(119.569 0 0 105.114 -54.31 30.053)"><stop stop-color="#FFEB68"/><stop offset="1" stop-color="#E67D2D"/></radialGradient><radialGradient id="paint37_radial_1_1830" cx="0" cy="0" r="1" gradientUnits="userSpaceOnUse" gradientTransform="matrix(119.854 0 0 105.365 -42.657 55.137)"><stop stop-color="#F90"/><stop offset="1" stop-color="#C44800"/></radialGradient><radialGradient id="paint38_radial_1_1830" cx="0" cy="0" r="1" gradientUnits="userSpaceOnUse" gradientTransform="matrix(77.1536 0 0 67.8267 39.377 68.89)"><stop stop-color="#FFEB68"/><stop offset="1" stop-color="#E67D2D"/></radialGradient><radialGradient id="paint39_radial_1_1830" cx="0" cy="0" r="1" gradientUnits="userSpaceOnUse" gradientTransform="matrix(234.785 0 0 206.402 333.922 143.543)"><stop stop-color="#FFF8C7"/><stop offset="1" stop-color="#FFC521"/></radialGradient><radialGradient id="paint40_radial_1_1830" cx="0" cy="0" r="1" gradientUnits="userSpaceOnUse" gradientTransform="matrix(123.743 0 0 108.784 371.119 100.174)"><stop stop-color="#FFF8C7"/><stop offset="1" stop-color="#FFC521"/></radialGradient><radialGradient id="paint41_radial_1_1830" cx="0" cy="0" r="1" gradientUnits="userSpaceOnUse" gradientTransform="matrix(125.165 0 0 110.034 377.172 59.365)"><stop stop-color="#FFEB68"/><stop offset="1" stop-color="#E67D2D"/></radialGradient><radialGradient id="paint42_radial_1_1830" cx="0" cy="0" r="1" gradientUnits="userSpaceOnUse" gradientTransform="matrix(68.0774 0 0 59.8477 50.919 45.047)"><stop stop-color="#F90"/><stop offset="1" stop-color="#C44800"/></radialGradient><radialGradient id="paint43_radial_1_1830" cx="0" cy="0" r="1" gradientUnits="userSpaceOnUse" gradientTransform="matrix(306.887 0 0 269.788 446.475 46.49)"><stop stop-color="#F90"/><stop offset="1" stop-color="#C44800"/></radialGradient><radialGradient id="paint44_radial_1_1830" cx="0" cy="0" r="1" gradientUnits="userSpaceOnUse" gradientTransform="matrix(74.7953 0 0 65.7536 384.264 16.581)"><stop stop-color="#F90"/><stop offset="1" stop-color="#C44800"/></radialGradient><radialGradient id="paint45_radial_1_1830" cx="0" cy="0" r="1" gradientUnits="userSpaceOnUse" gradientTransform="matrix(237.532 0 0 208.817 42.525 5.643)"><stop stop-color="#FFF9CF"/><stop offset="1"/></radialGradient><radialGradient id="paint46_radial_1_1830" cx="0" cy="0" r="1" gradientUnits="userSpaceOnUse" gradientTransform="matrix(233.494 0 0 205.267 365.437 127.177)"><stop stop-color="#FFF9CF"/><stop offset="1"/></radialGradient><linearGradient id="paint13_linear_1_1830" x1="22.583" y1="24.089" x2="381.341" y2="96.341" gradientUnits="userSpaceOnUse"><stop stop-color="#66F72A"/><stop offset="1" stop-color="#1F8200"/></linearGradient></defs></svg>