<svg width="106" height="34" fill="none" xmlns="http://www.w3.org/2000/svg"><path fill-rule="evenodd" clip-rule="evenodd" d="M105.389 7.62c.16 1.894.272 5.386.272 9.38 0 3.994-.107 7.486-.272 9.38-.564.848-1.741 2.26-3.175 3.787-1.434 1.526-2.767 2.778-3.56 3.378-9.252.269-26.309.45-45.821.45-19.512 0-36.569-.181-45.822-.45-.797-.6-2.125-1.852-3.559-3.378C2.018 28.64.841 27.223.277 26.38.117 24.486.005 20.994.005 17c0-3.994.107-7.486.272-9.38.564-.843 1.74-2.26 3.175-3.786C4.886 2.308 6.219 1.056 7.012.455c9.251-.269 26.308-.45 45.82-.45s36.569.181 45.822.45c.797.6 2.125 1.853 3.559 3.379 1.434 1.526 2.611 2.943 3.175 3.787z" fill="#125B00"/><path fill-rule="evenodd" clip-rule="evenodd" d="M3.85 17c0-2.55.006-5.251.17-7.838L.273 7.621C.112 9.514 0 13.006 0 17c0 3.993.107 7.485.272 9.379l3.749-1.542C3.856 22.25 3.85 19.55 3.85 17z" fill="url(#paint0_radial_1_6205)"/><path fill-rule="evenodd" clip-rule="evenodd" d="M4.02 9.162c.672-.853 1.474-1.712 2.155-2.431.651-.693 1.43-1.521 2.207-2.22L7.016.451c-.797.6-2.125 1.851-3.56 3.377C2.023 5.355.847 6.772.283 7.615L4.02 9.162z" fill="url(#paint1_radial_1_6205)"/><path fill-rule="evenodd" clip-rule="evenodd" d="M8.378 4.511c5.907-.16 11.825-.233 17.732-.29 8.908-.087 17.815-.124 26.723-.124 8.908 0 17.815.037 26.723.125 5.908.062 11.825.129 17.733.29L98.655.45C89.402.181 72.345 0 52.833 0 33.321 0 16.264.181 7.011.45l1.367 4.061z" fill="url(#paint2_radial_1_6205)"/><path fill-rule="evenodd" clip-rule="evenodd" d="M97.284 4.51c.773.699 1.551 1.522 2.207 2.22.676.72 1.483 1.583 2.154 2.432l3.749-1.542c-.564-.843-1.741-2.261-3.175-3.787-1.434-1.526-2.766-2.778-3.559-3.378L97.284 4.51z" fill="url(#paint3_radial_1_6205)"/><path fill-rule="evenodd" clip-rule="evenodd" d="M101.64 9.162c.165 2.582.17 5.282.17 7.838 0 2.55-.005 5.251-.17 7.838l3.749 1.542c.16-1.894.272-5.386.272-9.38 0-3.994-.107-7.486-.272-9.38l-3.749 1.542z" fill="url(#paint4_radial_1_6205)"/><path fill-rule="evenodd" clip-rule="evenodd" d="M101.64 24.832c-.671.854-1.473 1.713-2.154 2.432-.651.693-1.43 1.521-2.207 2.22l1.366 4.06c.797-.6 2.125-1.851 3.559-3.378 1.435-1.526 2.611-2.943 3.175-3.787l-3.739-1.547z" fill="url(#paint5_radial_1_6205)"/><path fill-rule="evenodd" clip-rule="evenodd" d="M97.284 29.483c-5.908.16-11.826.233-17.733.29a2705.1 2705.1 0 01-26.723.124c-8.908 0-17.815-.036-26.723-.124-5.908-.057-11.825-.13-17.733-.29l-1.366 4.062c9.253.269 26.31.45 45.822.45 19.512 0 36.569-.181 45.822-.45l-1.367-4.062z" fill="url(#paint6_radial_1_6205)"/><path fill-rule="evenodd" clip-rule="evenodd" d="M8.378 29.483c-.774-.698-1.551-1.52-2.208-2.219-.676-.72-1.483-1.583-2.154-2.431l-3.749 1.54c.564.849 1.741 2.261 3.175 3.787 1.435 1.526 2.767 2.778 3.56 3.378l1.376-4.056z" fill="url(#paint7_radial_1_6205)"/><path opacity=".5" fill-rule="evenodd" clip-rule="evenodd" d="M52.828 32.608c-24.55 0-44.456-1.396-44.456-3.12L7.006 33.55c9.253.269 26.31.45 45.822.45 19.512 0 36.569-.181 45.822-.45l-1.367-4.061c0 1.723-19.9 3.12-44.455 3.12z" fill="url(#paint8_radial_1_6205)"/><path fill-rule="evenodd" clip-rule="evenodd" d="M7.01.455C8.213 5.28 3.535 8.774.273 7.625L4.02 9.167c.67-.854 1.473-1.713 2.154-2.432.651-.693 1.429-1.52 2.207-2.22L7.011.456z" fill="url(#paint9_radial_1_6205)"/><path fill-rule="evenodd" clip-rule="evenodd" d="M8.378 4.512c5.907-.16 11.825-.233 17.732-.29 8.908-.088 17.816-.124 26.723-.124 8.908 0 17.816.036 26.723.124l1.62.015c-23.913-.48-48.288-.636-72.453-.191l-.272-.181C7.989 2.794 7.58 1.847 7.123.776c.272 1.133.302 1.95.574 3.084l-.073.357c-.52 1.226-2.086 3.062-3.802 4.17l-.326.077c-1.016-.331-1.794-.346-2.81-.678.953.466 1.847.937 2.8 1.402l.17.29a478.74 478.74 0 00.005 14.951l-.165.3c-.593.342-1.128.678-1.721 1.02.656-.176 1.283-.321 1.94-.497l.32.093c1.29 1.371 2.68 2.804 3.94 4.175l.087.347c-.132.548-.21.983-.346 1.552.248-.518.506-.952.754-1.47l.277-.175c10.289.232 23.587.243 33.86.098-4.526-.02-11.98-.062-16.506-.109-5.908-.057-11.825-.13-17.733-.29-.773-.698-1.551-1.52-2.208-2.219-.675-.719-1.483-1.583-2.154-2.431-.165-2.582-.17-5.282-.17-7.838 0-2.55.005-5.251.17-7.838.671-.854 1.474-1.712 2.154-2.432.667-.682 1.445-1.505 2.218-2.203z" fill="#FFE5A6"/><path fill-rule="evenodd" clip-rule="evenodd" d="M98.65.455c-1.201 4.826 3.476 8.319 6.739 7.17l-3.749 1.542c-.671-.854-1.473-1.713-2.154-2.432-.651-.693-1.43-1.52-2.207-2.22L98.65.456z" fill="url(#paint10_radial_1_6205)"/><path fill-rule="evenodd" clip-rule="evenodd" d="M98.65 33.545c-1.201-4.827 3.476-8.32 6.739-7.17l-3.749-1.543c-.671.854-1.473 1.713-2.154 2.432-.651.693-1.43 1.521-2.207 2.22l1.371 4.06z" fill="url(#paint11_radial_1_6205)"/><path fill-rule="evenodd" clip-rule="evenodd" d="M101.64 24.833c-.671.853-1.473 1.712-2.154 2.431-.651.694-1.43 1.521-2.207 2.22-5.908.16-11.825.232-17.733.29-3.55.036-7.099.061-10.648.082 9.345.041 18.7.031 28.065-.046l.267.186c.438 1.086.88 2.173 1.318 3.254l-.948-3.347.073-.347a105.487 105.487 0 013.909-4.278l.321-.083c.836.258 1.667.517 2.504.776-.778-.383-1.556-.766-2.329-1.149l-.17-.29c.16-5.007.155-10.01.004-15.018l.166-.295c.739-.383 1.478-.77 2.217-1.153-.812.269-1.566.517-2.373.78l-.316-.087c-1.123-1.257-2.387-2.427-3.627-3.58.53.522 1.045 1.065 1.502 1.552.676.719 1.483 1.583 2.154 2.431.166 2.582.17 5.282.17 7.838.005 2.55 0 5.251-.165 7.833z" fill="#CDFF71"/><path fill-rule="evenodd" clip-rule="evenodd" d="M7.011.46c.204.3 20.64.543 45.822.543 25.182 0 45.618-.243 45.822-.543V.455c-9.253-.269-26.31-.45-45.822-.45C33.316 0 16.26.181 7.011.46z" fill="url(#paint12_radial_1_6205)"/><path fill-rule="evenodd" clip-rule="evenodd" d="M4.021 24.833c.671.853 1.474 1.712 2.154 2.431.652.694 1.43 1.521 2.208 2.22 5.907.16 11.825.232 17.732.29 8.908.087 17.816.123 26.723.123 8.908 0 17.815-.036 26.723-.124 5.908-.057 11.825-.129 17.733-.29.773-.698 1.55-1.52 2.207-2.219.676-.719 1.483-1.583 2.154-2.431.166-2.582.17-5.282.17-7.838 0-2.55-.004-5.251-.17-7.838-.671-.854-1.473-1.712-2.154-2.431-.651-.694-1.43-1.521-2.207-2.22-5.908-.16-11.825-.233-17.733-.29-8.908-.088-17.815-.124-26.723-.124-8.907 0-17.815.037-26.723.124-5.907.063-11.825.13-17.732.29-.773.699-1.551 1.521-2.208 2.22-.676.719-1.483 1.583-2.154 2.431-.165 2.582-.17 5.282-.17 7.838s.005 5.256.17 7.838z" fill="url(#paint13_linear_1_6205)"/><g opacity=".5" fill-rule="evenodd" clip-rule="evenodd"><path opacity=".5" d="M4.02 9.162L52.834 17 8.377 4.511c-.773.699-1.55 1.521-2.207 2.22-.676.719-1.478 1.578-2.15 2.431z" fill="url(#paint14_radial_1_6205)"/><path opacity=".5" d="M101.64 9.162L52.828 17 97.284 4.511c.773.699 1.55 1.521 2.207 2.22.676.719 1.478 1.578 2.149 2.431z" fill="url(#paint15_radial_1_6205)"/><path opacity=".75" d="M4.02 24.832l48.813-7.838L8.377 29.483c-.773-.698-1.55-1.521-2.207-2.22-.676-.714-1.478-1.577-2.15-2.431z" fill="url(#paint16_radial_1_6205)"/><path d="M101.64 24.832l-48.812-7.838 44.456 12.489c.773-.698 1.55-1.521 2.207-2.22.676-.714 1.478-1.577 2.149-2.431z" fill="url(#paint17_radial_1_6205)"/><path opacity=".3" d="M4.021 24.832l48.812-7.837L4.021 9.162c-.165 2.582-.17 5.282-.17 7.838 0 2.55.005 5.251.17 7.832z" fill="url(#paint18_radial_1_6205)"/><path opacity=".75" d="M8.377 4.511L52.833 17 97.289 4.51c-5.908-.16-11.826-.233-17.733-.29-8.908-.088-17.815-.124-26.723-.124-8.908 0-17.815.036-26.723.124-5.908.062-11.825.13-17.733.29z" fill="url(#paint19_radial_1_6205)"/><path opacity=".5" d="M101.64 9.162L52.828 17l48.812 7.838c.166-2.582.17-5.282.17-7.838 0-2.55-.004-5.256-.17-7.838z" fill="url(#paint20_radial_1_6205)"/><path opacity=".8" d="M97.284 29.483L52.828 16.994 8.373 29.483c5.907.16 11.825.233 17.732.29 8.908.087 17.815.124 26.723.124 8.908 0 17.815-.037 26.723-.124 5.908-.057 11.825-.13 17.733-.29z" fill="url(#paint21_radial_1_6205)"/><path opacity=".5" d="M12.972 23.4L52.828 17l-39.856-6.4v12.8z" fill="url(#paint22_radial_1_6205)"/><path d="M30.049 10.6l22.78 6.4 22.784-6.4H30.049z" fill="url(#paint23_radial_1_6205)"/><path opacity=".5" d="M92.689 10.6L52.829 17l39.86 6.4V10.6z" fill="url(#paint24_radial_1_6205)"/><path opacity=".7" d="M75.613 23.4L52.828 17l-22.78 6.4h45.565z" fill="url(#paint25_radial_1_6205)"/></g><path opacity=".65" fill-rule="evenodd" clip-rule="evenodd" d="M9.2 29.505L33.02 4.16c-2.306.015-4.605.036-6.91.057-2.854.03-5.708.062-8.562.103L3.855 18.889c.01 1.97.04 3.988.166 5.944.67.853 1.473 1.712 2.154 2.431.651.694 1.43 1.521 2.207 2.22.268.01.54.015.817.02z" fill="url(#paint26_radial_1_6205)"/><path opacity=".65" fill-rule="evenodd" clip-rule="evenodd" d="M45.866 4.107L21.783 29.732l4.327.046c.681.005 1.367.016 2.047.02L52.308 4.103c-2.149-.005-4.298 0-6.442.005z" fill="url(#paint27_radial_1_6205)"/><path opacity=".65" fill-rule="evenodd" clip-rule="evenodd" d="M89.003 4.34l-24 25.536c4.464-.015 8.922-.046 13.386-.087L99.778 7.03l-.282-.3c-.652-.694-1.43-1.522-2.207-2.22-2.762-.072-5.524-.13-8.286-.17z" fill="url(#paint28_radial_1_6205)"/><path fill-rule="evenodd" clip-rule="evenodd" d="M1.608 5.432L6.18 1.415 5.512 0 0 4.846l1.608.586z" fill="url(#paint29_radial_1_6205)"/><path fill-rule="evenodd" clip-rule="evenodd" d="M6.179 1.415h93.326L100.172 0H5.512l.667 1.415z" fill="url(#paint30_radial_1_6205)"/><path fill-rule="evenodd" clip-rule="evenodd" d="M99.505 1.415l4.569 4.017 1.61-.586L100.172 0l-.667 1.415z" fill="url(#paint31_radial_1_6205)"/><path fill-rule="evenodd" clip-rule="evenodd" d="M6.179 32.586l-4.57-4.018-1.61.586L5.513 34l.667-1.414z" fill="url(#paint32_radial_1_6205)"/><path fill-rule="evenodd" clip-rule="evenodd" d="M99.505 32.586H6.179L5.512 34h94.66l-.667-1.414z" fill="url(#paint33_radial_1_6205)"/><path fill-rule="evenodd" clip-rule="evenodd" d="M104.074 28.568l-4.569 4.018.667 1.414 5.512-4.846-1.61-.586z" fill="url(#paint34_radial_1_6205)"/><path fill-rule="evenodd" clip-rule="evenodd" d="M104.074 5.432v23.136l1.61.586V4.846l-1.61.586z" fill="url(#paint35_radial_1_6205)"/><path fill-rule="evenodd" clip-rule="evenodd" d="M1.608 28.568V5.432L0 4.846v24.308l1.608-.586z" fill="url(#paint36_radial_1_6205)"/><path fill-rule="evenodd" clip-rule="evenodd" d="M1.608 5.432v23.136l.967-.351V5.784l-.967-.352z" fill="url(#paint37_radial_1_6205)"/><path fill-rule="evenodd" clip-rule="evenodd" d="M6.578 31.736l-4.003-3.52-.967.352 4.57 4.018.4-.85z" fill="url(#paint38_radial_1_6205)"/><path fill-rule="evenodd" clip-rule="evenodd" d="M99.104 31.736H6.578l-.4.85h93.327l-.4-.85z" fill="url(#paint39_radial_1_6205)"/><path fill-rule="evenodd" clip-rule="evenodd" d="M103.109 28.217l-4.005 3.519.401.85 4.569-4.018-.965-.351z" fill="url(#paint40_radial_1_6205)"/><path fill-rule="evenodd" clip-rule="evenodd" d="M103.109 5.784v22.433l.965.351V5.432l-.965.352z" fill="url(#paint41_radial_1_6205)"/><path fill-rule="evenodd" clip-rule="evenodd" d="M2.575 5.784l4.003-3.52-.4-.849-4.57 4.017.967.352z" fill="url(#paint42_radial_1_6205)"/><path fill-rule="evenodd" clip-rule="evenodd" d="M6.578 2.264h92.526l.401-.849H6.179l.4.849z" fill="url(#paint43_radial_1_6205)"/><path fill-rule="evenodd" clip-rule="evenodd" d="M99.105 2.264l4.004 3.52.965-.352-4.569-4.017-.4.849z" fill="url(#paint44_radial_1_6205)"/><path fill-rule="evenodd" clip-rule="evenodd" d="M4.06 3.277l1.868-1.912-.36-1.248.695 1.104 44.948.194-44.957.16-2.193 1.702z" fill="url(#paint45_radial_1_6205)"/><path fill-rule="evenodd" clip-rule="evenodd" d="M101.621 30.724l-1.865 1.91.36 1.248-.697-1.103-44.946-.194 44.956-.16 2.192-1.701z" fill="url(#paint46_radial_1_6205)"/><defs><radialGradient id="paint0_radial_1_6205" cx="0" cy="0" r="1" gradientUnits="userSpaceOnUse" gradientTransform="matrix(39.4824 0 0 42.0095 -.766 6.787)"><stop stop-color="#72EF52"/><stop offset="1" stop-color="#20EC00"/></radialGradient><radialGradient id="paint1_radial_1_6205" cx="0" cy="0" r="1" gradientUnits="userSpaceOnUse" gradientTransform="matrix(27.4264 0 0 29.1819 4.154 1.35)"><stop stop-color="#99F77D"/><stop offset="1" stop-color="#1CC100"/></radialGradient><radialGradient id="paint2_radial_1_6205" cx="0" cy="0" r="1" gradientUnits="userSpaceOnUse" gradientTransform="matrix(71.9009 0 0 76.503 28.375 -39.777)"><stop stop-color="#D5EFC1"/><stop offset="1" stop-color="#4FEF2C"/></radialGradient><radialGradient id="paint3_radial_1_6205" cx="0" cy="0" r="1" gradientUnits="userSpaceOnUse" gradientTransform="matrix(67.2967 0 0 71.6041 102.794 -23.615)"><stop stop-color="#83EF65"/><stop offset="1" stop-color="#1CC100"/></radialGradient><radialGradient id="paint4_radial_1_6205" cx="0" cy="0" r="1" gradientUnits="userSpaceOnUse" gradientTransform="matrix(39.506 0 0 42.0346 104.677 -4.655)"><stop stop-color="#72EF52"/><stop offset="1" stop-color="#20EC00"/></radialGradient><radialGradient id="paint5_radial_1_6205" cx="0" cy="0" r="1" gradientUnits="userSpaceOnUse" gradientTransform="matrix(16.2155 0 0 17.2534 92.614 17.544)"><stop stop-color="#38EF12"/><stop offset="1" stop-color="#189600"/></radialGradient><radialGradient id="paint6_radial_1_6205" cx="0" cy="0" r="1" gradientUnits="userSpaceOnUse" gradientTransform="matrix(81.0635 0 0 86.252 27.006 -16.845)"><stop stop-color="#3BF715"/><stop offset="1" stop-color="#178C00"/></radialGradient><radialGradient id="paint7_radial_1_6205" cx="0" cy="0" r="1" gradientUnits="userSpaceOnUse" gradientTransform="matrix(25.23 0 0 26.8449 -4.055 21.365)"><stop stop-color="#7DEF5F"/><stop offset="1" stop-color="#1ED600"/></radialGradient><radialGradient id="paint8_radial_1_6205" cx="0" cy="0" r="1" gradientUnits="userSpaceOnUse" gradientTransform="matrix(74.5154 0 0 79.2849 52.83 31.74)"><stop stop-color="#83EF65"/><stop offset="1" stop-color="#00000A"/></radialGradient><radialGradient id="paint9_radial_1_6205" cx="0" cy="0" r="1" gradientUnits="userSpaceOnUse" gradientTransform="matrix(13.8203 0 0 14.7048 9.882 11.904)"><stop stop-color="#5BF738"/><stop offset="1" stop-color="#FFF8EF"/></radialGradient><radialGradient id="paint10_radial_1_6205" cx="0" cy="0" r="1" gradientUnits="userSpaceOnUse" gradientTransform="matrix(20.29 0 0 21.5886 103.902 10.357)"><stop stop-color="#4BC72C"/><stop offset="1" stop-color="#FFF8EF"/></radialGradient><radialGradient id="paint11_radial_1_6205" cx="0" cy="0" r="1" gradientUnits="userSpaceOnUse" gradientTransform="matrix(15.0213 0 0 15.9827 102.534 26.551)"><stop stop-color="#E5DB3D"/><stop offset="1" stop-color="#FFF8EF"/></radialGradient><radialGradient id="paint12_radial_1_6205" cx="0" cy="0" r="1" gradientUnits="userSpaceOnUse" gradientTransform="matrix(82.4771 0 0 87.7561 52.83 .503)"><stop stop-color="#48F723"/><stop offset="1" stop-color="#00000A"/></radialGradient><radialGradient id="paint14_radial_1_6205" cx="0" cy="0" r="1" gradientUnits="userSpaceOnUse" gradientTransform="matrix(100.373 0 0 106.797 54.59 17.306)"><stop stop-color="#8EF771"/><stop offset="1" stop-color="#00000A"/></radialGradient><radialGradient id="paint15_radial_1_6205" cx="0" cy="0" r="1" gradientUnits="userSpaceOnUse" gradientTransform="matrix(119.05 0 0 126.67 54.32 16.76)"><stop stop-color="#8EF771"/><stop offset="1" stop-color="#00000A"/></radialGradient><radialGradient id="paint16_radial_1_6205" cx="0" cy="0" r="1" gradientUnits="userSpaceOnUse" gradientTransform="matrix(62.7335 0 0 66.7488 6.42 28.154)"><stop stop-color="#8EF771"/><stop offset="1" stop-color="#00000A"/></radialGradient><radialGradient id="paint17_radial_1_6205" cx="0" cy="0" r="1" gradientUnits="userSpaceOnUse" gradientTransform="matrix(61.5037 0 0 65.4403 97.759 33.068)"><stop stop-color="#8EF771"/><stop offset="1" stop-color="#00000A"/></radialGradient><radialGradient id="paint18_radial_1_6205" cx="0" cy="0" r="1" gradientUnits="userSpaceOnUse" gradientTransform="matrix(31.2812 0 0 33.2834 3.885 9.174)"><stop stop-color="#71F750"/><stop offset="1" stop-color="#00000A"/></radialGradient><radialGradient id="paint19_radial_1_6205" cx="0" cy="0" r="1" gradientUnits="userSpaceOnUse" gradientTransform="matrix(85.8014 0 0 91.2931 48.219 -16.15)"><stop stop-color="#9AF77E"/><stop offset="1" stop-color="#00000A"/></radialGradient><radialGradient id="paint20_radial_1_6205" cx="0" cy="0" r="1" gradientUnits="userSpaceOnUse" gradientTransform="matrix(43.8525 0 0 46.6593 102.29 16.817)"><stop stop-color="#71F750"/><stop offset="1" stop-color="#00000A"/></radialGradient><radialGradient id="paint21_radial_1_6205" cx="0" cy="0" r="1" gradientUnits="userSpaceOnUse" gradientTransform="matrix(63.5806 0 0 67.6501 45.648 64.21)"><stop stop-color="#71F750"/><stop offset="1" stop-color="#00000A"/></radialGradient><radialGradient id="paint22_radial_1_6205" cx="0" cy="0" r="1" gradientUnits="userSpaceOnUse" gradientTransform="matrix(76.489 0 0 81.3847 13.233 9.72)"><stop stop-color="#7BEF5D"/><stop offset="1" stop-color="#00000A"/></radialGradient><radialGradient id="paint23_radial_1_6205" cx="0" cy="0" r="1" gradientUnits="userSpaceOnUse" gradientTransform="matrix(31.0748 0 0 33.0638 30.427 10.342)"><stop stop-color="#7BEF5D"/><stop offset="1" stop-color="#00000A"/></radialGradient><radialGradient id="paint24_radial_1_6205" cx="0" cy="0" r="1" gradientUnits="userSpaceOnUse" gradientTransform="matrix(32.5284 0 0 34.6105 92.086 10.266)"><stop stop-color="#A9EF90"/><stop offset="1" stop-color="#00000A"/></radialGradient><radialGradient id="paint25_radial_1_6205" cx="0" cy="0" r="1" gradientUnits="userSpaceOnUse" gradientTransform="matrix(45.6601 0 0 48.5826 76.945 24.323)"><stop stop-color="#7BEF5D"/><stop offset="1" stop-color="#00000A"/></radialGradient><radialGradient id="paint26_radial_1_6205" cx="0" cy="0" r="1" gradientUnits="userSpaceOnUse" gradientTransform="matrix(41.57 0 0 44.2308 11.853 -5.323)"><stop stop-color="#90EF74"/><stop offset="1" stop-color="#00000A"/></radialGradient><radialGradient id="paint27_radial_1_6205" cx="0" cy="0" r="1" gradientUnits="userSpaceOnUse" gradientTransform="matrix(48.7665 0 0 51.8878 40.513 -11.117)"><stop stop-color="#90EF74"/><stop offset="1" stop-color="#00000A"/></radialGradient><radialGradient id="paint28_radial_1_6205" cx="0" cy="0" r="1" gradientUnits="userSpaceOnUse" gradientTransform="matrix(62.7372 0 0 66.7527 73.019 -23.826)"><stop stop-color="#90EF74"/><stop offset="1" stop-color="#00000A"/></radialGradient><radialGradient id="paint29_radial_1_6205" cx="0" cy="0" r="1" gradientUnits="userSpaceOnUse" gradientTransform="matrix(21.9326 0 0 19.2812 7.03 1.316)"><stop stop-color="#FFF8C7"/><stop offset="1" stop-color="#FFC521"/></radialGradient><radialGradient id="paint30_radial_1_6205" cx="0" cy="0" r="1" gradientUnits="userSpaceOnUse" gradientTransform="matrix(120.333 0 0 105.786 6.34 -18.015)"><stop stop-color="#FFF8C7"/><stop offset="1" stop-color="#FFC521"/></radialGradient><radialGradient id="paint31_radial_1_6205" cx="0" cy="0" r="1" gradientUnits="userSpaceOnUse" gradientTransform="matrix(24.9281 0 0 21.9146 89.766 12.004)"><stop stop-color="#F90"/><stop offset="1" stop-color="#C44800"/></radialGradient><radialGradient id="paint32_radial_1_6205" cx="0" cy="0" r="1" gradientUnits="userSpaceOnUse" gradientTransform="matrix(18.8542 0 0 16.575 11.138 19.711)"><stop stop-color="#F90"/><stop offset="1" stop-color="#C44800"/></radialGradient><radialGradient id="paint33_radial_1_6205" cx="0" cy="0" r="1" gradientUnits="userSpaceOnUse" gradientTransform="matrix(81.7354 0 0 71.8547 46.526 23.932)"><stop stop-color="#F90"/><stop offset="1" stop-color="#C44800"/></radialGradient><radialGradient id="paint34_radial_1_6205" cx="0" cy="0" r="1" gradientUnits="userSpaceOnUse" gradientTransform="matrix(25.6775 0 0 22.5734 85.657 16.984)"><stop stop-color="#F90"/><stop offset="1" stop-color="#C44800"/></radialGradient><radialGradient id="paint35_radial_1_6205" cx="0" cy="0" r="1" gradientUnits="userSpaceOnUse" gradientTransform="matrix(37.0245 0 0 32.5487 128.608 18.99)"><stop stop-color="#F90"/><stop offset="1" stop-color="#C44800"/></radialGradient><radialGradient id="paint36_radial_1_6205" cx="0" cy="0" r="1" gradientUnits="userSpaceOnUse" gradientTransform="matrix(31.2718 0 0 27.4915 -14.205 7.86)"><stop stop-color="#FFEB68"/><stop offset="1" stop-color="#E67D2D"/></radialGradient><radialGradient id="paint37_radial_1_6205" cx="0" cy="0" r="1" gradientUnits="userSpaceOnUse" gradientTransform="matrix(31.3464 0 0 27.557 -11.157 14.42)"><stop stop-color="#F90"/><stop offset="1" stop-color="#C44800"/></radialGradient><radialGradient id="paint38_radial_1_6205" cx="0" cy="0" r="1" gradientUnits="userSpaceOnUse" gradientTransform="matrix(20.1786 0 0 17.7393 10.298 18.017)"><stop stop-color="#FFEB68"/><stop offset="1" stop-color="#E67D2D"/></radialGradient><radialGradient id="paint39_radial_1_6205" cx="0" cy="0" r="1" gradientUnits="userSpaceOnUse" gradientTransform="matrix(61.4053 0 0 53.982 87.333 37.542)"><stop stop-color="#FFF8C7"/><stop offset="1" stop-color="#FFC521"/></radialGradient><radialGradient id="paint40_radial_1_6205" cx="0" cy="0" r="1" gradientUnits="userSpaceOnUse" gradientTransform="matrix(32.3636 0 0 28.4512 97.062 26.2)"><stop stop-color="#FFF8C7"/><stop offset="1" stop-color="#FFC521"/></radialGradient><radialGradient id="paint41_radial_1_6205" cx="0" cy="0" r="1" gradientUnits="userSpaceOnUse" gradientTransform="matrix(32.7355 0 0 28.7781 98.644 15.526)"><stop stop-color="#FFEB68"/><stop offset="1" stop-color="#E67D2D"/></radialGradient><radialGradient id="paint42_radial_1_6205" cx="0" cy="0" r="1" gradientUnits="userSpaceOnUse" gradientTransform="matrix(17.8049 0 0 15.6525 13.317 11.781)"><stop stop-color="#F90"/><stop offset="1" stop-color="#C44800"/></radialGradient><radialGradient id="paint43_radial_1_6205" cx="0" cy="0" r="1" gradientUnits="userSpaceOnUse" gradientTransform="matrix(80.2627 0 0 70.56 116.77 12.159)"><stop stop-color="#F90"/><stop offset="1" stop-color="#C44800"/></radialGradient><radialGradient id="paint44_radial_1_6205" cx="0" cy="0" r="1" gradientUnits="userSpaceOnUse" gradientTransform="matrix(19.5619 0 0 17.1971 100.5 4.337)"><stop stop-color="#F90"/><stop offset="1" stop-color="#C44800"/></radialGradient><radialGradient id="paint45_radial_1_6205" cx="0" cy="0" r="1" gradientUnits="userSpaceOnUse" gradientTransform="matrix(62.1237 0 0 54.6137 11.122 1.476)"><stop stop-color="#FFF9CF"/><stop offset="1"/></radialGradient><radialGradient id="paint46_radial_1_6205" cx="0" cy="0" r="1" gradientUnits="userSpaceOnUse" gradientTransform="matrix(61.0676 0 0 53.6853 95.576 33.261)"><stop stop-color="#FFF9CF"/><stop offset="1"/></radialGradient><linearGradient id="paint13_linear_1_6205" x1="5.906" y1="6.3" x2="99.735" y2="25.197" gradientUnits="userSpaceOnUse"><stop stop-color="#66F72A"/><stop offset="1" stop-color="#1F8200"/></linearGradient></defs></svg>