<svg width="206" height="66" fill="none" xmlns="http://www.w3.org/2000/svg"><path fill-rule="evenodd" clip-rule="evenodd" d="M204.579 14.793c.312 3.676.529 10.454.529 18.207s-.208 14.532-.529 18.208c-1.095 1.646-3.379 4.388-6.163 7.35-2.784 2.963-5.371 5.394-6.909 6.559-17.962.522-51.072.873-88.948.873-37.877 0-70.987-.351-88.949-.873-1.547-1.166-4.124-3.596-6.909-6.558-2.784-2.963-5.068-5.715-6.163-7.351C.227 47.532.01 40.753.01 33c0-7.753.207-14.531.528-18.207 1.095-1.637 3.38-4.389 6.163-7.351 2.785-2.963 5.37-5.393 6.91-6.558C31.57.362 64.681.01 102.558.01c37.876 0 70.986.352 88.948.874 1.548 1.165 4.125 3.595 6.909 6.558 2.784 2.962 5.068 5.714 6.163 7.351z" fill="#125B00"/><path fill-rule="evenodd" clip-rule="evenodd" d="M7.475 33c0-4.951.01-10.194.33-15.215L.53 14.793C.217 18.468 0 25.247 0 33s.208 14.53.53 18.207l7.277-2.993c-.321-5.021-.33-10.263-.33-15.214z" fill="url(#paint0_radial_1_4338)"/><path fill-rule="evenodd" clip-rule="evenodd" d="M7.805 17.786c1.303-1.657 2.86-3.324 4.182-4.72 1.264-1.346 2.775-2.953 4.285-4.309L13.62.874c-1.548 1.165-4.125 3.595-6.91 6.558-2.784 2.962-5.068 5.714-6.163 7.351l7.258 3.003z" fill="url(#paint1_radial_1_4338)"/><path fill-rule="evenodd" clip-rule="evenodd" d="M16.262 8.757c11.468-.311 22.955-.452 34.423-.562a5253.95 5253.95 0 0151.874-.241c17.291 0 34.582.07 51.873.24 11.468.121 22.955.252 34.423.563l2.652-7.883C173.545.35 140.435 0 102.559 0 64.682 0 31.572.351 13.61.874l2.652 7.883z" fill="url(#paint2_radial_1_4338)"/><path fill-rule="evenodd" clip-rule="evenodd" d="M188.845 8.756c1.501 1.356 3.011 2.953 4.285 4.309 1.312 1.395 2.879 3.072 4.182 4.72l7.277-2.993c-1.095-1.637-3.379-4.389-6.164-7.351-2.784-2.963-5.37-5.393-6.909-6.558l-2.671 7.873z" fill="url(#paint3_radial_1_4338)"/><path fill-rule="evenodd" clip-rule="evenodd" d="M197.302 17.785c.321 5.011.33 10.254.33 15.215 0 4.95-.009 10.193-.33 15.214l7.277 2.993c.312-3.676.529-10.454.529-18.207s-.208-14.532-.529-18.207l-7.277 2.992z" fill="url(#paint4_radial_1_4338)"/><path fill-rule="evenodd" clip-rule="evenodd" d="M197.302 48.205c-1.302 1.657-2.86 3.324-4.181 4.72-1.265 1.345-2.775 2.952-4.285 4.308l2.652 7.883c1.548-1.165 4.125-3.595 6.909-6.557 2.784-2.963 5.069-5.715 6.163-7.352l-7.258-3.002z" fill="url(#paint5_radial_1_4338)"/><path fill-rule="evenodd" clip-rule="evenodd" d="M188.845 57.232c-11.468.312-22.954.452-34.422.563a5276.5 5276.5 0 01-51.874.24 5276.5 5276.5 0 01-51.874-.24c-11.468-.11-22.954-.251-34.422-.563L13.6 65.116c17.961.522 51.071.874 88.948.874 37.877 0 70.987-.352 88.948-.874l-2.652-7.884z" fill="url(#paint6_radial_1_4338)"/><path fill-rule="evenodd" clip-rule="evenodd" d="M16.263 57.233c-1.501-1.356-3.011-2.953-4.286-4.308-1.312-1.396-2.878-3.073-4.18-4.72L.518 51.197c1.095 1.647 3.38 4.389 6.163 7.351 2.785 2.963 5.371 5.393 6.91 6.558l2.67-7.873z" fill="url(#paint7_radial_1_4338)"/><path opacity=".5" fill-rule="evenodd" clip-rule="evenodd" d="M102.549 63.299c-47.655 0-86.296-2.712-86.296-6.056L13.6 65.127c17.961.522 51.071.873 88.948.873 37.877 0 70.987-.351 88.948-.873l-2.652-7.884c0 3.344-38.632 6.056-86.296 6.056z" fill="url(#paint8_radial_1_4338)"/><path fill-rule="evenodd" clip-rule="evenodd" d="M13.61.883C15.941 10.253 6.862 17.03.528 14.802l7.277 2.993c1.303-1.658 2.86-3.325 4.182-4.72 1.264-1.346 2.775-2.953 4.285-4.309L13.61.883z" fill="url(#paint9_radial_1_4338)"/><path fill-rule="evenodd" clip-rule="evenodd" d="M16.262 8.757c11.468-.311 22.955-.452 34.423-.562 17.291-.171 34.582-.241 51.874-.241 17.291 0 34.582.07 51.873.24l3.143.03c-46.418-.933-93.733-1.234-140.642-.37l-.529-.352a1545.34 1545.34 0 01-2.577-5.996c.529 2.2.585 3.786 1.114 5.986l-.142.693c-1.01 2.38-4.049 5.945-7.38 8.094l-.633.15c-1.972-.642-3.483-.672-5.455-1.315 1.85.904 3.586 1.818 5.436 2.722l.33.562c-.14 9.822-.15 19.523.01 29.023l-.32.583c-1.152.662-2.19 1.315-3.342 1.978 1.274-.341 2.492-.623 3.766-.964l.623.18c2.501 2.662 5.2 5.444 7.645 8.105l.17.673c-.255 1.064-.406 1.908-.67 3.013.481-1.005.982-1.848 1.463-2.852l.538-.342c19.972.452 45.786.472 65.73.191-8.788-.04-23.257-.12-32.044-.21-11.468-.111-22.955-.252-34.422-.563-1.501-1.356-3.011-2.953-4.285-4.309-1.312-1.396-2.88-3.073-4.182-4.72-.32-5.01-.33-10.253-.33-15.214 0-4.951.01-10.193.33-15.215 1.303-1.657 2.86-3.324 4.182-4.72 1.293-1.325 2.803-2.922 4.303-4.278z" fill="#FFE5A6"/><path fill-rule="evenodd" clip-rule="evenodd" d="M191.498.883c-2.332 9.37 6.748 16.148 13.081 13.919l-7.277 2.993c-1.302-1.658-2.86-3.325-4.181-4.72-1.265-1.346-2.775-2.953-4.285-4.309l2.662-7.883z" fill="url(#paint10_radial_1_4338)"/><path fill-rule="evenodd" clip-rule="evenodd" d="M191.498 65.116c-2.332-9.37 6.748-16.148 13.081-13.919l-7.277-2.992c-1.302 1.657-2.86 3.324-4.181 4.72-1.265 1.345-2.775 2.952-4.285 4.308l2.662 7.883z" fill="url(#paint11_radial_1_4338)"/><path fill-rule="evenodd" clip-rule="evenodd" d="M197.302 48.204c-1.302 1.657-2.86 3.324-4.181 4.72-1.265 1.346-2.775 2.953-4.285 4.308-11.468.312-22.955.452-34.422.563-6.891.07-13.781.12-20.671.16 18.141.08 36.301.06 54.479-.09l.519.362c.85 2.109 1.709 4.218 2.558 6.316-.613-2.169-1.227-4.328-1.84-6.497l.141-.673a205.097 205.097 0 017.589-8.305l.623-.16c1.623.501 3.237 1.003 4.861 1.505-1.511-.743-3.021-1.486-4.521-2.229l-.331-.562c.312-9.722.302-19.433.01-29.154l.321-.573c1.434-.743 2.869-1.496 4.303-2.239a1156.24 1156.24 0 01-4.606 1.516l-.613-.17c-2.18-2.44-4.634-4.71-7.041-6.95a110.199 110.199 0 012.916 3.013c1.312 1.396 2.879 3.073 4.182 4.72.321 5.011.33 10.253.33 15.215.009 4.95 0 10.193-.321 15.204z" fill="#CDFF71"/><path fill-rule="evenodd" clip-rule="evenodd" d="M13.61.894c.397.582 40.067 1.054 88.949 1.054 48.881 0 88.551-.472 88.948-1.054v-.01C173.545.36 140.435.01 102.559.01 64.672 0 31.562.351 13.61.894z" fill="url(#paint12_radial_1_4338)"/><path fill-rule="evenodd" clip-rule="evenodd" d="M7.806 48.205c1.302 1.657 2.86 3.324 4.18 4.72 1.266 1.345 2.776 2.952 4.286 4.308 11.468.311 22.954.452 34.422.562 17.291.171 34.583.241 51.874.241 17.291 0 34.583-.07 51.874-.24 11.468-.111 22.954-.252 34.422-.563 1.501-1.356 3.011-2.953 4.285-4.308 1.312-1.396 2.879-3.073 4.181-4.72.321-5.012.331-10.254.331-15.215 0-4.95-.01-10.193-.331-15.214-1.302-1.657-2.859-3.325-4.181-4.72-1.265-1.346-2.775-2.953-4.285-4.309-11.468-.311-22.954-.452-34.422-.562a5253.94 5253.94 0 00-51.874-.241c-17.291 0-34.582.07-51.874.24-11.468.121-22.954.252-34.422.563-1.5 1.356-3.01 2.953-4.285 4.309-1.312 1.396-2.879 3.073-4.181 4.72-.321 5.01-.33 10.253-.33 15.214s.009 10.203.33 15.215z" fill="url(#paint13_linear_1_4338)"/><g opacity=".5" fill-rule="evenodd" clip-rule="evenodd"><path opacity=".5" d="M7.806 17.785L102.558 33 16.262 8.757c-1.5 1.356-3.01 2.952-4.285 4.308-1.312 1.396-2.869 3.063-4.171 4.72z" fill="url(#paint14_radial_1_4338)"/><path opacity=".5" d="M197.302 17.785L102.549 33l86.296-24.243c1.501 1.356 3.011 2.952 4.285 4.308 1.312 1.396 2.87 3.063 4.172 4.72z" fill="url(#paint15_radial_1_4338)"/><path opacity=".75" d="M7.806 48.204l94.752-15.215-86.296 24.243c-1.5-1.356-3.01-2.952-4.285-4.308-1.312-1.386-2.869-3.063-4.171-4.72z" fill="url(#paint16_radial_1_4338)"/><path d="M197.302 48.204l-94.753-15.215 86.296 24.243c1.501-1.356 3.011-2.952 4.285-4.308 1.312-1.386 2.87-3.063 4.172-4.72z" fill="url(#paint17_radial_1_4338)"/><path opacity=".3" d="M7.806 48.204l94.753-15.214L7.806 17.785c-.321 5.011-.33 10.254-.33 15.215 0 4.95.009 10.193.33 15.204z" fill="url(#paint18_radial_1_4338)"/><path opacity=".75" d="M16.263 8.757L102.559 33l86.296-24.243c-11.468-.311-22.955-.452-34.422-.562a5254.39 5254.39 0 00-51.874-.241c-17.291 0-34.583.07-51.874.24-11.468.121-22.955.252-34.422.563z" fill="url(#paint19_radial_1_4338)"/><path opacity=".5" d="M197.302 17.785L102.549 33l94.753 15.214c.321-5.011.331-10.253.331-15.214 0-4.951-.01-10.204-.331-15.215z" fill="url(#paint20_radial_1_4338)"/><path opacity=".8" d="M188.845 57.232L102.549 32.99 16.253 57.232c11.468.311 22.954.452 34.422.563 17.291.17 34.583.24 51.874.24 17.291 0 34.583-.07 51.874-.24 11.468-.111 22.954-.252 34.422-.563z" fill="url(#paint21_radial_1_4338)"/><path opacity=".5" d="M25.182 45.422L102.549 33 25.182 20.577v24.845z" fill="url(#paint22_radial_1_4338)"/><path d="M58.33 20.577l44.219 12.422 44.229-12.422H58.33z" fill="url(#paint23_radial_1_4338)"/><path opacity=".5" d="M179.926 20.577l-77.377 12.422 77.377 12.423V20.577z" fill="url(#paint24_radial_1_4338)"/><path opacity=".7" d="M146.778 45.422L102.549 33 58.33 45.421h88.448z" fill="url(#paint25_radial_1_4338)"/></g><path opacity=".65" fill-rule="evenodd" clip-rule="evenodd" d="M17.858 57.273L64.097 8.074c-4.474.03-8.938.07-13.412.11-5.54.06-11.081.121-16.622.202L7.485 36.666c.019 3.826.075 7.742.32 11.539 1.303 1.657 2.86 3.324 4.182 4.72 1.265 1.345 2.775 2.952 4.285 4.308.52.02 1.048.03 1.586.04z" fill="url(#paint26_radial_1_4338)"/><path opacity=".65" fill-rule="evenodd" clip-rule="evenodd" d="M89.033 7.974l-46.748 49.74 8.4.091c1.321.01 2.652.03 3.973.04L101.54 7.964c-4.171-.01-8.343 0-12.506.01z" fill="url(#paint27_radial_1_4338)"/><path opacity=".65" fill-rule="evenodd" clip-rule="evenodd" d="M172.772 8.425l-46.589 49.57c8.665-.03 17.32-.09 25.984-.17l41.52-44.178-.547-.582c-1.265-1.346-2.775-2.952-4.285-4.308-5.361-.14-10.722-.251-16.083-.332z" fill="url(#paint28_radial_1_4338)"/><path fill-rule="evenodd" clip-rule="evenodd" d="M3.122 10.544l8.873-7.797L10.7 0 0 9.407l3.122 1.137z" fill="url(#paint29_radial_1_4338)"/><path fill-rule="evenodd" clip-rule="evenodd" d="M11.994 2.747h181.163L194.451 0H10.701l1.293 2.747z" fill="url(#paint30_radial_1_4338)"/><path fill-rule="evenodd" clip-rule="evenodd" d="M193.157 2.747l8.87 7.797 3.125-1.137L194.451 0l-1.294 2.747z" fill="url(#paint31_radial_1_4338)"/><path fill-rule="evenodd" clip-rule="evenodd" d="M11.995 63.255l-8.873-7.8L0 56.594 10.7 66l1.295-2.745z" fill="url(#paint32_radial_1_4338)"/><path fill-rule="evenodd" clip-rule="evenodd" d="M193.157 63.255H11.994L10.701 66h183.75l-1.294-2.745z" fill="url(#paint33_radial_1_4338)"/><path fill-rule="evenodd" clip-rule="evenodd" d="M202.027 55.456l-8.87 7.8L194.451 66l10.701-9.407-3.125-1.137z" fill="url(#paint34_radial_1_4338)"/><path fill-rule="evenodd" clip-rule="evenodd" d="M202.027 10.544v44.911l3.125 1.138V9.407l-3.125 1.137z" fill="url(#paint35_radial_1_4338)"/><path fill-rule="evenodd" clip-rule="evenodd" d="M3.122 55.455v-44.91L0 9.406v47.186l3.122-1.138z" fill="url(#paint36_radial_1_4338)"/><path fill-rule="evenodd" clip-rule="evenodd" d="M3.122 10.544v44.912L5 54.773V11.228l-1.877-.684z" fill="url(#paint37_radial_1_4338)"/><path fill-rule="evenodd" clip-rule="evenodd" d="M12.77 61.605l-7.771-6.831-1.877.681 8.873 7.8.775-1.65z" fill="url(#paint38_radial_1_4338)"/><path fill-rule="evenodd" clip-rule="evenodd" d="M192.379 61.605H12.769l-.775 1.65h181.163l-.778-1.65z" fill="url(#paint39_radial_1_4338)"/><path fill-rule="evenodd" clip-rule="evenodd" d="M200.153 54.774l-7.773 6.831.777 1.65 8.87-7.8-1.874-.681z" fill="url(#paint40_radial_1_4338)"/><path fill-rule="evenodd" clip-rule="evenodd" d="M200.153 11.228v43.546l1.874.681v-44.91l-1.874.683z" fill="url(#paint41_radial_1_4338)"/><path fill-rule="evenodd" clip-rule="evenodd" d="M4.999 11.228l7.77-6.834-.774-1.647-8.873 7.797L5 11.228z" fill="url(#paint42_radial_1_4338)"/><path fill-rule="evenodd" clip-rule="evenodd" d="M12.77 4.394h179.609l.778-1.647H11.994l.776 1.647z" fill="url(#paint43_radial_1_4338)"/><path fill-rule="evenodd" clip-rule="evenodd" d="M192.38 4.394l7.773 6.834 1.874-.684-8.87-7.797-.777 1.647z" fill="url(#paint44_radial_1_4338)"/><path fill-rule="evenodd" clip-rule="evenodd" d="M7.883 6.361l3.625-3.71-.7-2.423 1.35 2.143 87.251.376-87.268.31L7.883 6.36z" fill="url(#paint45_radial_1_4338)"/><path fill-rule="evenodd" clip-rule="evenodd" d="M197.266 59.64l-3.622 3.709.7 2.423-1.352-2.141-87.25-.376 87.268-.313 4.256-3.301z" fill="url(#paint46_radial_1_4338)"/><defs><radialGradient id="paint0_radial_1_4338" cx="0" cy="0" r="1" gradientUnits="userSpaceOnUse" gradientTransform="matrix(76.6423 0 0 81.5479 -1.487 13.175)"><stop stop-color="#72EF52"/><stop offset="1" stop-color="#20EC00"/></radialGradient><radialGradient id="paint1_radial_1_4338" cx="0" cy="0" r="1" gradientUnits="userSpaceOnUse" gradientTransform="matrix(53.2396 0 0 56.6472 8.063 2.622)"><stop stop-color="#99F77D"/><stop offset="1" stop-color="#1CC100"/></radialGradient><radialGradient id="paint2_radial_1_4338" cx="0" cy="0" r="1" gradientUnits="userSpaceOnUse" gradientTransform="matrix(139.572 0 0 148.506 55.08 -77.213)"><stop stop-color="#D5EFC1"/><stop offset="1" stop-color="#4FEF2C"/></radialGradient><radialGradient id="paint3_radial_1_4338" cx="0" cy="0" r="1" gradientUnits="userSpaceOnUse" gradientTransform="matrix(130.635 0 0 138.996 199.542 -45.841)"><stop stop-color="#83EF65"/><stop offset="1" stop-color="#1CC100"/></radialGradient><radialGradient id="paint4_radial_1_4338" cx="0" cy="0" r="1" gradientUnits="userSpaceOnUse" gradientTransform="matrix(76.6881 0 0 81.5967 203.197 -9.037)"><stop stop-color="#72EF52"/><stop offset="1" stop-color="#20EC00"/></radialGradient><radialGradient id="paint5_radial_1_4338" cx="0" cy="0" r="1" gradientUnits="userSpaceOnUse" gradientTransform="matrix(31.4772 0 0 33.492 179.782 34.056)"><stop stop-color="#38EF12"/><stop offset="1" stop-color="#189600"/></radialGradient><radialGradient id="paint6_radial_1_4338" cx="0" cy="0" r="1" gradientUnits="userSpaceOnUse" gradientTransform="matrix(157.358 0 0 167.43 52.425 -32.699)"><stop stop-color="#3BF715"/><stop offset="1" stop-color="#178C00"/></radialGradient><radialGradient id="paint7_radial_1_4338" cx="0" cy="0" r="1" gradientUnits="userSpaceOnUse" gradientTransform="matrix(48.9758 0 0 52.1106 -7.872 41.474)"><stop stop-color="#7DEF5F"/><stop offset="1" stop-color="#1ED600"/></radialGradient><radialGradient id="paint8_radial_1_4338" cx="0" cy="0" r="1" gradientUnits="userSpaceOnUse" gradientTransform="matrix(144.648 0 0 153.906 102.554 61.615)"><stop stop-color="#83EF65"/><stop offset="1" stop-color="#00000A"/></radialGradient><radialGradient id="paint9_radial_1_4338" cx="0" cy="0" r="1" gradientUnits="userSpaceOnUse" gradientTransform="matrix(26.8276 0 0 28.5447 19.184 23.108)"><stop stop-color="#5BF738"/><stop offset="1" stop-color="#FFF8EF"/></radialGradient><radialGradient id="paint10_radial_1_4338" cx="0" cy="0" r="1" gradientUnits="userSpaceOnUse" gradientTransform="matrix(39.3864 0 0 41.9074 201.692 20.106)"><stop stop-color="#4BC72C"/><stop offset="1" stop-color="#FFF8EF"/></radialGradient><radialGradient id="paint11_radial_1_4338" cx="0" cy="0" r="1" gradientUnits="userSpaceOnUse" gradientTransform="matrix(29.159 0 0 31.0253 199.036 51.54)"><stop stop-color="#E5DB3D"/><stop offset="1" stop-color="#FFF8EF"/></radialGradient><radialGradient id="paint12_radial_1_4338" cx="0" cy="0" r="1" gradientUnits="userSpaceOnUse" gradientTransform="matrix(160.103 0 0 170.35 102.554 .976)"><stop stop-color="#48F723"/><stop offset="1" stop-color="#00000A"/></radialGradient><radialGradient id="paint14_radial_1_4338" cx="0" cy="0" r="1" gradientUnits="userSpaceOnUse" gradientTransform="matrix(194.841 0 0 207.312 105.971 33.595)"><stop stop-color="#8EF771"/><stop offset="1" stop-color="#00000A"/></radialGradient><radialGradient id="paint15_radial_1_4338" cx="0" cy="0" r="1" gradientUnits="userSpaceOnUse" gradientTransform="matrix(231.098 0 0 245.889 105.444 32.535)"><stop stop-color="#8EF771"/><stop offset="1" stop-color="#00000A"/></radialGradient><radialGradient id="paint16_radial_1_4338" cx="0" cy="0" r="1" gradientUnits="userSpaceOnUse" gradientTransform="matrix(121.777 0 0 129.571 12.463 54.654)"><stop stop-color="#8EF771"/><stop offset="1" stop-color="#00000A"/></radialGradient><radialGradient id="paint17_radial_1_4338" cx="0" cy="0" r="1" gradientUnits="userSpaceOnUse" gradientTransform="matrix(119.39 0 0 127.031 189.767 64.19)"><stop stop-color="#8EF771"/><stop offset="1" stop-color="#00000A"/></radialGradient><radialGradient id="paint18_radial_1_4338" cx="0" cy="0" r="1" gradientUnits="userSpaceOnUse" gradientTransform="matrix(60.7223 0 0 64.6089 7.541 17.809)"><stop stop-color="#71F750"/><stop offset="1" stop-color="#00000A"/></radialGradient><radialGradient id="paint19_radial_1_4338" cx="0" cy="0" r="1" gradientUnits="userSpaceOnUse" gradientTransform="matrix(166.556 0 0 177.216 93.602 -31.351)"><stop stop-color="#9AF77E"/><stop offset="1" stop-color="#00000A"/></radialGradient><radialGradient id="paint20_radial_1_4338" cx="0" cy="0" r="1" gradientUnits="userSpaceOnUse" gradientTransform="matrix(85.1254 0 0 90.5739 198.563 32.645)"><stop stop-color="#71F750"/><stop offset="1" stop-color="#00000A"/></radialGradient><radialGradient id="paint21_radial_1_4338" cx="0" cy="0" r="1" gradientUnits="userSpaceOnUse" gradientTransform="matrix(123.421 0 0 131.321 88.61 124.642)"><stop stop-color="#71F750"/><stop offset="1" stop-color="#00000A"/></radialGradient><radialGradient id="paint22_radial_1_4338" cx="0" cy="0" r="1" gradientUnits="userSpaceOnUse" gradientTransform="matrix(148.479 0 0 157.982 25.689 18.868)"><stop stop-color="#7BEF5D"/><stop offset="1" stop-color="#00000A"/></radialGradient><radialGradient id="paint23_radial_1_4338" cx="0" cy="0" r="1" gradientUnits="userSpaceOnUse" gradientTransform="matrix(60.3217 0 0 64.1827 59.065 20.075)"><stop stop-color="#7BEF5D"/><stop offset="1" stop-color="#00000A"/></radialGradient><radialGradient id="paint24_radial_1_4338" cx="0" cy="0" r="1" gradientUnits="userSpaceOnUse" gradientTransform="matrix(63.1435 0 0 67.185 178.755 19.928)"><stop stop-color="#A9EF90"/><stop offset="1" stop-color="#00000A"/></radialGradient><radialGradient id="paint25_radial_1_4338" cx="0" cy="0" r="1" gradientUnits="userSpaceOnUse" gradientTransform="matrix(88.6342 0 0 94.3074 149.363 47.215)"><stop stop-color="#7BEF5D"/><stop offset="1" stop-color="#00000A"/></radialGradient><radialGradient id="paint26_radial_1_4338" cx="0" cy="0" r="1" gradientUnits="userSpaceOnUse" gradientTransform="matrix(80.6948 0 0 85.8598 23.01 -10.333)"><stop stop-color="#90EF74"/><stop offset="1" stop-color="#00000A"/></radialGradient><radialGradient id="paint27_radial_1_4338" cx="0" cy="0" r="1" gradientUnits="userSpaceOnUse" gradientTransform="matrix(94.6643 0 0 100.723 78.642 -21.58)"><stop stop-color="#90EF74"/><stop offset="1" stop-color="#00000A"/></radialGradient><radialGradient id="paint28_radial_1_4338" cx="0" cy="0" r="1" gradientUnits="userSpaceOnUse" gradientTransform="matrix(121.784 0 0 129.579 141.743 -46.25)"><stop stop-color="#90EF74"/><stop offset="1" stop-color="#00000A"/></radialGradient><radialGradient id="paint29_radial_1_4338" cx="0" cy="0" r="1" gradientUnits="userSpaceOnUse" gradientTransform="matrix(42.5751 0 0 37.4283 13.647 2.554)"><stop stop-color="#FFF8C7"/><stop offset="1" stop-color="#FFC521"/></radialGradient><radialGradient id="paint30_radial_1_4338" cx="0" cy="0" r="1" gradientUnits="userSpaceOnUse" gradientTransform="matrix(233.587 0 0 205.35 12.307 -34.97)"><stop stop-color="#FFF8C7"/><stop offset="1" stop-color="#FFC521"/></radialGradient><radialGradient id="paint31_radial_1_4338" cx="0" cy="0" r="1" gradientUnits="userSpaceOnUse" gradientTransform="matrix(48.3898 0 0 42.5401 174.251 23.302)"><stop stop-color="#F90"/><stop offset="1" stop-color="#C44800"/></radialGradient><radialGradient id="paint32_radial_1_4338" cx="0" cy="0" r="1" gradientUnits="userSpaceOnUse" gradientTransform="matrix(36.5994 0 0 32.175 21.622 38.264)"><stop stop-color="#F90"/><stop offset="1" stop-color="#C44800"/></radialGradient><radialGradient id="paint33_radial_1_4338" cx="0" cy="0" r="1" gradientUnits="userSpaceOnUse" gradientTransform="matrix(158.663 0 0 139.483 90.317 46.456)"><stop stop-color="#F90"/><stop offset="1" stop-color="#C44800"/></radialGradient><radialGradient id="paint34_radial_1_4338" cx="0" cy="0" r="1" gradientUnits="userSpaceOnUse" gradientTransform="matrix(49.8445 0 0 43.8189 166.276 32.97)"><stop stop-color="#F90"/><stop offset="1" stop-color="#C44800"/></radialGradient><radialGradient id="paint35_radial_1_4338" cx="0" cy="0" r="1" gradientUnits="userSpaceOnUse" gradientTransform="matrix(71.8711 0 0 63.1828 249.651 36.864)"><stop stop-color="#F90"/><stop offset="1" stop-color="#C44800"/></radialGradient><radialGradient id="paint36_radial_1_4338" cx="0" cy="0" r="1" gradientUnits="userSpaceOnUse" gradientTransform="matrix(60.7042 0 0 53.3658 -27.573 15.258)"><stop stop-color="#FFEB68"/><stop offset="1" stop-color="#E67D2D"/></radialGradient><radialGradient id="paint37_radial_1_4338" cx="0" cy="0" r="1" gradientUnits="userSpaceOnUse" gradientTransform="matrix(60.849 0 0 53.4931 -21.656 27.992)"><stop stop-color="#F90"/><stop offset="1" stop-color="#C44800"/></radialGradient><radialGradient id="paint38_radial_1_4338" cx="0" cy="0" r="1" gradientUnits="userSpaceOnUse" gradientTransform="matrix(39.1703 0 0 34.4351 19.992 34.975)"><stop stop-color="#FFEB68"/><stop offset="1" stop-color="#E67D2D"/></radialGradient><radialGradient id="paint39_radial_1_4338" cx="0" cy="0" r="1" gradientUnits="userSpaceOnUse" gradientTransform="matrix(119.198 0 0 104.789 169.53 72.875)"><stop stop-color="#FFF8C7"/><stop offset="1" stop-color="#FFC521"/></radialGradient><radialGradient id="paint40_radial_1_4338" cx="0" cy="0" r="1" gradientUnits="userSpaceOnUse" gradientTransform="matrix(62.8234 0 0 55.2289 188.415 50.858)"><stop stop-color="#FFF8C7"/><stop offset="1" stop-color="#FFC521"/></radialGradient><radialGradient id="paint41_radial_1_4338" cx="0" cy="0" r="1" gradientUnits="userSpaceOnUse" gradientTransform="matrix(63.5454 0 0 55.8634 191.487 30.139)"><stop stop-color="#FFEB68"/><stop offset="1" stop-color="#E67D2D"/></radialGradient><radialGradient id="paint42_radial_1_4338" cx="0" cy="0" r="1" gradientUnits="userSpaceOnUse" gradientTransform="matrix(34.5624 0 0 30.3842 25.851 22.87)"><stop stop-color="#F90"/><stop offset="1" stop-color="#C44800"/></radialGradient><radialGradient id="paint43_radial_1_4338" cx="0" cy="0" r="1" gradientUnits="userSpaceOnUse" gradientTransform="matrix(155.804 0 0 136.969 226.672 23.603)"><stop stop-color="#F90"/><stop offset="1" stop-color="#C44800"/></radialGradient><radialGradient id="paint44_radial_1_4338" cx="0" cy="0" r="1" gradientUnits="userSpaceOnUse" gradientTransform="matrix(37.973 0 0 33.3826 195.088 8.418)"><stop stop-color="#F90"/><stop offset="1" stop-color="#C44800"/></radialGradient><radialGradient id="paint45_radial_1_4338" cx="0" cy="0" r="1" gradientUnits="userSpaceOnUse" gradientTransform="matrix(120.593 0 0 106.015 21.59 2.865)"><stop stop-color="#FFF9CF"/><stop offset="1"/></radialGradient><radialGradient id="paint46_radial_1_4338" cx="0" cy="0" r="1" gradientUnits="userSpaceOnUse" gradientTransform="matrix(118.543 0 0 104.213 185.53 64.567)"><stop stop-color="#FFF9CF"/><stop offset="1"/></radialGradient><linearGradient id="paint13_linear_1_4338" x1="11.465" y1="12.23" x2="193.604" y2="48.911" gradientUnits="userSpaceOnUse"><stop stop-color="#66F72A"/><stop offset="1" stop-color="#1F8200"/></linearGradient></defs></svg>