<svg width="465" height="190" fill="none" xmlns="http://www.w3.org/2000/svg"><g filter="url(#filter0_d_1_1830)" fill-rule="evenodd" clip-rule="evenodd"><path d="M432.959 59.137C433.572 66.377 434 79.729 434 95s-.409 28.623-1.041 35.862c-2.157 3.245-6.656 8.645-12.14 14.48-5.484 5.835-10.578 10.622-13.609 12.917-35.378 1.029-100.595 1.721-175.201 1.721-74.605 0-139.822-.692-175.2-1.721-3.05-2.295-8.125-7.082-13.61-12.917-5.484-5.835-9.983-11.255-12.14-14.48-.613-7.239-1.04-20.591-1.04-35.862s.409-28.623 1.04-35.863c2.157-3.224 6.656-8.644 12.14-14.48 5.485-5.835 10.579-10.622 13.61-12.916 35.378-1.03 100.595-1.721 175.2-1.721 74.606 0 139.823.692 175.201 1.72 3.049 2.295 8.125 7.082 13.609 12.917 5.484 5.836 9.983 11.256 12.14 14.48z" fill="#125B00"/><path d="M44.724 95c0-9.752.019-20.078.65-29.969l-14.333-5.894C30.428 66.377 30 79.729 30 94.999c0 15.271.409 28.623 1.041 35.863l14.334-5.895c-.632-9.89-.651-20.216-.651-29.968z" fill="url(#paint0_radial_1_1830)"/><path d="M45.375 65.032c2.565-3.264 5.633-6.547 8.236-9.297 2.49-2.65 5.465-5.815 8.44-8.486l-5.224-15.528c-3.05 2.295-8.124 7.082-13.609 12.917-5.484 5.836-9.983 11.255-12.14 14.48l14.297 5.914z" fill="url(#paint1_radial_1_1830)"/><path d="M62.032 47.249c22.588-.613 45.213-.89 67.801-1.108 34.059-.336 68.118-.474 102.176-.474 34.059 0 68.118.138 102.176.474 22.588.238 45.213.495 67.801 1.108l5.224-15.528C371.832 30.692 306.615 30 232.009 30c-74.605 0-139.822.692-175.2 1.72l5.223 15.529z" fill="url(#paint2_radial_1_1830)"/><path d="M401.968 47.248c2.956 2.67 5.93 5.816 8.44 8.486 2.584 2.75 5.67 6.053 8.236 9.297l14.333-5.895c-2.156-3.224-6.655-8.644-12.139-14.48-5.485-5.835-10.579-10.622-13.609-12.916l-5.261 15.508z" fill="url(#paint3_radial_1_1830)"/><path d="M418.625 65.031c.632 9.871.651 20.197.651 29.968 0 9.752-.019 20.078-.651 29.968l14.334 5.895C433.572 123.622 434 110.27 434 95c0-15.271-.409-28.624-1.041-35.863l-14.334 5.894z" fill="url(#paint4_radial_1_1830)"/><path d="M418.625 124.948c-2.565 3.264-5.633 6.547-8.236 9.297-2.491 2.65-5.465 5.815-8.44 8.486l5.224 15.528c3.049-2.295 8.124-7.082 13.609-12.917 5.484-5.836 9.983-11.255 12.14-14.48l-14.297-5.914z" fill="url(#paint5_radial_1_1830)"/><path d="M401.968 142.731c-22.588.614-45.213.891-67.801 1.108-34.059.336-68.118.475-102.176.475-34.059 0-68.118-.139-102.176-.475-22.588-.217-45.213-.494-67.801-1.108l-5.224 15.528c35.378 1.029 100.595 1.721 175.201 1.721 74.605 0 139.822-.692 175.201-1.721l-5.224-15.528z" fill="url(#paint6_radial_1_1830)"/><path d="M62.032 142.731c-2.956-2.671-5.93-5.816-8.44-8.486-2.584-2.75-5.67-6.053-8.236-9.297l-14.334 5.894c2.157 3.245 6.656 8.645 12.14 14.48 5.485 5.835 10.579 10.622 13.609 12.917l5.261-15.508z" fill="url(#paint7_radial_1_1830)"/><path opacity=".5" d="M231.991 154.679c-93.866 0-169.977-5.341-169.977-11.928l-5.224 15.528C92.168 159.308 157.385 160 231.99 160c74.605 0 139.822-.692 175.201-1.721l-5.224-15.528c0 6.587-76.093 11.928-169.977 11.928z" fill="url(#paint8_radial_1_1830)"/><path d="M56.808 31.74C61.4 50.195 43.516 63.547 31.041 59.156l14.334 5.895c2.565-3.264 5.633-6.548 8.236-9.297 2.49-2.65 5.465-5.816 8.44-8.486L56.808 31.74z" fill="url(#paint9_radial_1_1830)"/><path d="M62.032 47.25c22.588-.614 45.213-.891 67.801-1.109 34.059-.336 68.118-.474 102.176-.474 34.059 0 68.118.138 102.176.474l6.191.06c-91.43-1.84-184.627-2.433-277.024-.732l-1.04-.693a2934.19 2934.19 0 01-5.076-11.809c1.04 4.332 1.152 7.458 2.194 11.79l-.28 1.365c-1.989 4.688-7.975 11.71-14.538 15.943l-1.245.297c-3.886-1.266-6.86-1.326-10.746-2.592 3.644 1.78 7.065 3.58 10.709 5.361l.65 1.108c-.278 19.345-.297 38.454.019 57.167l-.632 1.147c-2.268 1.305-4.313 2.591-6.581 3.897 2.51-.673 4.908-1.227 7.417-1.899l1.227.356c4.927 5.242 10.244 10.721 15.06 15.963l.334 1.325c-.502 2.097-.8 3.759-1.32 5.934.948-1.978 1.933-3.639 2.882-5.617l1.06-.673c39.338.89 90.184.93 129.467.376-17.309-.079-45.809-.237-63.117-.415-22.588-.218-45.213-.495-67.801-1.108-2.956-2.671-5.93-5.816-8.44-8.486-2.584-2.75-5.67-6.053-8.236-9.297-.632-9.871-.65-20.196-.65-29.968 0-9.752.018-20.078.65-29.968 2.566-3.264 5.633-6.548 8.236-9.297 2.547-2.611 5.521-5.757 8.477-8.427z" fill="#FFE5A6"/><path d="M407.192 31.74c-4.592 18.455 13.292 31.807 25.767 27.416l-14.334 5.895c-2.565-3.264-5.633-6.548-8.236-9.297-2.491-2.65-5.465-5.816-8.44-8.486l5.243-15.528z" fill="url(#paint10_radial_1_1830)"/><path d="M407.192 158.259c-4.592-18.456 13.292-31.808 25.767-27.417l-14.334-5.894c-2.565 3.264-5.633 6.547-8.236 9.297-2.491 2.65-5.465 5.815-8.44 8.486l5.243 15.528z" fill="url(#paint11_radial_1_1830)"/><path d="M418.625 124.947c-2.565 3.264-5.633 6.548-8.235 9.297-2.492 2.651-5.466 5.816-8.441 8.486-22.588.614-45.213.891-67.801 1.108-13.571.139-27.143.238-40.714.317 35.732.158 71.501.118 107.307-.178l1.022.712c1.674 4.154 3.365 8.308 5.038 12.442-1.208-4.273-2.416-8.526-3.625-12.798l.279-1.326c4.852-5.598 9.816-11.057 14.947-16.358l1.227-.317c3.198.989 6.377 1.978 9.575 2.967-2.975-1.464-5.95-2.927-8.905-4.391l-.651-1.108c.613-19.148.595-38.276.018-57.424l.633-1.127c2.825-1.464 5.651-2.948 8.477-4.411a2363.582 2363.582 0 01-9.072 2.986l-1.209-.336c-4.294-4.807-9.128-9.277-13.869-13.688 2.027 1.998 3.997 4.075 5.745 5.934 2.584 2.75 5.67 6.053 8.236 9.297.632 9.87.65 20.196.65 29.968.019 9.752 0 20.078-.632 29.948z" fill="#CDFF71"/><path d="M56.808 31.76c.781 1.148 78.919 2.078 175.201 2.078 96.283 0 174.421-.93 175.201-2.077v-.02c-35.378-1.029-100.595-1.721-175.201-1.721-74.624-.02-139.84.672-175.2 1.74z" fill="url(#paint12_radial_1_1830)"/><path d="M45.375 124.949c2.565 3.264 5.633 6.548 8.236 9.297 2.49 2.651 5.465 5.816 8.44 8.486 22.588.613 45.213.89 67.801 1.108 34.059.336 68.117.475 102.176.475s68.117-.139 102.176-.475c22.588-.218 45.213-.495 67.801-1.108 2.956-2.67 5.931-5.816 8.44-8.486 2.584-2.749 5.671-6.053 8.236-9.297.632-9.871.651-20.196.651-29.968 0-9.752-.019-20.078-.651-29.968-2.565-3.264-5.633-6.548-8.236-9.297-2.491-2.65-5.465-5.816-8.44-8.486-22.588-.613-45.213-.89-67.801-1.108-34.059-.336-68.117-.474-102.176-.474s-68.117.138-102.176.474c-22.588.238-45.213.495-67.801 1.108-2.956 2.67-5.93 5.816-8.44 8.486-2.585 2.75-5.67 6.053-8.236 9.297-.632 9.87-.65 20.196-.65 29.968 0 9.772.018 20.097.65 29.968z" fill="url(#paint13_linear_1_1830)"/><g opacity=".5"><path opacity=".5" d="M45.375 65.031L232.009 95 62.032 47.248c-2.956 2.671-5.93 5.816-8.44 8.486-2.584 2.75-5.652 6.034-8.217 9.297z" fill="url(#paint14_radial_1_1830)"/><path opacity=".5" d="M418.625 65.031L231.991 95l169.977-47.752c2.956 2.671 5.93 5.816 8.44 8.486 2.584 2.75 5.652 6.034 8.217 9.297z" fill="url(#paint15_radial_1_1830)"/><path opacity=".75" d="M45.375 124.948L232.009 94.98 62.032 142.73c-2.956-2.671-5.93-5.816-8.44-8.486-2.584-2.73-5.652-6.034-8.217-9.297z" fill="url(#paint16_radial_1_1830)"/><path d="M418.625 124.948L231.991 94.98l169.977 47.751c2.956-2.671 5.93-5.816 8.44-8.486 2.584-2.73 5.652-6.034 8.217-9.297z" fill="url(#paint17_radial_1_1830)"/><path opacity=".3" d="M45.375 124.948L232.009 94.98 45.375 65.032c-.632 9.87-.65 20.196-.65 29.968 0 9.752.018 20.077.65 29.948z" fill="url(#paint18_radial_1_1830)"/><path opacity=".75" d="M62.032 47.248L232.01 95l169.977-47.752c-22.588-.613-45.213-.89-67.801-1.107-34.058-.337-68.117-.475-102.176-.475-34.058 0-68.117.139-102.176.475-22.588.237-45.213.494-67.8 1.108z" fill="url(#paint19_radial_1_1830)"/><path opacity=".5" d="M418.625 65.032L231.991 95l186.634 29.968c.632-9.871.651-20.196.651-29.968 0-9.752-.019-20.098-.651-29.968z" fill="url(#paint20_radial_1_1830)"/><path opacity=".8" d="M401.968 142.731L231.991 94.98 62.014 142.73c22.588.613 45.213.89 67.801 1.107 34.058.337 68.117.475 102.176.475 34.058 0 68.117-.138 102.176-.475 22.588-.217 45.213-.494 67.801-1.107z" fill="url(#paint21_radial_1_1830)"/><path opacity=".5" d="M79.6 119.468l152.391-24.469L79.601 70.53v48.938z" fill="url(#paint22_radial_1_1830)"/><path d="M144.892 70.53L231.991 95l87.117-24.47H144.892z" fill="url(#paint23_radial_1_1830)"/><path opacity=".5" d="M384.399 70.53L231.991 95l152.408 24.468V70.53z" fill="url(#paint24_radial_1_1830)"/><path opacity=".7" d="M319.108 119.468l-87.117-24.469-87.099 24.469h174.216z" fill="url(#paint25_radial_1_1830)"/></g><path opacity=".65" d="M65.174 142.81l91.077-96.906c-8.812.06-17.605.138-26.418.217-10.912.12-21.825.238-32.738.396L44.743 102.22c.037 7.537.148 15.251.632 22.728 2.565 3.264 5.633 6.548 8.236 9.297 2.49 2.651 5.465 5.816 8.44 8.486 1.022.04 2.063.06 3.123.079z" fill="url(#paint26_radial_1_1830)"/><path opacity=".65" d="M205.368 45.706l-92.081 97.974 16.546.178c2.603.02 5.224.06 7.827.08l92.341-98.252c-8.217-.02-16.434 0-24.633.02z" fill="url(#paint27_radial_1_1830)"/><path opacity=".65" d="M370.307 46.596l-91.765 97.638c17.067-.059 34.115-.178 51.181-.336l81.782-87.016-1.078-1.148c-2.492-2.65-5.466-5.815-8.441-8.486a2819.522 2819.522 0 00-31.679-.652z" fill="url(#paint28_radial_1_1830)"/><path d="M36.15 50.77l17.476-15.36L51.077 30 30 48.53l6.15 2.24z" fill="url(#paint29_radial_1_1830)"/><path d="M53.626 35.411H410.46L413.01 30H51.077l2.549 5.411z" fill="url(#paint30_radial_1_1830)"/><path d="M410.461 35.411l17.471 15.358 6.155-2.24L413.01 30l-2.549 5.411z" fill="url(#paint31_radial_1_1830)"/><path d="M53.626 154.593L36.15 139.23 30 141.471 51.077 160l2.549-5.407z" fill="url(#paint32_radial_1_1830)"/><path d="M410.461 154.593H53.625L51.077 160H413.01l-2.549-5.407z" fill="url(#paint33_radial_1_1830)"/><path d="M427.932 139.23l-17.471 15.363L413.01 160l21.077-18.529-6.155-2.241z" fill="url(#paint34_radial_1_1830)"/><path d="M427.932 50.77v88.46l6.155 2.241V48.529l-6.155 2.24z" fill="url(#paint35_radial_1_1830)"/><path d="M36.15 139.23V50.77L30 48.528v92.942l6.15-2.241z" fill="url(#paint36_radial_1_1830)"/><path d="M36.15 50.77v88.461l3.696-1.343V52.116L36.15 50.77z" fill="url(#paint37_radial_1_1830)"/><path d="M55.152 151.344l-15.306-13.456-3.696 1.343 17.476 15.363 1.526-3.25z" fill="url(#paint38_radial_1_1830)"/><path d="M408.929 151.344H55.152l-1.526 3.249H410.46l-1.532-3.249z" fill="url(#paint39_radial_1_1830)"/><path d="M424.241 137.888l-15.312 13.456 1.532 3.25 17.471-15.363-3.691-1.343z" fill="url(#paint40_radial_1_1830)"/><path d="M424.241 52.117v85.771l3.691 1.343V50.769l-3.691 1.348z" fill="url(#paint41_radial_1_1830)"/><path d="M39.846 52.116l15.306-13.46-1.526-3.245L36.15 50.769l3.696 1.347z" fill="url(#paint42_radial_1_1830)"/><path d="M55.152 38.655H408.93l1.532-3.244H53.625l1.527 3.244z" fill="url(#paint43_radial_1_1830)"/><path d="M408.929 38.655l15.312 13.461 3.691-1.347-17.471-15.358-1.532 3.244z" fill="url(#paint44_radial_1_1830)"/><path d="M45.527 42.53l7.14-7.309-1.38-4.772 2.66 4.221 171.86.74-171.892.612-8.388 6.508z" fill="url(#paint45_radial_1_1830)"/><path d="M418.554 147.474l-7.134 7.304 1.379 4.773-2.664-4.217-171.855-.741 171.892-.615 8.382-6.504z" fill="url(#paint46_radial_1_1830)"/></g><defs><radialGradient id="paint0_radial_1_1830" cx="0" cy="0" r="1" gradientUnits="userSpaceOnUse" gradientTransform="matrix(150.962 0 0 160.625 27.071 55.95)"><stop stop-color="#72EF52"/><stop offset="1" stop-color="#20EC00"/></radialGradient><radialGradient id="paint1_radial_1_1830" cx="0" cy="0" r="1" gradientUnits="userSpaceOnUse" gradientTransform="matrix(104.866 0 0 111.578 45.882 35.165)"><stop stop-color="#99F77D"/><stop offset="1" stop-color="#1CC100"/></radialGradient><radialGradient id="paint2_radial_1_1830" cx="0" cy="0" r="1" gradientUnits="userSpaceOnUse" gradientTransform="matrix(274.915 0 0 292.512 138.492 -122.087)"><stop stop-color="#D5EFC1"/><stop offset="1" stop-color="#4FEF2C"/></radialGradient><radialGradient id="paint3_radial_1_1830" cx="0" cy="0" r="1" gradientUnits="userSpaceOnUse" gradientTransform="matrix(257.311 0 0 273.78 423.036 -60.293)"><stop stop-color="#83EF65"/><stop offset="1" stop-color="#1CC100"/></radialGradient><radialGradient id="paint4_radial_1_1830" cx="0" cy="0" r="1" gradientUnits="userSpaceOnUse" gradientTransform="matrix(151.052 0 0 160.721 430.238 12.2)"><stop stop-color="#72EF52"/><stop offset="1" stop-color="#20EC00"/></radialGradient><radialGradient id="paint5_radial_1_1830" cx="0" cy="0" r="1" gradientUnits="userSpaceOnUse" gradientTransform="matrix(62.0006 0 0 65.9691 384.115 97.08)"><stop stop-color="#38EF12"/><stop offset="1" stop-color="#189600"/></radialGradient><radialGradient id="paint6_radial_1_1830" cx="0" cy="0" r="1" gradientUnits="userSpaceOnUse" gradientTransform="matrix(309.949 0 0 329.787 133.261 -34.405)"><stop stop-color="#3BF715"/><stop offset="1" stop-color="#178C00"/></radialGradient><radialGradient id="paint7_radial_1_1830" cx="0" cy="0" r="1" gradientUnits="userSpaceOnUse" gradientTransform="matrix(96.4675 0 0 102.642 14.495 111.69)"><stop stop-color="#7DEF5F"/><stop offset="1" stop-color="#1ED600"/></radialGradient><radialGradient id="paint8_radial_1_1830" cx="0" cy="0" r="1" gradientUnits="userSpaceOnUse" gradientTransform="matrix(284.912 0 0 303.148 232 151.361)"><stop stop-color="#83EF65"/><stop offset="1" stop-color="#00000A"/></radialGradient><radialGradient id="paint9_radial_1_1830" cx="0" cy="0" r="1" gradientUnits="userSpaceOnUse" gradientTransform="matrix(52.8422 0 0 56.2244 67.788 75.518)"><stop stop-color="#5BF738"/><stop offset="1" stop-color="#FFF8EF"/></radialGradient><radialGradient id="paint10_radial_1_1830" cx="0" cy="0" r="1" gradientUnits="userSpaceOnUse" gradientTransform="matrix(77.5793 0 0 82.5448 427.272 69.604)"><stop stop-color="#4BC72C"/><stop offset="1" stop-color="#FFF8EF"/></radialGradient><radialGradient id="paint11_radial_1_1830" cx="0" cy="0" r="1" gradientUnits="userSpaceOnUse" gradientTransform="matrix(57.4343 0 0 61.1105 422.041 131.519)"><stop stop-color="#E5DB3D"/><stop offset="1" stop-color="#FFF8EF"/></radialGradient><radialGradient id="paint12_radial_1_1830" cx="0" cy="0" r="1" gradientUnits="userSpaceOnUse" gradientTransform="matrix(315.354 0 0 335.538 232 31.922)"><stop stop-color="#48F723"/><stop offset="1" stop-color="#00000A"/></radialGradient><radialGradient id="paint14_radial_1_1830" cx="0" cy="0" r="1" gradientUnits="userSpaceOnUse" gradientTransform="matrix(383.778 0 0 408.342 238.731 96.172)"><stop stop-color="#8EF771"/><stop offset="1" stop-color="#00000A"/></radialGradient><radialGradient id="paint15_radial_1_1830" cx="0" cy="0" r="1" gradientUnits="userSpaceOnUse" gradientTransform="matrix(455.193 0 0 484.328 237.693 94.085)"><stop stop-color="#8EF771"/><stop offset="1" stop-color="#00000A"/></radialGradient><radialGradient id="paint16_radial_1_1830" cx="0" cy="0" r="1" gradientUnits="userSpaceOnUse" gradientTransform="matrix(239.863 0 0 255.216 54.548 137.652)"><stop stop-color="#8EF771"/><stop offset="1" stop-color="#00000A"/></radialGradient><radialGradient id="paint17_radial_1_1830" cx="0" cy="0" r="1" gradientUnits="userSpaceOnUse" gradientTransform="matrix(235.161 0 0 250.213 403.784 156.437)"><stop stop-color="#8EF771"/><stop offset="1" stop-color="#00000A"/></radialGradient><radialGradient id="paint18_radial_1_1830" cx="0" cy="0" r="1" gradientUnits="userSpaceOnUse" gradientTransform="matrix(119.605 0 0 127.26 44.854 65.078)"><stop stop-color="#71F750"/><stop offset="1" stop-color="#00000A"/></radialGradient><radialGradient id="paint19_radial_1_1830" cx="0" cy="0" r="1" gradientUnits="userSpaceOnUse" gradientTransform="matrix(328.064 0 0 349.062 214.367 -31.752)"><stop stop-color="#9AF77E"/><stop offset="1" stop-color="#00000A"/></radialGradient><radialGradient id="paint20_radial_1_1830" cx="0" cy="0" r="1" gradientUnits="userSpaceOnUse" gradientTransform="matrix(167.671 0 0 178.403 421.108 94.3)"><stop stop-color="#71F750"/><stop offset="1" stop-color="#00000A"/></radialGradient><radialGradient id="paint21_radial_1_1830" cx="0" cy="0" r="1" gradientUnits="userSpaceOnUse" gradientTransform="matrix(243.102 0 0 258.662 204.536 275.508)"><stop stop-color="#71F750"/><stop offset="1" stop-color="#00000A"/></radialGradient><radialGradient id="paint22_radial_1_1830" cx="0" cy="0" r="1" gradientUnits="userSpaceOnUse" gradientTransform="matrix(292.458 0 0 311.177 80.599 67.165)"><stop stop-color="#7BEF5D"/><stop offset="1" stop-color="#00000A"/></radialGradient><radialGradient id="paint23_radial_1_1830" cx="0" cy="0" r="1" gradientUnits="userSpaceOnUse" gradientTransform="matrix(118.816 0 0 126.42 146.339 69.542)"><stop stop-color="#7BEF5D"/><stop offset="1" stop-color="#00000A"/></radialGradient><radialGradient id="paint24_radial_1_1830" cx="0" cy="0" r="1" gradientUnits="userSpaceOnUse" gradientTransform="matrix(124.373 0 0 132.334 382.094 69.252)"><stop stop-color="#A9EF90"/><stop offset="1" stop-color="#00000A"/></radialGradient><radialGradient id="paint25_radial_1_1830" cx="0" cy="0" r="1" gradientUnits="userSpaceOnUse" gradientTransform="matrix(174.583 0 0 185.757 324.2 123)"><stop stop-color="#7BEF5D"/><stop offset="1" stop-color="#00000A"/></radialGradient><radialGradient id="paint26_radial_1_1830" cx="0" cy="0" r="1" gradientUnits="userSpaceOnUse" gradientTransform="matrix(158.944 0 0 169.118 75.322 9.647)"><stop stop-color="#90EF74"/><stop offset="1" stop-color="#00000A"/></radialGradient><radialGradient id="paint27_radial_1_1830" cx="0" cy="0" r="1" gradientUnits="userSpaceOnUse" gradientTransform="matrix(186.46 0 0 198.395 184.9 -12.507)"><stop stop-color="#90EF74"/><stop offset="1" stop-color="#00000A"/></radialGradient><radialGradient id="paint28_radial_1_1830" cx="0" cy="0" r="1" gradientUnits="userSpaceOnUse" gradientTransform="matrix(239.877 0 0 255.231 309.19 -61.097)"><stop stop-color="#90EF74"/><stop offset="1" stop-color="#00000A"/></radialGradient><radialGradient id="paint29_radial_1_1830" cx="0" cy="0" r="1" gradientUnits="userSpaceOnUse" gradientTransform="matrix(83.86 0 0 73.7223 56.88 35.031)"><stop stop-color="#FFF8C7"/><stop offset="1" stop-color="#FFC521"/></radialGradient><radialGradient id="paint30_radial_1_1830" cx="0" cy="0" r="1" gradientUnits="userSpaceOnUse" gradientTransform="matrix(460.096 0 0 404.477 54.241 -38.88)"><stop stop-color="#FFF8C7"/><stop offset="1" stop-color="#FFC521"/></radialGradient><radialGradient id="paint31_radial_1_1830" cx="0" cy="0" r="1" gradientUnits="userSpaceOnUse" gradientTransform="matrix(95.3133 0 0 83.7911 373.222 75.898)"><stop stop-color="#F90"/><stop offset="1" stop-color="#C44800"/></radialGradient><radialGradient id="paint32_radial_1_1830" cx="0" cy="0" r="1" gradientUnits="userSpaceOnUse" gradientTransform="matrix(72.0898 0 0 63.375 72.589 105.368)"><stop stop-color="#F90"/><stop offset="1" stop-color="#C44800"/></radialGradient><radialGradient id="paint33_radial_1_1830" cx="0" cy="0" r="1" gradientUnits="userSpaceOnUse" gradientTransform="matrix(312.518 0 0 274.739 207.897 121.503)"><stop stop-color="#F90"/><stop offset="1" stop-color="#C44800"/></radialGradient><radialGradient id="paint34_radial_1_1830" cx="0" cy="0" r="1" gradientUnits="userSpaceOnUse" gradientTransform="matrix(98.1786 0 0 86.31 357.513 94.94)"><stop stop-color="#F90"/><stop offset="1" stop-color="#C44800"/></radialGradient><radialGradient id="paint35_radial_1_1830" cx="0" cy="0" r="1" gradientUnits="userSpaceOnUse" gradientTransform="matrix(141.564 0 0 124.451 521.738 102.61)"><stop stop-color="#F90"/><stop offset="1" stop-color="#C44800"/></radialGradient><radialGradient id="paint36_radial_1_1830" cx="0" cy="0" r="1" gradientUnits="userSpaceOnUse" gradientTransform="matrix(119.569 0 0 105.114 -24.31 60.053)"><stop stop-color="#FFEB68"/><stop offset="1" stop-color="#E67D2D"/></radialGradient><radialGradient id="paint37_radial_1_1830" cx="0" cy="0" r="1" gradientUnits="userSpaceOnUse" gradientTransform="matrix(119.854 0 0 105.365 -12.657 85.137)"><stop stop-color="#F90"/><stop offset="1" stop-color="#C44800"/></radialGradient><radialGradient id="paint38_radial_1_1830" cx="0" cy="0" r="1" gradientUnits="userSpaceOnUse" gradientTransform="matrix(77.1536 0 0 67.8267 69.377 98.89)"><stop stop-color="#FFEB68"/><stop offset="1" stop-color="#E67D2D"/></radialGradient><radialGradient id="paint39_radial_1_1830" cx="0" cy="0" r="1" gradientUnits="userSpaceOnUse" gradientTransform="matrix(234.785 0 0 206.402 363.922 173.543)"><stop stop-color="#FFF8C7"/><stop offset="1" stop-color="#FFC521"/></radialGradient><radialGradient id="paint40_radial_1_1830" cx="0" cy="0" r="1" gradientUnits="userSpaceOnUse" gradientTransform="matrix(123.743 0 0 108.784 401.119 130.174)"><stop stop-color="#FFF8C7"/><stop offset="1" stop-color="#FFC521"/></radialGradient><radialGradient id="paint41_radial_1_1830" cx="0" cy="0" r="1" gradientUnits="userSpaceOnUse" gradientTransform="matrix(125.165 0 0 110.034 407.172 89.365)"><stop stop-color="#FFEB68"/><stop offset="1" stop-color="#E67D2D"/></radialGradient><radialGradient id="paint42_radial_1_1830" cx="0" cy="0" r="1" gradientUnits="userSpaceOnUse" gradientTransform="matrix(68.0774 0 0 59.8477 80.918 75.047)"><stop stop-color="#F90"/><stop offset="1" stop-color="#C44800"/></radialGradient><radialGradient id="paint43_radial_1_1830" cx="0" cy="0" r="1" gradientUnits="userSpaceOnUse" gradientTransform="matrix(306.887 0 0 269.788 476.475 76.49)"><stop stop-color="#F90"/><stop offset="1" stop-color="#C44800"/></radialGradient><radialGradient id="paint44_radial_1_1830" cx="0" cy="0" r="1" gradientUnits="userSpaceOnUse" gradientTransform="matrix(74.7953 0 0 65.7536 414.264 46.581)"><stop stop-color="#F90"/><stop offset="1" stop-color="#C44800"/></radialGradient><radialGradient id="paint45_radial_1_1830" cx="0" cy="0" r="1" gradientUnits="userSpaceOnUse" gradientTransform="matrix(237.532 0 0 208.817 72.525 35.643)"><stop stop-color="#FFF9CF"/><stop offset="1"/></radialGradient><radialGradient id="paint46_radial_1_1830" cx="0" cy="0" r="1" gradientUnits="userSpaceOnUse" gradientTransform="matrix(233.494 0 0 205.267 395.437 157.177)"><stop stop-color="#FFF9CF"/><stop offset="1"/></radialGradient><linearGradient id="paint13_linear_1_1830" x1="52.583" y1="54.089" x2="411.341" y2="126.341" gradientUnits="userSpaceOnUse"><stop stop-color="#66F72A"/><stop offset="1" stop-color="#1F8200"/></linearGradient><filter id="filter0_d_1_1830" x="0" y="0" width="464.087" height="190" filterUnits="userSpaceOnUse" color-interpolation-filters="sRGB"><feFlood flood-opacity="0" result="BackgroundImageFix"/><feColorMatrix in="SourceAlpha" values="0 0 0 0 0 0 0 0 0 0 0 0 0 0 0 0 0 0 127 0" result="hardAlpha"/><feOffset/><feGaussianBlur stdDeviation="15"/><feComposite in2="hardAlpha" operator="out"/><feColorMatrix values="0 0 0 0 1 0 0 0 0 1 0 0 0 0 1 0 0 0 0.3 0"/><feBlend in2="BackgroundImageFix" result="effect1_dropShadow_1_1830"/><feBlend in="SourceGraphic" in2="effect1_dropShadow_1_1830" result="shape"/></filter></defs></svg>