<svg width="154" height="50" fill="none" xmlns="http://www.w3.org/2000/svg"><path fill-rule="evenodd" clip-rule="evenodd" d="M153.4 11.092c.233 2.756.396 7.839.396 13.652 0 5.814-.155 10.897-.396 13.653-.821 1.235-2.534 3.29-4.622 5.512-2.087 2.221-4.027 4.044-5.18 4.917-13.468.392-38.295.655-66.696.655-28.401 0-53.228-.263-66.697-.655-1.16-.873-3.092-2.696-5.18-4.917-2.088-2.222-3.8-4.285-4.622-5.512C.17 35.64.007 30.557.007 24.744c0-5.813.156-10.896.396-13.652.821-1.228 2.534-3.29 4.622-5.512 2.088-2.222 4.027-4.044 5.18-4.918C23.674.271 48.501.007 76.902.007c28.401 0 53.228.264 66.696.655 1.161.874 3.093 2.696 5.18 4.918 2.088 2.221 3.801 4.284 4.622 5.512z" fill="#125B00"/><path fill-rule="evenodd" clip-rule="evenodd" d="M5.605 24.744c0-3.712.007-7.643.248-11.408L.396 11.092C.163 13.848 0 18.93 0 24.744c0 5.814.156 10.897.396 13.653l5.457-2.244c-.24-3.766-.248-7.696-.248-11.409z" fill="url(#paint0_radial_1_4230)"/><path fill-rule="evenodd" clip-rule="evenodd" d="M5.853 13.336c.976-1.242 2.144-2.492 3.135-3.54.948-1.008 2.08-2.213 3.213-3.23L10.212.655c-1.16.874-3.092 2.696-5.18 4.917-2.088 2.222-3.8 4.285-4.622 5.512l5.443 2.252z" fill="url(#paint1_radial_1_4230)"/><path fill-rule="evenodd" clip-rule="evenodd" d="M12.194 6.566c8.599-.233 17.212-.338 25.81-.421 12.966-.128 25.932-.181 38.898-.181 12.965 0 25.931.053 38.896.18 8.599.091 17.212.189 25.811.422l1.989-5.91C130.13.263 105.303 0 76.902 0 48.5 0 23.673.264 10.205.655l1.989 5.911z" fill="url(#paint2_radial_1_4230)"/><path fill-rule="evenodd" clip-rule="evenodd" d="M141.602 6.566c1.125 1.017 2.258 2.214 3.213 3.23.984 1.047 2.159 2.305 3.135 3.54l5.457-2.244c-.821-1.228-2.534-3.291-4.622-5.512-2.087-2.222-4.026-4.044-5.18-4.918l-2.003 5.904z" fill="url(#paint3_radial_1_4230)"/><path fill-rule="evenodd" clip-rule="evenodd" d="M147.943 13.336c.241 3.757.248 7.688.248 11.408 0 3.713-.007 7.643-.248 11.409l5.457 2.244c.233-2.756.396-7.84.396-13.653 0-5.813-.156-10.896-.396-13.652l-5.457 2.244z" fill="url(#paint4_radial_1_4230)"/><path fill-rule="evenodd" clip-rule="evenodd" d="M147.943 36.145c-.976 1.242-2.144 2.492-3.135 3.54-.948 1.008-2.081 2.213-3.213 3.23l1.989 5.911c1.16-.873 3.092-2.696 5.18-4.917 2.088-2.222 3.801-4.285 4.622-5.512l-5.443-2.252z" fill="url(#paint5_radial_1_4230)"/><path fill-rule="evenodd" clip-rule="evenodd" d="M141.602 42.915c-8.599.233-17.212.339-25.811.422-12.965.128-25.931.18-38.897.18-12.965 0-25.93-.052-38.896-.18-8.6-.083-17.212-.189-25.811-.422l-1.989 5.911c13.468.392 38.295.655 66.696.655 28.402 0 53.229-.263 66.697-.655l-1.989-5.911z" fill="url(#paint6_radial_1_4230)"/><path fill-rule="evenodd" clip-rule="evenodd" d="M12.194 42.915c-1.125-1.017-2.258-2.214-3.213-3.23-.984-1.047-2.159-2.305-3.135-3.54L.389 38.389c.821 1.235 2.534 3.29 4.622 5.512 2.087 2.222 4.027 4.044 5.18 4.917l2.003-5.903z" fill="url(#paint7_radial_1_4230)"/><path opacity=".5" fill-rule="evenodd" clip-rule="evenodd" d="M76.894 47.463c-35.733 0-64.707-2.033-64.707-4.54l-1.989 5.91c13.468.392 38.295.656 66.696.656 28.402 0 53.229-.264 66.697-.655l-1.989-5.912c0 2.508-28.967 4.541-64.708 4.541z" fill="url(#paint8_radial_1_4230)"/><path fill-rule="evenodd" clip-rule="evenodd" d="M10.205.662C11.953 7.688 5.145 12.771.396 11.1l5.457 2.244c.976-1.242 2.144-2.492 3.135-3.539.948-1.009 2.08-2.214 3.213-3.23L10.205.662z" fill="url(#paint9_radial_1_4230)"/><path fill-rule="evenodd" clip-rule="evenodd" d="M12.194 6.566c8.599-.233 17.212-.339 25.81-.421 12.966-.128 25.932-.181 38.898-.181 12.965 0 25.931.053 38.896.18l2.357.023c-34.806-.7-70.285-.926-105.459-.278l-.396-.264c-.672-1.559-1.267-2.937-1.932-4.496.396 1.65.439 2.84.835 4.488l-.106.52c-.757 1.785-3.036 4.458-5.534 6.07l-.475.112c-1.479-.482-2.611-.504-4.09-.986 1.387.678 2.689 1.363 4.076 2.04l.248.422a696.869 696.869 0 00.007 21.763l-.24.437c-.864.497-1.643.986-2.506 1.483.955-.256 1.868-.467 2.824-.723l.467.136c1.875 1.995 3.9 4.081 5.733 6.077l.127.504c-.191.798-.304 1.43-.503 2.26.361-.754.736-1.386 1.097-2.14l.404-.255c14.975.338 34.332.353 49.286.143-6.589-.03-17.438-.09-24.027-.158-8.6-.083-17.212-.189-25.811-.422-1.125-1.017-2.258-2.214-3.213-3.23-.984-1.047-2.159-2.305-3.136-3.54-.24-3.758-.247-7.688-.247-11.408 0-3.713.007-7.644.247-11.409.977-1.242 2.145-2.492 3.136-3.539.97-.994 2.102-2.191 3.227-3.208z" fill="#FFE5A6"/><path fill-rule="evenodd" clip-rule="evenodd" d="M143.591.662c-1.748 7.026 5.06 12.109 9.809 10.437l-5.457 2.244c-.976-1.242-2.144-2.492-3.135-3.539-.948-1.009-2.081-2.214-3.213-3.23l1.996-5.912z" fill="url(#paint10_radial_1_4230)"/><path fill-rule="evenodd" clip-rule="evenodd" d="M143.591 48.826c-1.748-7.026 5.06-12.109 9.809-10.437l-5.457-2.244c-.976 1.242-2.144 2.492-3.135 3.54-.948 1.008-2.081 2.213-3.213 3.23l1.996 5.911z" fill="url(#paint11_radial_1_4230)"/><path fill-rule="evenodd" clip-rule="evenodd" d="M147.943 36.145c-.976 1.242-2.144 2.492-3.135 3.539-.948 1.01-2.081 2.214-3.213 3.23-8.599.234-17.212.34-25.811.422-5.166.053-10.333.09-15.499.12 13.602.06 27.219.046 40.85-.067l.389.271c.637 1.581 1.281 3.163 1.918 4.737l-1.38-4.872.106-.505a153.642 153.642 0 015.69-6.228l.467-.12 3.645 1.13c-1.132-.558-2.264-1.115-3.39-1.672l-.247-.422c.233-7.29.226-14.571.007-21.86l.24-.43c1.076-.557 2.152-1.121 3.227-1.679-1.181.392-2.278.753-3.453 1.137l-.46-.128c-1.635-1.83-3.475-3.531-5.28-5.21a81.91 81.91 0 012.187 2.258c.984 1.047 2.159 2.305 3.135 3.54.241 3.757.248 7.688.248 11.408.007 3.712 0 7.643-.241 11.4z" fill="#CDFF71"/><path fill-rule="evenodd" clip-rule="evenodd" d="M10.205.67c.298.437 30.043.79 66.697.79 36.653 0 66.399-.353 66.696-.79V.663C130.13.27 105.303.007 76.902.007 48.493 0 23.666.264 10.205.67z" fill="url(#paint12_radial_1_4230)"/><path fill-rule="evenodd" clip-rule="evenodd" d="M5.853 36.145c.977 1.243 2.144 2.493 3.135 3.54.949 1.009 2.08 2.213 3.213 3.23 8.6.233 17.212.339 25.811.422 12.966.128 25.931.18 38.897.18 12.965 0 25.931-.052 38.896-.18 8.599-.083 17.212-.189 25.811-.422 1.126-1.017 2.258-2.214 3.213-3.23.984-1.047 2.159-2.305 3.136-3.54.24-3.757.247-7.688.247-11.408 0-3.712-.007-7.643-.247-11.408-.977-1.243-2.145-2.493-3.136-3.54-.948-1.009-2.08-2.213-3.213-3.23-8.599-.233-17.212-.339-25.811-.422-12.965-.128-25.93-.18-38.896-.18-12.966 0-25.931.052-38.897.18-8.599.09-17.212.189-25.81.422-1.126 1.017-2.258 2.214-3.214 3.23-.984 1.047-2.158 2.305-3.135 3.54-.24 3.757-.248 7.688-.248 11.408 0 3.72.007 7.65.248 11.408z" fill="url(#paint13_linear_1_4230)"/><g opacity=".5" fill-rule="evenodd" clip-rule="evenodd"><path opacity=".5" d="M5.853 13.336l71.049 11.408L12.194 6.566c-1.125 1.016-2.258 2.214-3.213 3.23-.984 1.047-2.152 2.297-3.128 3.54z" fill="url(#paint14_radial_1_4230)"/><path opacity=".5" d="M147.943 13.336L76.894 24.744l64.708-18.178c1.125 1.016 2.258 2.214 3.213 3.23.984 1.047 2.152 2.297 3.128 3.54z" fill="url(#paint15_radial_1_4230)"/><path opacity=".75" d="M5.853 36.145l71.049-11.408-64.708 18.178c-1.125-1.017-2.258-2.214-3.213-3.23-.984-1.04-2.152-2.298-3.128-3.54z" fill="url(#paint16_radial_1_4230)"/><path d="M147.943 36.145L76.894 24.737l64.708 18.178c1.125-1.017 2.258-2.214 3.213-3.23.984-1.04 2.152-2.298 3.128-3.54z" fill="url(#paint17_radial_1_4230)"/><path opacity=".3" d="M5.853 36.145l71.049-11.408-71.05-11.401c-.24 3.757-.247 7.688-.247 11.408 0 3.713.007 7.644.248 11.401z" fill="url(#paint18_radial_1_4230)"/><path opacity=".75" d="M12.194 6.566l64.708 18.178 64.707-18.178c-8.599-.233-17.212-.339-25.811-.422-12.965-.128-25.93-.18-38.896-.18-12.966 0-25.931.052-38.897.18-8.599.09-17.212.189-25.81.422z" fill="url(#paint19_radial_1_4230)"/><path opacity=".5" d="M147.943 13.336L76.894 24.744l71.049 11.409c.241-3.758.248-7.689.248-11.409 0-3.712-.007-7.65-.248-11.408z" fill="url(#paint20_radial_1_4230)"/><path opacity=".8" d="M141.602 42.915L76.894 24.737 12.188 42.915c8.599.233 17.212.339 25.81.421 12.966.128 25.932.181 38.897.181 12.966 0 25.932-.053 38.897-.18 8.599-.084 17.212-.189 25.811-.422z" fill="url(#paint21_radial_1_4230)"/><path opacity=".5" d="M18.882 34.059l58.012-9.315-58.012-9.315v18.63z" fill="url(#paint22_radial_1_4230)"/><path d="M43.737 15.429l33.157 9.315 33.165-9.315H43.737z" fill="url(#paint23_radial_1_4230)"/><path opacity=".5" d="M134.914 15.429l-58.02 9.315 58.02 9.315v-18.63z" fill="url(#paint24_radial_1_4230)"/><path opacity=".7" d="M110.059 34.06l-33.165-9.316-33.157 9.315h66.322z" fill="url(#paint25_radial_1_4230)"/></g><path opacity=".65" fill-rule="evenodd" clip-rule="evenodd" d="M13.39 42.945l34.672-36.89c-3.355.022-6.702.052-10.057.082-4.154.045-8.309.09-12.463.15L5.612 27.494c.014 2.869.057 5.806.24 8.652.978 1.243 2.145 2.493 3.136 3.54.949 1.008 2.08 2.213 3.213 3.23.39.015.786.022 1.19.03z" fill="url(#paint26_radial_1_4230)"/><path opacity=".65" fill-rule="evenodd" clip-rule="evenodd" d="M66.76 5.979L31.706 43.276l6.299.068c.99.008 1.988.023 2.98.03L76.136 5.971c-3.128-.007-6.256 0-9.377.008z" fill="url(#paint27_radial_1_4230)"/><path opacity=".65" fill-rule="evenodd" clip-rule="evenodd" d="M129.549 6.318l-34.933 37.17c6.497-.023 12.987-.069 19.484-.129l31.133-33.125-.411-.437c-.948-1.01-2.081-2.214-3.213-3.23-4.02-.106-8.04-.189-12.06-.25z" fill="url(#paint28_radial_1_4230)"/><path fill-rule="evenodd" clip-rule="evenodd" d="M2.341 7.907L8.994 2.06 8.024 0 0 7.054l2.341.853z" fill="url(#paint29_radial_1_4230)"/><path fill-rule="evenodd" clip-rule="evenodd" d="M8.994 2.06h135.841l.97-2.06H8.023l.97 2.06z" fill="url(#paint30_radial_1_4230)"/><path fill-rule="evenodd" clip-rule="evenodd" d="M144.835 2.06l6.651 5.847 2.343-.853L145.805 0l-.97 2.06z" fill="url(#paint31_radial_1_4230)"/><path fill-rule="evenodd" clip-rule="evenodd" d="M8.994 47.43L2.34 41.583 0 42.435l8.024 7.054.97-2.058z" fill="url(#paint32_radial_1_4230)"/><path fill-rule="evenodd" clip-rule="evenodd" d="M144.835 47.43H8.994l-.97 2.059h137.781l-.97-2.058z" fill="url(#paint33_radial_1_4230)"/><path fill-rule="evenodd" clip-rule="evenodd" d="M151.486 41.582l-6.651 5.849.97 2.058 8.024-7.054-2.343-.853z" fill="url(#paint34_radial_1_4230)"/><path fill-rule="evenodd" clip-rule="evenodd" d="M151.486 7.907v33.675l2.343.853V7.054l-2.343.853z" fill="url(#paint35_radial_1_4230)"/><path fill-rule="evenodd" clip-rule="evenodd" d="M2.341 41.582V7.907L0 7.054v35.381l2.341-.853z" fill="url(#paint36_radial_1_4230)"/><path fill-rule="evenodd" clip-rule="evenodd" d="M2.341 7.906v33.676l1.407-.51V8.418l-1.407-.513z" fill="url(#paint37_radial_1_4230)"/><path fill-rule="evenodd" clip-rule="evenodd" d="M9.575 46.194L3.748 41.07l-1.407.511 6.653 5.849.581-1.237z" fill="url(#paint38_radial_1_4230)"/><path fill-rule="evenodd" clip-rule="evenodd" d="M144.252 46.194H9.575l-.581 1.237h135.841l-.583-1.237z" fill="url(#paint39_radial_1_4230)"/><path fill-rule="evenodd" clip-rule="evenodd" d="M150.081 41.071l-5.829 5.123.583 1.237 6.651-5.849-1.405-.51z" fill="url(#paint40_radial_1_4230)"/><path fill-rule="evenodd" clip-rule="evenodd" d="M150.081 8.42v32.65l1.405.511V7.906l-1.405.513z" fill="url(#paint41_radial_1_4230)"/><path fill-rule="evenodd" clip-rule="evenodd" d="M3.748 8.42l5.827-5.125-.581-1.235L2.34 7.907l1.407.512z" fill="url(#paint42_radial_1_4230)"/><path fill-rule="evenodd" clip-rule="evenodd" d="M9.575 3.295h134.677l.583-1.235H8.994l.581 1.235z" fill="url(#paint43_radial_1_4230)"/><path fill-rule="evenodd" clip-rule="evenodd" d="M144.252 3.295l5.829 5.124 1.405-.513-6.651-5.846-.583 1.235z" fill="url(#paint44_radial_1_4230)"/><path fill-rule="evenodd" clip-rule="evenodd" d="M5.91 4.77l2.72-2.783L8.104.171l1.012 1.607 65.424.282-65.436.232L5.91 4.77z" fill="url(#paint45_radial_1_4230)"/><path fill-rule="evenodd" clip-rule="evenodd" d="M147.916 44.72l-2.716 2.781.525 1.817-1.014-1.605-65.422-.282 65.436-.235 3.191-2.475z" fill="url(#paint46_radial_1_4230)"/><defs><radialGradient id="paint0_radial_1_4230" cx="0" cy="0" r="1" gradientUnits="userSpaceOnUse" gradientTransform="matrix(57.4688 0 0 61.1472 -1.115 9.879)"><stop stop-color="#72EF52"/><stop offset="1" stop-color="#20EC00"/></radialGradient><radialGradient id="paint1_radial_1_4230" cx="0" cy="0" r="1" gradientUnits="userSpaceOnUse" gradientTransform="matrix(39.9207 0 0 42.4759 6.046 1.966)"><stop stop-color="#99F77D"/><stop offset="1" stop-color="#1CC100"/></radialGradient><radialGradient id="paint2_radial_1_4230" cx="0" cy="0" r="1" gradientUnits="userSpaceOnUse" gradientTransform="matrix(104.656 0 0 111.354 41.301 -57.897)"><stop stop-color="#D5EFC1"/><stop offset="1" stop-color="#4FEF2C"/></radialGradient><radialGradient id="paint3_radial_1_4230" cx="0" cy="0" r="1" gradientUnits="userSpaceOnUse" gradientTransform="matrix(97.954 0 0 104.224 149.623 -34.373)"><stop stop-color="#83EF65"/><stop offset="1" stop-color="#1CC100"/></radialGradient><radialGradient id="paint4_radial_1_4230" cx="0" cy="0" r="1" gradientUnits="userSpaceOnUse" gradientTransform="matrix(57.5031 0 0 61.1838 152.364 -6.776)"><stop stop-color="#72EF52"/><stop offset="1" stop-color="#20EC00"/></radialGradient><radialGradient id="paint5_radial_1_4230" cx="0" cy="0" r="1" gradientUnits="userSpaceOnUse" gradientTransform="matrix(23.6026 0 0 25.1134 134.806 25.536)"><stop stop-color="#38EF12"/><stop offset="1" stop-color="#189600"/></radialGradient><radialGradient id="paint6_radial_1_4230" cx="0" cy="0" r="1" gradientUnits="userSpaceOnUse" gradientTransform="matrix(117.992 0 0 125.545 39.31 -24.518)"><stop stop-color="#3BF715"/><stop offset="1" stop-color="#178C00"/></radialGradient><radialGradient id="paint7_radial_1_4230" cx="0" cy="0" r="1" gradientUnits="userSpaceOnUse" gradientTransform="matrix(36.7236 0 0 39.0742 -5.903 31.098)"><stop stop-color="#7DEF5F"/><stop offset="1" stop-color="#1ED600"/></radialGradient><radialGradient id="paint8_radial_1_4230" cx="0" cy="0" r="1" gradientUnits="userSpaceOnUse" gradientTransform="matrix(108.461 0 0 115.404 76.898 46.2)"><stop stop-color="#83EF65"/><stop offset="1" stop-color="#00000A"/></radialGradient><radialGradient id="paint9_radial_1_4230" cx="0" cy="0" r="1" gradientUnits="userSpaceOnUse" gradientTransform="matrix(20.1162 0 0 21.4037 14.385 17.328)"><stop stop-color="#5BF738"/><stop offset="1" stop-color="#FFF8EF"/></radialGradient><radialGradient id="paint10_radial_1_4230" cx="0" cy="0" r="1" gradientUnits="userSpaceOnUse" gradientTransform="matrix(29.5332 0 0 31.4235 151.235 15.077)"><stop stop-color="#4BC72C"/><stop offset="1" stop-color="#FFF8EF"/></radialGradient><radialGradient id="paint11_radial_1_4230" cx="0" cy="0" r="1" gradientUnits="userSpaceOnUse" gradientTransform="matrix(21.8643 0 0 23.2638 149.244 38.647)"><stop stop-color="#E5DB3D"/><stop offset="1" stop-color="#FFF8EF"/></radialGradient><radialGradient id="paint12_radial_1_4230" cx="0" cy="0" r="1" gradientUnits="userSpaceOnUse" gradientTransform="matrix(120.05 0 0 127.734 76.898 .732)"><stop stop-color="#48F723"/><stop offset="1" stop-color="#00000A"/></radialGradient><radialGradient id="paint14_radial_1_4230" cx="0" cy="0" r="1" gradientUnits="userSpaceOnUse" gradientTransform="matrix(146.098 0 0 155.449 79.46 25.19)"><stop stop-color="#8EF771"/><stop offset="1" stop-color="#00000A"/></radialGradient><radialGradient id="paint15_radial_1_4230" cx="0" cy="0" r="1" gradientUnits="userSpaceOnUse" gradientTransform="matrix(173.284 0 0 184.376 79.065 24.396)"><stop stop-color="#8EF771"/><stop offset="1" stop-color="#00000A"/></radialGradient><radialGradient id="paint16_radial_1_4230" cx="0" cy="0" r="1" gradientUnits="userSpaceOnUse" gradientTransform="matrix(91.3121 0 0 97.1566 9.345 40.981)"><stop stop-color="#8EF771"/><stop offset="1" stop-color="#00000A"/></radialGradient><radialGradient id="paint17_radial_1_4230" cx="0" cy="0" r="1" gradientUnits="userSpaceOnUse" gradientTransform="matrix(89.5221 0 0 95.252 142.293 48.132)"><stop stop-color="#8EF771"/><stop offset="1" stop-color="#00000A"/></radialGradient><radialGradient id="paint18_radial_1_4230" cx="0" cy="0" r="1" gradientUnits="userSpaceOnUse" gradientTransform="matrix(45.5315 0 0 48.4458 5.655 13.354)"><stop stop-color="#71F750"/><stop offset="1" stop-color="#00000A"/></radialGradient><radialGradient id="paint19_radial_1_4230" cx="0" cy="0" r="1" gradientUnits="userSpaceOnUse" gradientTransform="matrix(124.889 0 0 132.882 70.186 -23.508)"><stop stop-color="#9AF77E"/><stop offset="1" stop-color="#00000A"/></radialGradient><radialGradient id="paint20_radial_1_4230" cx="0" cy="0" r="1" gradientUnits="userSpaceOnUse" gradientTransform="matrix(63.8297 0 0 67.9152 148.888 24.478)"><stop stop-color="#71F750"/><stop offset="1" stop-color="#00000A"/></radialGradient><radialGradient id="paint21_radial_1_4230" cx="0" cy="0" r="1" gradientUnits="userSpaceOnUse" gradientTransform="matrix(92.5451 0 0 98.4685 66.443 93.46)"><stop stop-color="#71F750"/><stop offset="1" stop-color="#00000A"/></radialGradient><radialGradient id="paint22_radial_1_4230" cx="0" cy="0" r="1" gradientUnits="userSpaceOnUse" gradientTransform="matrix(111.334 0 0 118.46 19.262 14.148)"><stop stop-color="#7BEF5D"/><stop offset="1" stop-color="#00000A"/></radialGradient><radialGradient id="paint23_radial_1_4230" cx="0" cy="0" r="1" gradientUnits="userSpaceOnUse" gradientTransform="matrix(45.2311 0 0 48.1262 44.288 15.053)"><stop stop-color="#7BEF5D"/><stop offset="1" stop-color="#00000A"/></radialGradient><radialGradient id="paint24_radial_1_4230" cx="0" cy="0" r="1" gradientUnits="userSpaceOnUse" gradientTransform="matrix(47.347 0 0 50.3775 134.036 14.943)"><stop stop-color="#A9EF90"/><stop offset="1" stop-color="#00000A"/></radialGradient><radialGradient id="paint25_radial_1_4230" cx="0" cy="0" r="1" gradientUnits="userSpaceOnUse" gradientTransform="matrix(66.4608 0 0 70.7147 111.997 35.403)"><stop stop-color="#7BEF5D"/><stop offset="1" stop-color="#00000A"/></radialGradient><radialGradient id="paint26_radial_1_4230" cx="0" cy="0" r="1" gradientUnits="userSpaceOnUse" gradientTransform="matrix(60.5075 0 0 64.3804 17.253 -7.748)"><stop stop-color="#90EF74"/><stop offset="1" stop-color="#00000A"/></radialGradient><radialGradient id="paint27_radial_1_4230" cx="0" cy="0" r="1" gradientUnits="userSpaceOnUse" gradientTransform="matrix(70.9823 0 0 75.5256 58.968 -16.181)"><stop stop-color="#90EF74"/><stop offset="1" stop-color="#00000A"/></radialGradient><radialGradient id="paint28_radial_1_4230" cx="0" cy="0" r="1" gradientUnits="userSpaceOnUse" gradientTransform="matrix(91.3174 0 0 97.1623 106.283 -34.68)"><stop stop-color="#90EF74"/><stop offset="1" stop-color="#00000A"/></radialGradient><radialGradient id="paint29_radial_1_4230" cx="0" cy="0" r="1" gradientUnits="userSpaceOnUse" gradientTransform="matrix(31.9241 0 0 28.0649 10.233 1.915)"><stop stop-color="#FFF8C7"/><stop offset="1" stop-color="#FFC521"/></radialGradient><radialGradient id="paint30_radial_1_4230" cx="0" cy="0" r="1" gradientUnits="userSpaceOnUse" gradientTransform="matrix(175.151 0 0 153.978 9.228 -26.222)"><stop stop-color="#FFF8C7"/><stop offset="1" stop-color="#FFC521"/></radialGradient><radialGradient id="paint31_radial_1_4230" cx="0" cy="0" r="1" gradientUnits="userSpaceOnUse" gradientTransform="matrix(36.2842 0 0 31.8979 130.659 17.473)"><stop stop-color="#F90"/><stop offset="1" stop-color="#C44800"/></radialGradient><radialGradient id="paint32_radial_1_4230" cx="0" cy="0" r="1" gradientUnits="userSpaceOnUse" gradientTransform="matrix(27.4434 0 0 24.1259 16.213 28.691)"><stop stop-color="#F90"/><stop offset="1" stop-color="#C44800"/></radialGradient><radialGradient id="paint33_radial_1_4230" cx="0" cy="0" r="1" gradientUnits="userSpaceOnUse" gradientTransform="matrix(118.97 0 0 104.589 67.722 34.834)"><stop stop-color="#F90"/><stop offset="1" stop-color="#C44800"/></radialGradient><radialGradient id="paint34_radial_1_4230" cx="0" cy="0" r="1" gradientUnits="userSpaceOnUse" gradientTransform="matrix(37.375 0 0 32.8568 124.679 24.721)"><stop stop-color="#F90"/><stop offset="1" stop-color="#C44800"/></radialGradient><radialGradient id="paint35_radial_1_4230" cx="0" cy="0" r="1" gradientUnits="userSpaceOnUse" gradientTransform="matrix(53.8912 0 0 47.3764 187.196 27.642)"><stop stop-color="#F90"/><stop offset="1" stop-color="#C44800"/></radialGradient><radialGradient id="paint36_radial_1_4230" cx="0" cy="0" r="1" gradientUnits="userSpaceOnUse" gradientTransform="matrix(45.5179 0 0 40.0154 -20.675 11.44)"><stop stop-color="#FFEB68"/><stop offset="1" stop-color="#E67D2D"/></radialGradient><radialGradient id="paint37_radial_1_4230" cx="0" cy="0" r="1" gradientUnits="userSpaceOnUse" gradientTransform="matrix(45.6265 0 0 40.1108 -16.239 20.99)"><stop stop-color="#F90"/><stop offset="1" stop-color="#C44800"/></radialGradient><radialGradient id="paint38_radial_1_4230" cx="0" cy="0" r="1" gradientUnits="userSpaceOnUse" gradientTransform="matrix(29.3711 0 0 25.8205 14.99 26.226)"><stop stop-color="#FFEB68"/><stop offset="1" stop-color="#E67D2D"/></radialGradient><radialGradient id="paint39_radial_1_4230" cx="0" cy="0" r="1" gradientUnits="userSpaceOnUse" gradientTransform="matrix(89.3788 0 0 78.5739 127.119 54.644)"><stop stop-color="#FFF8C7"/><stop offset="1" stop-color="#FFC521"/></radialGradient><radialGradient id="paint40_radial_1_4230" cx="0" cy="0" r="1" gradientUnits="userSpaceOnUse" gradientTransform="matrix(47.107 0 0 41.4124 141.279 38.135)"><stop stop-color="#FFF8C7"/><stop offset="1" stop-color="#FFC521"/></radialGradient><radialGradient id="paint41_radial_1_4230" cx="0" cy="0" r="1" gradientUnits="userSpaceOnUse" gradientTransform="matrix(47.6483 0 0 41.8882 143.583 22.599)"><stop stop-color="#FFEB68"/><stop offset="1" stop-color="#E67D2D"/></radialGradient><radialGradient id="paint42_radial_1_4230" cx="0" cy="0" r="1" gradientUnits="userSpaceOnUse" gradientTransform="matrix(25.916 0 0 22.783 19.384 17.149)"><stop stop-color="#F90"/><stop offset="1" stop-color="#C44800"/></radialGradient><radialGradient id="paint43_radial_1_4230" cx="0" cy="0" r="1" gradientUnits="userSpaceOnUse" gradientTransform="matrix(116.827 0 0 102.704 169.966 17.698)"><stop stop-color="#F90"/><stop offset="1" stop-color="#C44800"/></radialGradient><radialGradient id="paint44_radial_1_4230" cx="0" cy="0" r="1" gradientUnits="userSpaceOnUse" gradientTransform="matrix(28.4734 0 0 25.0313 146.283 6.312)"><stop stop-color="#F90"/><stop offset="1" stop-color="#C44800"/></radialGradient><radialGradient id="paint45_radial_1_4230" cx="0" cy="0" r="1" gradientUnits="userSpaceOnUse" gradientTransform="matrix(90.4245 0 0 79.4933 16.188 2.148)"><stop stop-color="#FFF9CF"/><stop offset="1"/></radialGradient><radialGradient id="paint46_radial_1_4230" cx="0" cy="0" r="1" gradientUnits="userSpaceOnUse" gradientTransform="matrix(88.8873 0 0 78.1419 139.116 48.414)"><stop stop-color="#FFF9CF"/><stop offset="1"/></radialGradient><linearGradient id="paint13_linear_1_4230" x1="8.597" y1="9.17" x2="145.17" y2="36.675" gradientUnits="userSpaceOnUse"><stop stop-color="#66F72A"/><stop offset="1" stop-color="#1F8200"/></linearGradient></defs></svg>